<mxfile host="Electron" modified="2024-02-14T19:51:33.892Z" agent="Mozilla/5.0 (Windows NT 10.0; Win64; x64) AppleWebKit/537.36 (KHTML, like Gecko) draw.io/22.1.18 Chrome/120.0.6099.199 Electron/28.1.2 Safari/537.36" etag="ZNhb85YoCJVqbnTbyOOu" version="22.1.18" type="device">
  <diagram id="aSzpfpmV2TL3uO5plmym" name="Architecture">
    <mxGraphModel dx="2230" dy="1528" grid="0" gridSize="10" guides="1" tooltips="1" connect="1" arrows="1" fold="1" page="1" pageScale="1" pageWidth="825" pageHeight="570" background="#27284B" math="0" shadow="0">
      <root>
        <mxCell id="0" />
        <mxCell id="1" parent="0" />
        <mxCell id="wImkBHEnD4N6jClxrFpg-154" value="" style="rounded=0;whiteSpace=wrap;html=1;labelBackgroundColor=none;fontSize=35;fontColor=#660066;fillColor=none;strokeWidth=1;strokeColor=#FFFFFF;" parent="1" vertex="1">
          <mxGeometry x="-169" y="424" width="202" height="172" as="geometry" />
        </mxCell>
        <mxCell id="wImkBHEnD4N6jClxrFpg-51" value="" style="rounded=0;whiteSpace=wrap;html=1;strokeColor=#27284B;fillColor=none;" parent="1" vertex="1">
          <mxGeometry x="-752" y="-3" width="1032" height="780" as="geometry" />
        </mxCell>
        <mxCell id="drTwSfORm-FCbRmopEba-1" value="" style="rounded=0;whiteSpace=wrap;html=1;labelBackgroundColor=none;fontSize=35;fontColor=#660066;fillColor=none;strokeWidth=1;strokeColor=#FFFFFF;" parent="1" vertex="1">
          <mxGeometry x="-168" y="606" width="201" height="147" as="geometry" />
        </mxCell>
        <mxCell id="drTwSfORm-FCbRmopEba-29" value="" style="whiteSpace=wrap;html=1;aspect=fixed;strokeColor=none;" parent="1" vertex="1">
          <mxGeometry x="-168.5" y="606" width="57" height="57" as="geometry" />
        </mxCell>
        <mxCell id="wImkBHEnD4N6jClxrFpg-52" value="" style="rounded=0;whiteSpace=wrap;html=1;labelBackgroundColor=none;fontSize=35;fontColor=#660066;fillColor=none;strokeWidth=1;strokeColor=#FFFFFF;" parent="1" vertex="1">
          <mxGeometry x="-739" y="168" width="468" height="585" as="geometry" />
        </mxCell>
        <mxCell id="wImkBHEnD4N6jClxrFpg-53" value="" style="rounded=0;whiteSpace=wrap;html=1;labelBackgroundColor=none;fontSize=14;fillColor=none;strokeColor=#8FA7C4;dashed=1;strokeWidth=1.5;" parent="1" vertex="1">
          <mxGeometry x="-649" y="206" width="211" height="199" as="geometry" />
        </mxCell>
        <mxCell id="wImkBHEnD4N6jClxrFpg-54" value="" style="rounded=0;whiteSpace=wrap;html=1;labelBackgroundColor=none;fontSize=35;fontColor=#660066;fillColor=none;strokeWidth=1;strokeColor=#FFFFFF;" parent="1" vertex="1">
          <mxGeometry x="-169" y="168" width="437" height="239" as="geometry" />
        </mxCell>
        <mxCell id="wImkBHEnD4N6jClxrFpg-55" value="&lt;font color=&quot;#ffffff&quot; style=&quot;font-size: 14px&quot;&gt;Adeunis&lt;br&gt;Dry Contacts V1&lt;br&gt;&lt;/font&gt;" style="outlineConnect=0;fontColor=#232F3E;gradientColor=none;strokeColor=none;dashed=0;verticalLabelPosition=bottom;verticalAlign=top;align=center;html=1;fontSize=12;fontStyle=0;aspect=fixed;pointerEvents=1;shape=mxgraph.aws4.generic;fillColor=#FFFFFF;" parent="1" vertex="1">
          <mxGeometry x="-694" y="39" width="78" height="78" as="geometry" />
        </mxCell>
        <mxCell id="wImkBHEnD4N6jClxrFpg-56" value="" style="html=1;verticalLabelPosition=bottom;align=center;labelBackgroundColor=#ffffff;verticalAlign=top;strokeWidth=5;shadow=0;dashed=0;shape=mxgraph.ios7.icons.cloud;fillColor=none;strokeColor=#FFFFFF;" parent="1" vertex="1">
          <mxGeometry x="88" y="5" width="180" height="90" as="geometry" />
        </mxCell>
        <mxCell id="wImkBHEnD4N6jClxrFpg-57" value="" style="shape=image;html=1;verticalAlign=top;verticalLabelPosition=bottom;labelBackgroundColor=#ffffff;imageAspect=0;aspect=fixed;image=https://cdn2.iconfinder.com/data/icons/security-243/24/ic_hotspot-128.png;comic=0;strokeColor=#277116;fontColor=none;" parent="1" vertex="1">
          <mxGeometry x="-288.5" y="3" width="128" height="128" as="geometry" />
        </mxCell>
        <mxCell id="wImkBHEnD4N6jClxrFpg-58" value="Heluim Router" style="shape=image;imageAspect=0;aspect=fixed;verticalLabelPosition=bottom;verticalAlign=top;strokeColor=#FFFFFF;fillColor=none;image=https://miro.medium.com/fit/c/160/160/1*kiXQ6xxWSY7ENe7FtMdI_g.png;fontColor=#FFFFFF;fontSize=14;imageBorder=#000000;" parent="1" vertex="1">
          <mxGeometry x="165" y="62" width="61" height="61" as="geometry" />
        </mxCell>
        <mxCell id="wImkBHEnD4N6jClxrFpg-59" value="" style="edgeStyle=orthogonalEdgeStyle;html=1;endArrow=block;elbow=vertical;startArrow=block;startFill=1;endFill=1;rounded=0;fontColor=#FFFFFF;entryX=0.008;entryY=0.586;entryDx=0;entryDy=0;entryPerimeter=0;strokeColor=#FFFFFF;strokeWidth=3;" parent="1" source="wImkBHEnD4N6jClxrFpg-55" target="wImkBHEnD4N6jClxrFpg-57" edge="1">
          <mxGeometry x="-0.0114" y="18" width="100" relative="1" as="geometry">
            <mxPoint x="-327.87" y="47" as="sourcePoint" />
            <mxPoint x="-227.87" y="47" as="targetPoint" />
            <mxPoint as="offset" />
          </mxGeometry>
        </mxCell>
        <mxCell id="wImkBHEnD4N6jClxrFpg-60" value="" style="edgeStyle=orthogonalEdgeStyle;html=1;endArrow=block;elbow=vertical;startArrow=block;startFill=1;endFill=1;rounded=0;fontColor=#FFFFFF;strokeColor=#FFFFFF;strokeWidth=3;entryX=-0.011;entryY=0.822;entryDx=0;entryDy=0;entryPerimeter=0;exitX=1.008;exitY=0.594;exitDx=0;exitDy=0;exitPerimeter=0;" parent="1" source="wImkBHEnD4N6jClxrFpg-57" target="wImkBHEnD4N6jClxrFpg-56" edge="1">
          <mxGeometry x="-0.0114" y="18" width="100" relative="1" as="geometry">
            <mxPoint x="-366.9608858101361" y="57.00800000000004" as="sourcePoint" />
            <mxPoint x="-196.84600000000012" y="57.00800000000004" as="targetPoint" />
            <mxPoint as="offset" />
          </mxGeometry>
        </mxCell>
        <mxCell id="wImkBHEnD4N6jClxrFpg-61" value="" style="edgeStyle=orthogonalEdgeStyle;html=1;endArrow=block;elbow=vertical;startArrow=block;startFill=1;endFill=1;rounded=0;fontColor=#FFFFFF;strokeColor=#FFFFFF;strokeWidth=3;entryX=0.5;entryY=0;entryDx=0;entryDy=0;" parent="1" target="wImkBHEnD4N6jClxrFpg-67" edge="1">
          <mxGeometry x="-0.0114" y="18" width="100" relative="1" as="geometry">
            <mxPoint x="198" y="147" as="sourcePoint" />
            <mxPoint x="197.6300000000001" y="288" as="targetPoint" />
            <mxPoint as="offset" />
          </mxGeometry>
        </mxCell>
        <mxCell id="wImkBHEnD4N6jClxrFpg-62" value="&lt;font style=&quot;font-size: 15px&quot;&gt;libp2p&lt;/font&gt;" style="text;html=1;strokeColor=none;fillColor=none;align=center;verticalAlign=middle;whiteSpace=wrap;rounded=0;fontSize=14;fontColor=#FFFFFF;" parent="1" vertex="1">
          <mxGeometry x="-66" y="53" width="74" height="20" as="geometry" />
        </mxCell>
        <mxCell id="wImkBHEnD4N6jClxrFpg-63" value="LoRaWAN&lt;br&gt;Gateway" style="text;html=1;strokeColor=none;fillColor=none;align=center;verticalAlign=middle;whiteSpace=wrap;rounded=0;fontSize=17;fontColor=#FFFFFF;" parent="1" vertex="1">
          <mxGeometry x="-260.49" y="133" width="74" height="20" as="geometry" />
        </mxCell>
        <mxCell id="wImkBHEnD4N6jClxrFpg-66" value="IoT Rule&#xa;Filter &amp; Routing" style="shape=image;verticalLabelPosition=bottom;labelBackgroundColor=none;verticalAlign=top;aspect=fixed;imageAspect=0;image=data:image/png,iVBORw0KGgoAAAANSUhEUgAAAEsAAABLCAYAAAA4TnrqAAAAAXNSR0IArs4c6QAAAARnQU1BAACxjwv8YQUAAAAJcEhZcwAAFxEAABcRAcom8z8AAArrSURBVHhe7VwNkFVVHV9L06QvbRRR2PXdc+7usjmkbeLu8u7H2w+EJsucGNOsqSmZnKDRGAXFeMO+d+99uw9wEUyN0popmmaoiRGKaChBmIyExEQTB5sKHIjhU2DEBbbf79xzl330IJ4s7tvl/mbOnHvP5z2/8z//8z8f71XEiBFjSMDKmmPdvLnU8cUa2xfPnsoxPjVHLrNni5TOetaw26tGu4Fod3y5yvHEK7YnXnA75SI7K2/RScoL+MDVN3+/tqd5bnVPC9284o7x45EOjdpYMani/Tr7uwbIfzDVKQ+0zq8Jy58T1tHaVaN8kLbcyohROnl5wPGMjfw4x5M9qbx5gjTt+N6McPS+ahAloC5d9wGd/V3ByoqutkdrelKdpqoz6oyos9yc2dOKeCeQrzVnzWt0toEHGr8+IsTyzS43I24HcXedcMaXkCbHBjAdhsjfzoYsyxe3tzxSA0KkJka+jjKnu57Rwvog6cv4LW4gFWF8R7YLwtwDjIislq7qHvT4zTq4ABgOTW7H2ZM1Yb682Pbky6pz4CA56xrTxpU6uhcgbQalmITStwKjWUcNLHrJegREeOZtOrgAVkaO7w+yMFE0shwOPxBxOOnJOh31P3CyYiUljzrNCcRjOnhg8V6ShbruJgF0dlY8q4OLAmR9s2UelD++C/ryDzp4YPFekoVhPoX1hHXJX+vgosBQ/CKHoCLWM9bp4IFFAVnZ6ok6uABOpjrZT2R9XpkI4ay69XTlIG1HKyYCJVme+JUOHlhEZIVEmDOTvnmTkzGSkRuXlQ3o5ftOzIbiRZ21ZFCZg+wd1FksCwbpNB1VgGRgGojblUIH0e6yssa9OmpgAdNgAz+cdhSna+VATK9T71LF8+PxvMOenbhRZy8Z6JwlymRAWSCt2/Xl9Bv92o+ryHTF+5wg0Yo6Xg0l0OyxfbnLSVddpeIHGrBj/jx+YW1okPIDKWV6qPR9ZzyJ0zPZQScw7kf2M7Z/0OCPOTm5ECQdYjkwGxRhSlo9sR067I+YLTcpCWZ9iKM9Bun+ui5i4JH05WdTeflXLD/ewAe/fmontlLC2NskjHYZGrvydNN/BCcjJiDtZpoBERkRUeyEXiueJLFskMQwK2PM0EWUDxyn4sK2/PBh9ekRl57KtU0bPgyz0m1uh9waNZrKFxKwF3bQVF1UAZz0FR9yc2JeRAx95sXQWmv5cjw6qAPlvZmKJJhpcvKI24lOyCRadTGDFzd5ieFo0NOqcZQKJQnKGl+e9BPVOhmlyQURL1JBK2Kpp3LyHRA0u+8s2Jg3rnQCsxUTx1edDnGrnTNH66ihA8c37kDjt4VkYJ0X+rssT34Dw3YWiDrKhXEkTXhfn/SMcTr7+QdrphgFghZTapTuoUmghxRJUmTlzONOTuSg4C/R2c5vYGb8GsjZQZJoYkTbOSByU3K20aKTxYhAQ9IOxJ9SmC0pUdBhK5rur/mwjo5xMiBRHk0K6igLM50OjlEMWBbN5cyolii+6NLBMYrB9cTjE34wumfiojrYUsYiHRyjGGjNN3dV39UG1+gZ1+ng8w+OV1XrdMoZsK++h8X3w8Uc1nbfxVC8x8nIe+wMn4unYxmpvHgw1S4+oYsfOmjLjxkGIl7lURj1UX84Hr+B2C1j0/IjupqhAStbOQJkHaGhGdlRkVPHV1Dqp3UwWrnL0DefKsuTh5syUuhqhga4nwSy3upLFpc4WOcdsj3xY8cTP7I84yfFHOKfwrrvh0i7P8zTlyyx38pUJ3Q1QwMFZHFPC0sb+lhId4OE/2sigKwM8hxRebEkoj9kybIeUsPwLdVQXx7C82a17kOjaYAi7Jf1k0dcqpP3gls/SPs0dZQbhNs0kLR/gKQDqiyQlUybhk4+uAFT4Aoqd/qKLEgUGnuwqf3aGhD0C7WbEBEWiN9xN1RnpTReAqlbUpDGl79xslXXw9/JtSPJasyMrlJpy2XruFQ4aTnSDmQeS5ftaPCU+ifrL+pDVjfJ43450ixWZEAXUXowvNYlg8rLGuaO/CCeV/Qlyg3EMxOmyouT3lUk/kBEVmvO+KiTMe/ARLATaRc0zRw1eBR+0hO3up1yGxvYtoB3DYx1zV5iuO3JfUpXeeIdK1MZ6pmeigtgMz3Zyi1m7mlh5kP8erjV6j6DJgrk/FyCKFV+utLA+36ShTL3NqVrrkYHLOM5ANNieP4nmRFfUeWXM9TJSqc8xoZQp/Dj0fAtVlZ8Cg3aFZHlBFXX6iwKVlbOIVFqfx1p9PaMkjYQUrDsIdEnyBK77HZ5g+3LDZoo5I10m1H0wLc8wGMoX6xRyhgNxWz1bztjPECpooOeOa4ahFnMymvJ6gM0bpbaBEQ8ZzruPnBhraN70ZQZJUDO0bZHlVF6lLNhQ7rucnTCVEjiG5GE8jC3fnLFRTpbeaEeugM9vT2VD41Iy5O9JyvJGZWXYWG8Dg3ZxGHW2jHqah1VAMdL3KekQ0mGnKWDC9CcHXkNJOu5VKd8CfU953TW9Sp2mBiTI6lGmr0NSKujygsN6ZGX42O380PZu07O3O92yAVOp3m9TnJG4AEsGtqoX88IWC9e5+TkHNS7m0NZkeWJPePSRqVOUl7gLIYP3MYPxZALhxL1UCC7YRascTzzYfhuU0cNpeqsLpdZ2doRTs5IYjhOB0mrUO7b6sCDhirq1pK1u+yuSUY4iazjHA5KB+GdBih1Wdjjch9020akfQbPC+A/ZAdispVJfJm3cNDIzykXmF+wvcSdGLZ3QzfNgD8f/lKUvQH+HlUuyozq4NCN9vBVPYOBLJIEMo5YvuHBX4meP0ZlTSljXDRbsZEMo4lAIlU8G8zZUM+IDAvjwnjmUWlYBtJE8Rx6nFxQfzucssEGD1mePM4DCIbT4oYueQCkLUX4PzFkjjBNRFBEwmmdTsc8JAvGbDfI2IYyl7u+mGn74UUTdcsGxq9KM5jIom2lo3oxZtrwYU4eyhiGK2bH72AY5pHnp/B/C8lYjefn8fxC6MTzobTIFfB/hjLnYojdy6GaCsxPFjv54Yk28h0cEmSda8RklYCYrBIQk1UCYrJKQExWCYjJKgExWSUgJqsExGSVgJisEhCTVQJiskpATFYJiMkqATFZJSAmqwTEZJWAmKwSEJNVAgYtWU3Z0k6i+wMNvpAgaXCc7jieeFORFcjjSS8xRke9Z+ANG8eXh/kNIGvvuFyZHt/zr09A1ivsVZ4Iuzn5ezuQN+jocw7+4ACdtFSdTodkbWvqKOMfSoGsqfz3IV4MIWlOYL7t5MQS25N3noshwXsTIGgS6lsM/yAPZFl324JaXjlK62TlCztr5EkUPzz8BXx45A4iD6BBa6HXHnc98W3+i4gDvUYSeZe02B9a8H6VugaZkyOTXvWYZJBoxTD7Fsp6DJ2wGp2wT9WFOqL7DnyGVD3hpCsu1MWUNzD8bkl1yLX87aA6csew4K0/EqiO7eGHQ0UeQ8P3gIB/wW1BIzfj/SU6xL2MiWIL40Dwbrx3846DOs7XZbBMlhPV4Xaaf6Gk6c8YXHA7jBZ8/BOQjNd4P/RksnodJOK0rk/a3jIgQRxybk5stQPxlO0bn5nUD//4NuDgHYdUIOo5hCBx83m7BtLyd0jLDkjTIYQXXBuKHMMYBwk7DH8nJQ1DbxXIX+hkxRQrZ44tayXeb4AU8Iq3uhOfNT5tBaYNItpA5ATovYnqn5E86fCGjONV16p7qWlncOihGDHOEBUV/wUnUwv9SlZ2pAAAAABJRU5ErkJggg==;fontColor=#FFFFFF;fontSize=14;" parent="1" vertex="1">
          <mxGeometry x="39" y="280" width="75" height="75" as="geometry" />
        </mxCell>
        <mxCell id="wImkBHEnD4N6jClxrFpg-67" value="topic/gateway" style="shape=image;verticalLabelPosition=bottom;labelBackgroundColor=none;verticalAlign=top;aspect=fixed;imageAspect=0;image=data:image/png,iVBORw0KGgoAAAANSUhEUgAAAEsAAABLCAYAAAA4TnrqAAAAAXNSR0IArs4c6QAAAARnQU1BAACxjwv8YQUAAAAJcEhZcwAAFxEAABcRAcom8z8AAAgCSURBVHhe7VxrbFRFGF1841sMQZIi7J27pZgImgolsPfe3S2vqPxR1AQToxIxREyEBiOiWaR7721pEVB5qDEqYmLUFIj4CvwwgaTqDwkxBAMxkYeg/SOJUeQh6zmzc0tb2sIo3e7WOcnkdma++ebMmZnvzm52GjMwMBjQmNJg3eAF9rvp5fZeNxB9lqR/397A/lTX5QfXFw9OfbUqn1lRmc8092GCf/bD/lTX5QenPj6HA/FCO48V1jGdiQapndCO7Tv5g3/WsT/VdfnByVmPchAdxUo3JfKeL1qcejEJKyGd8q3aC020Zzu2z9BPV7HQn+q6/NBRrFRjQgqVwt/p5Yk/nUDMV2ZaYDu2l37oD34HlFgYXN7NiT1Ie2tfrsynGhL52pXcTqJRmV4QaM92sj38MLijbA/9Dxix5MBy9iYva1dgoN9NWTUaA7bzfGJrrYPpoEKLHjGIdh3bYWXt8hrsCs+3W+h/gIkltrOsxo8PS4WitX3gqyFYKDZWz62+XDbqApaznnZnhRKtGfhhPf2WpVheLnGHkxPTVbazWL7YpopjXnbkjW5ob6cAWB1SMCe0t1Rnh1+tTCSYx8rZ0tEOwm1ne2XC48m27sQiD/JR2dKBs0SMwCDWppsTf4H8r1526LWyvAexCAqBldIiVwwCtBQEAk5cUTGE9dOyFUOY71iP56augnYnFvsnD8kHvPAGHSGN+xtOLn4/Bn2Eg2GgnfZaVd7xrScLdT2LRcgtxpN3JAhjWCB2JH1rMux3qNhUWFGw626rdicW+ycP8pG+G+0j5Ckb9BeS9dZjfH3zoEhifFOlmyv3YEtJYucTKwLOTWuiGCbPYTh0ymOBilFeKNYo03PQrVgQhjxYLt+U5Ad/5CsbFRvpMDEOM3YiEgt/H8O2WTC2btg1yuSCxSIcXzTIYwHOTVxNfDLPcmXSLboTiyAPxLsF8HMsEgvin0yHo8Ypk+LBUduHMwdCB5LLRLWqaoeOWATebEtoO/WV0bINttMLqqpH9CRWBPLCRB6ItiS2+XuqqjjwsrHLMGv7OGMk6S6z7lNVnaArFoFJmDN1deVWPlVRrzifWERyWXwW68mXvMlfVfU9Zqy2r8QMHZJbkGL5ok5VdQID7fT1Y/IzXh/D0/o3qviign7pn/1EL5auwDGliTzJF7wP4+hxlarqe1AsBOGDKg5wG55GEF46IWtfr0wkkkGiJtWUWJtZkViLIP60Kr6ooF/6Zz/Jl0bVqGIJCGlDqA1yRSEOki9595tY/NQffdaDcPtxeHzRDeO3K9Oig0Jg4lLgtA4vit+mrJTnN8mzJMSSSxwBlPnaVZxFcQLpa9e3miDerGQQr5zUOPo61fyiIunbQ7F67sQKewIr6S2cx/bLYwx4RJzIr1TE+huibIY4bTwTydc0SJJglEecOIX0I9JXiG8bvZzl4/PdU04gHnID626nPuHibDSBH0+SfnxslGQ+GFUzuV6kvCB+r1NvP4z+nkn5dhPE+Rj+WiHOUR41GOQ79s88BYMNv3pei3an1Xdg/SNWRMzzK6v4kQIDWIolv1uSx7asxRaQNpxdPOUAZPnZxDrGPbylzmBQp7A6TsDPST4LefsM6zPNha3eKfEtGPlXk8My2P+ObfglVtzj+Pg0GG/rRBrnNtr2u1huUDleVcViH8Yuxcq5K9Uo6rB6PoLdPgj4B8lOwUzLAamBysFikJ0SfMrUtRwpasP2kTCMR1hdPBB/6wb2m+lQPMLArthIuEF8fGmK1QUTF1QMToYJS34LgLiC1VKPUzlii9iK1IqB7ZZnHx+D8MXPGPAvKGuTT+Z9+wDSD2i3C88dKGuR28q3n0N+ttMgJmHwt8TyPX8nVjZinRfZ2CX8JiEZ3noTgzW/p3JyVcP5ZJ7lFFxZ/ysMHLGKACOWBoxYGjBiacCIpQEjlgaMWBowYmnAiKUBI5YGjFgaMGJpwIilASOWBoxYGjBiacCIpQEjlgaMWBowYmnAiKUBI5YGjFgaMGJpwIilASOWBoxYGjBiacCIpQEjlgaMWBowYmnAiKUBI5YG+l0s1xeHIrGSYdU5l5xKCclQVEdikXdRxXoge9sV7WI1lcnKwqRGYnGyVVURkJe34Vujn2a7oXhH1ZQkPPCLfhpO3r39srlPkPTteby/x4veJJJqsN/mr4tVdUmAfMiL/KIL6Z4fn6eqiwfe2XN88RkvUsp7zIULRQdToaiL/o1Af4H9Y7XXkQ95kR95Ojnr86LeNewI+S+fwsK/EmBMYPzi7QeQO+oG9htOLn5PbVB1szLvU7Af9sd+U4F9lDzIh7zkiiLPEviXUYO8nLUIpNqkaCRI0VYV/ka8OIw48QnS827Onplebov/ekOM7enHDe2Z0i/8sx/2x2sqEQc1iW1eaC1Cs+LGqd7ghSNHgXAjYsNP0f0aEpYXlJCPBoGZPy6vmAT2Ti+QN7vWO4Hlu771rJMT87F95vLKr3wyz3LWw65gb+9U7Y9H4sgXDfphnv1mkCcPyQe8FMXSA6+PpEN7Nsh+gBk/KrcBB8RBINBmmjiwwpuJ5VGdFLinhPp2W+TZXvrhG07VsR/2J/tF/+ShKJUHSNgJrQxWxGKkFgzie6wQXm8rrDgKgK3Sq2CRULCjPYVie/qhP/r1GsRi9lN2AvUGHmYx8xVIE1PyYqZYiI8fcos5gXgf22sz3rCf4vmFem5mOQTBFpR2C3mhk+3ph/6UawMDg/8DYrF/ACmP2UbQ+xxYAAAAAElFTkSuQmCC;fontColor=#FFFFFF;fontSize=14;" parent="1" vertex="1">
          <mxGeometry x="161" y="280" width="75" height="75" as="geometry" />
        </mxCell>
        <mxCell id="wImkBHEnD4N6jClxrFpg-68" value="&lt;ARN&gt;/outdoor/mailbox" style="shape=image;verticalLabelPosition=bottom;labelBackgroundColor=none;verticalAlign=top;aspect=fixed;imageAspect=0;image=data:image/png,iVBORw0KGgoAAAANSUhEUgAAAEsAAABLCAYAAAA4TnrqAAAAAXNSR0IArs4c6QAAAARnQU1BAACxjwv8YQUAAAAJcEhZcwAAFxEAABcRAcom8z8AAAgCSURBVHhe7VxrbFRFGF1841sMQZIi7J27pZgImgolsPfe3S2vqPxR1AQToxIxREyEBiOiWaR7721pEVB5qDEqYmLUFIj4CvwwgaTqDwkxBAMxkYeg/SOJUeQh6zmzc0tb2sIo3e7WOcnkdma++ebMmZnvzm52GjMwMBjQmNJg3eAF9rvp5fZeNxB9lqR/397A/lTX5QfXFw9OfbUqn1lRmc8092GCf/bD/lTX5QenPj6HA/FCO48V1jGdiQapndCO7Tv5g3/WsT/VdfnByVmPchAdxUo3JfKeL1qcejEJKyGd8q3aC020Zzu2z9BPV7HQn+q6/NBRrFRjQgqVwt/p5Yk/nUDMV2ZaYDu2l37oD34HlFgYXN7NiT1Ie2tfrsynGhL52pXcTqJRmV4QaM92sj38MLijbA/9Dxix5MBy9iYva1dgoN9NWTUaA7bzfGJrrYPpoEKLHjGIdh3bYWXt8hrsCs+3W+h/gIkltrOsxo8PS4WitX3gqyFYKDZWz62+XDbqApaznnZnhRKtGfhhPf2WpVheLnGHkxPTVbazWL7YpopjXnbkjW5ob6cAWB1SMCe0t1Rnh1+tTCSYx8rZ0tEOwm1ne2XC48m27sQiD/JR2dKBs0SMwCDWppsTf4H8r1526LWyvAexCAqBldIiVwwCtBQEAk5cUTGE9dOyFUOY71iP56augnYnFvsnD8kHvPAGHSGN+xtOLn4/Bn2Eg2GgnfZaVd7xrScLdT2LRcgtxpN3JAhjWCB2JH1rMux3qNhUWFGw626rdicW+ycP8pG+G+0j5Ckb9BeS9dZjfH3zoEhifFOlmyv3YEtJYucTKwLOTWuiGCbPYTh0ymOBilFeKNYo03PQrVgQhjxYLt+U5Ad/5CsbFRvpMDEOM3YiEgt/H8O2WTC2btg1yuSCxSIcXzTIYwHOTVxNfDLPcmXSLboTiyAPxLsF8HMsEgvin0yHo8Ypk+LBUduHMwdCB5LLRLWqaoeOWATebEtoO/WV0bINttMLqqpH9CRWBPLCRB6ItiS2+XuqqjjwsrHLMGv7OGMk6S6z7lNVnaArFoFJmDN1deVWPlVRrzifWERyWXwW68mXvMlfVfU9Zqy2r8QMHZJbkGL5ok5VdQID7fT1Y/IzXh/D0/o3qviign7pn/1EL5auwDGliTzJF7wP4+hxlarqe1AsBOGDKg5wG55GEF46IWtfr0wkkkGiJtWUWJtZkViLIP60Kr6ooF/6Zz/Jl0bVqGIJCGlDqA1yRSEOki9595tY/NQffdaDcPtxeHzRDeO3K9Oig0Jg4lLgtA4vit+mrJTnN8mzJMSSSxwBlPnaVZxFcQLpa9e3miDerGQQr5zUOPo61fyiIunbQ7F67sQKewIr6S2cx/bLYwx4RJzIr1TE+huibIY4bTwTydc0SJJglEecOIX0I9JXiG8bvZzl4/PdU04gHnID626nPuHibDSBH0+SfnxslGQ+GFUzuV6kvCB+r1NvP4z+nkn5dhPE+Rj+WiHOUR41GOQ79s88BYMNv3pei3an1Xdg/SNWRMzzK6v4kQIDWIolv1uSx7asxRaQNpxdPOUAZPnZxDrGPbylzmBQp7A6TsDPST4LefsM6zPNha3eKfEtGPlXk8My2P+ObfglVtzj+Pg0GG/rRBrnNtr2u1huUDleVcViH8Yuxcq5K9Uo6rB6PoLdPgj4B8lOwUzLAamBysFikJ0SfMrUtRwpasP2kTCMR1hdPBB/6wb2m+lQPMLArthIuEF8fGmK1QUTF1QMToYJS34LgLiC1VKPUzlii9iK1IqB7ZZnHx+D8MXPGPAvKGuTT+Z9+wDSD2i3C88dKGuR28q3n0N+ttMgJmHwt8TyPX8nVjZinRfZ2CX8JiEZ3noTgzW/p3JyVcP5ZJ7lFFxZ/ysMHLGKACOWBoxYGjBiacCIpQEjlgaMWBowYmnAiKUBI5YGjFgaMGJpwIilASOWBoxYGjBiacCIpQEjlgaMWBowYmnAiKUBI5YGjFgaMGJpwIilASOWBoxYGjBiacCIpQEjlgaMWBowYmnAiKUBI5YG+l0s1xeHIrGSYdU5l5xKCclQVEdikXdRxXoge9sV7WI1lcnKwqRGYnGyVVURkJe34Vujn2a7oXhH1ZQkPPCLfhpO3r39srlPkPTteby/x4veJJJqsN/mr4tVdUmAfMiL/KIL6Z4fn6eqiwfe2XN88RkvUsp7zIULRQdToaiL/o1Af4H9Y7XXkQ95kR95Ojnr86LeNewI+S+fwsK/EmBMYPzi7QeQO+oG9htOLn5PbVB1szLvU7Af9sd+U4F9lDzIh7zkiiLPEviXUYO8nLUIpNqkaCRI0VYV/ka8OIw48QnS827Onplebov/ekOM7enHDe2Z0i/8sx/2x2sqEQc1iW1eaC1Cs+LGqd7ghSNHgXAjYsNP0f0aEpYXlJCPBoGZPy6vmAT2Ti+QN7vWO4Hlu771rJMT87F95vLKr3wyz3LWw65gb+9U7Y9H4sgXDfphnv1mkCcPyQe8FMXSA6+PpEN7Nsh+gBk/KrcBB8RBINBmmjiwwpuJ5VGdFLinhPp2W+TZXvrhG07VsR/2J/tF/+ShKJUHSNgJrQxWxGKkFgzie6wQXm8rrDgKgK3Sq2CRULCjPYVie/qhP/r1GsRi9lN2AvUGHmYx8xVIE1PyYqZYiI8fcos5gXgf22sz3rCf4vmFem5mOQTBFpR2C3mhk+3ph/6UawMDg/8DYrF/ACmP2UbQ+xxYAAAAAElFTkSuQmCC;fontSize=14;fontColor=#FFFFFF;" parent="1" vertex="1">
          <mxGeometry x="-85.5" y="290.75" width="53.5" height="53.5" as="geometry" />
        </mxCell>
        <mxCell id="wImkBHEnD4N6jClxrFpg-70" value="" style="edgeStyle=orthogonalEdgeStyle;html=1;endArrow=block;elbow=vertical;startArrow=none;startFill=0;endFill=1;rounded=0;fontColor=#FFFFFF;strokeColor=#FFFFFF;strokeWidth=3;exitX=0;exitY=0.5;exitDx=0;exitDy=0;entryX=1;entryY=0.5;entryDx=0;entryDy=0;" parent="1" source="wImkBHEnD4N6jClxrFpg-66" target="wImkBHEnD4N6jClxrFpg-68" edge="1">
          <mxGeometry x="-0.0114" y="18" width="100" relative="1" as="geometry">
            <mxPoint x="53" y="277.48275862068965" as="sourcePoint" />
            <mxPoint x="3" y="196.5" as="targetPoint" />
            <mxPoint as="offset" />
          </mxGeometry>
        </mxCell>
        <mxCell id="wImkBHEnD4N6jClxrFpg-73" value="" style="edgeStyle=orthogonalEdgeStyle;html=1;endArrow=block;elbow=vertical;startArrow=none;startFill=0;endFill=1;rounded=0;fontColor=#FFFFFF;strokeColor=#FFFFFF;strokeWidth=3;entryX=1;entryY=0.5;entryDx=0;entryDy=0;" parent="1" source="wImkBHEnD4N6jClxrFpg-67" target="wImkBHEnD4N6jClxrFpg-66" edge="1">
          <mxGeometry x="-0.0114" y="18" width="100" relative="1" as="geometry">
            <mxPoint x="159" y="266" as="sourcePoint" />
            <mxPoint x="124" y="205.5" as="targetPoint" />
            <mxPoint as="offset" />
          </mxGeometry>
        </mxCell>
        <mxCell id="wImkBHEnD4N6jClxrFpg-78" value="" style="shape=image;verticalLabelPosition=bottom;labelBackgroundColor=default;verticalAlign=top;aspect=fixed;imageAspect=0;image=data:image/png,iVBORw0KGgoAAAANSUhEUgAAAEsAAABLCAMAAAAPkIrYAAAAAXNSR0IArs4c6QAAAARnQU1BAACxjwv8YQUAAAAzUExURQAAAHCvQGivQGqvQGyrPGysPWqtPWutPWytPm2vPmuvP2yvP2yuPWyuPmuuPmyuPmyuPqNasmsAAAAQdFJOUwAQIDBAUGBwgI+fr7/P3+8jGoKKAAAACXBIWXMAABcRAAAXEQHKJvM/AAABzklEQVRYR+2Y3XKDIBBGWVBEAdn3f9p+i1iNmTSgmV60nouwEDzyZyar+k/QEOLcTvSOimGFxsSnGYtkgXxpPkfcDY0CGpKzXTO9dbPIigg4VMfjtKsZcbUrsdJYq8c5tzFhUrrEA/N8elSAMM2hxFj4K8PKs/QljMx9Cc/Rb6uPIX7S1ZXwHLerjdvVxu1q43a1cbvauF1t3K42blcbxvuphJddO37B5UID6x/xFy6kAPW8WfsPu7ytArnCe9d3yvQz78/Xx11mScCWgnorHbXJaFpKU+kiThKa3LeTPBo5rKSbIEAhpGoXW4RO+uoUjeo4KNI6JK210npkg7LWNQdJEGf0dWzQ6lim6/Nw11qta0DvPk3o63N/tODznKufB+XdiL4yQnHJT8JJl02ajbjSkrtecRHHoPYueYxPulDa7Ir5evPzeiHflo0/srqoo+wa83Uu3/elK+CiEu5ZXYK4iAPhvOaZvnQNcnafObpwTjmJD7x04XDnzTkgrvV5JDmmStk4L0GpoxT1zpXfyDy/7ciuIxP75/cPe5esPqfR9hu4L1y+1Ha4+bkRD/vmIpE9gO/gqmdzySI+csWF3QxxB3Z+KGEV67uhv41SX2DgRVYEEO+QAAAAAElFTkSuQmCC;" parent="1" vertex="1">
          <mxGeometry x="206" y="223" width="39.5" height="39.5" as="geometry" />
        </mxCell>
        <mxCell id="wImkBHEnD4N6jClxrFpg-79" value="" style="edgeStyle=orthogonalEdgeStyle;html=1;endArrow=block;elbow=vertical;startArrow=none;startFill=0;endFill=1;rounded=0;fontColor=#FFFFFF;strokeColor=#FFFFFF;strokeWidth=3;exitX=1;exitY=0.5;exitDx=0;exitDy=0;" parent="1" source="wImkBHEnD4N6jClxrFpg-87" edge="1">
          <mxGeometry x="-0.0114" y="18" width="100" relative="1" as="geometry">
            <mxPoint x="-195.6199999999999" y="318.5050000000001" as="sourcePoint" />
            <mxPoint x="-85.5" y="318.5999999999999" as="targetPoint" />
            <mxPoint as="offset" />
          </mxGeometry>
        </mxCell>
        <mxCell id="wImkBHEnD4N6jClxrFpg-81" value="&lt;font style=&quot;font-size: 12px;&quot;&gt;PUB&lt;/font&gt;" style="text;html=1;strokeColor=none;fillColor=none;align=center;verticalAlign=middle;whiteSpace=wrap;rounded=0;fontSize=12;fontColor=#FFFFFF;" parent="1" vertex="1">
          <mxGeometry x="-29" y="296" width="74" height="20" as="geometry" />
        </mxCell>
        <mxCell id="wImkBHEnD4N6jClxrFpg-87" value="Internet" style="shape=image;verticalLabelPosition=bottom;labelBackgroundColor=none;verticalAlign=top;aspect=fixed;imageAspect=0;image=data:image/png,iVBORw0KGgoAAAANSUhEUgAAAE0AAABNCAMAAADU1xmCAAAAAXNSR0IArs4c6QAAAARnQU1BAACxjwv8YQUAAAKFUExURQAAAP///////////////////////////////////////////////////////////////////////////////////////////////////////////////////////////////////////////////////////////////////////////////////////////////////////////////////////////////////////////////////////////////////////////////////////////////////////////////////////////////////////////////////////////////////////////////////////////////////////////////////////////////////////////////////////////////////////////////////////////////////////////////////////////////////////////////////////////////////////////////////////////////////////////////////////////////////////////////////////////////////////////////////////////////////////////////////////////////////////////////////////////////////////////////////////////////////////////////////////////////////////////////////////////////////////////////////////50ERS8AAADWdFJOUwABAgMEBQYHCAkKCwwNDg8QERITFBUWFxgZGhscHR4fICEiJCUmKCkqKy0uLzAxMzQ2Nzg5Ojw9Pj9AQURGR0hJSkxNTlJUVVhZW11fYmNkZmdpamtsbW5vcHFyc3R1dnd4eXp7fH1+f4CBgoWGh4iJjI2Oj5CRkpOVlpeZmpucnZ6foKGipKWnqKmqq62ur7CxsrO1tre4ubq7vL2+v8DBwsPExcbIycvMzc7P0NHU1dbX2drb3N3e3+Dh4uPk5ejp6uzt7u/w8fLz9PX29/j5+vv8/f773hl/AAAACXBIWXMAABcRAAAXEQHKJvM/AAAEpElEQVRYR+2X+1tURRjHh5aVJUHBC+EC2gWM5KIJltlF0m6aQYJI4a0LSWVSWKgkomElKxnZFbUwQCssS0RLybJIDChFlt3v39M7c96znHP2HB+wp1969sPzsN/3nTNfZmbPzLyICBEiRPiP8KTk5OdlTruBw39Dxuqm7n4/cLWvs/6xJE5eJ4ubL8PAbzvmcMN1kPsxu/zVe3FYU5drpnHjeHn6b9n/5NblOWlJybcuKnv/ooy77+XmcTGhXvb9pGACx0TamtOUGn6Sw3Hg2k8dzz7CkU7CJjnjdRyNnQY5MC8HBhb+RA0lHIyVcurTaJjkKLO+A4L3czA2sq8Cn0ZzYMHbDVxI5mAsRLXSmk3nIIw7/gTelSIm9ZYElbk2D9E8H2Rtw+PUfLd44J0z/YO/t5RM4qwjXwAHWNryEdD+Nlkqugo468AcPwJ5rG3J4p3R3yt/j6zgtD3PAsdYOtAkXfYXpCTlvkobxn8Pp21pATawdOA+MuMtMf9X2n2xmrYj/jyC+awdcNWdWslSLKRpF7G2Id2PP6awdiSGP4ldQEcU63AWACdcrBWGnnYsCOLKzazDyQPaWEqid55dz9IeTw+wlHUYt70OfD068uhGWvEXONBxrygrHT02DwM/brZd6fTdg9S7JzQ5l0++DKjgkInvA3JZC7FXPdK2LGzxii+pli16gxqZZCMnNOLOIZDFmhbuh4B65nAOJ5hqmTz54nwOR80sdmY34Z5X3hqkZwaWc0LxCmXOF3o4omlKs/ZB/HKcPo1rZ3GT5O+jZ4wv3sMUHkrlgIiWa7b99iF0eY+QquQ0YeNG3WnXBkJ3UOLPQOuNHBDqC2gQGUH0iISjpEcna+smsi8Ap/UDijZ7r2Fkic1ksIeeCeBcvJjaQdFrbm6zdxOLaJPxFRRDJ7Rxs8+kv9RA320WucWR+THgS313O7iJWhqctux3AZdMx316j09+sJuY+m3HZBlLnNwyrgDa8bQG+EyJEF71DutuYkrIzNFN0Ho8p0QdUKWEhZCbAUc32pXqApLnaakSFsbl9hRwUAkqFZ5QwsK13Sw1YhFwRAl6u4qVsGB227ZL/g65vfy5+QIs1sdWA1QrYcHo5t4GvEmfutszdB+ZbvFKYJ8ShcBXSlgwusUepHe4jk4kzW0DRadMpQ9t7M1KzB7GyFylzJhmGvshGewU7h4EMpXZN6ZX1EMV1KOapBu+WVMmzOum7Grd3fCnrSLVaS6sF9OplKJJWX0UatKI2U14DtBjvjMYkBVep6VWorOhiaUsL4as1WSYm4iRowvSD03zJs4xVZQL3Q9pdG0HK633ttVNeD6gTpJOs1ncG5Sr5YCYJ6uU71eaC9QwNxElJ0sjM63ZzFVdlGs3nI8i64R8rO9QbcXateuI9SUT2W1WWalO2Qy1dp3TXUWrtUz5S/VtA7Jni7lGmFRt+ucFQzPYbQknJEuE5z0cTRYpXHjp9FWYSgTJ7Co5Yp1hr8ilcy9eLOWEhC72qDsnCpE6wgnJyPFK2/LBM7do0463FA1bJwvvlpqNMSLbt1fHl80PJtY1apk9259flhk2rggRIkT4vyHEP3QbqYVI46A1AAAAAElFTkSuQmCC;fontColor=#FFFFFF;fontSize=15;spacing=-11;" parent="1" vertex="1">
          <mxGeometry x="-246.37" y="289.63" width="57.75" height="57.75" as="geometry" />
        </mxCell>
        <mxCell id="wImkBHEnD4N6jClxrFpg-89" value="&lt;font style=&quot;font-size: 12px;&quot;&gt;SUB&lt;/font&gt;" style="text;html=1;strokeColor=none;fillColor=none;align=center;verticalAlign=middle;whiteSpace=wrap;rounded=0;fontSize=12;fontColor=#FFFFFF;" parent="1" vertex="1">
          <mxGeometry x="-326" y="294.62" width="74" height="20" as="geometry" />
        </mxCell>
        <mxCell id="wImkBHEnD4N6jClxrFpg-90" value="" style="rounded=0;whiteSpace=wrap;html=1;labelBackgroundColor=none;fontSize=14;fillColor=none;strokeColor=#8FA7C4;fontColor=#ffffff;dashed=1;strokeWidth=1.5;" parent="1" vertex="1">
          <mxGeometry x="-434" y="206" width="127" height="199" as="geometry" />
        </mxCell>
        <mxCell id="wImkBHEnD4N6jClxrFpg-92" value="&lt;ARN&gt;/outdoor/mailbox" style="shape=image;verticalLabelPosition=bottom;labelBackgroundColor=none;verticalAlign=top;aspect=fixed;imageAspect=0;image=data:image/png,iVBORw0KGgoAAAANSUhEUgAAAEsAAABLCAYAAAA4TnrqAAAAAXNSR0IArs4c6QAAAARnQU1BAACxjwv8YQUAAAAJcEhZcwAAFxEAABcRAcom8z8AAAgCSURBVHhe7VxrbFRFGF1841sMQZIi7J27pZgImgolsPfe3S2vqPxR1AQToxIxREyEBiOiWaR7721pEVB5qDEqYmLUFIj4CvwwgaTqDwkxBAMxkYeg/SOJUeQh6zmzc0tb2sIo3e7WOcnkdma++ebMmZnvzm52GjMwMBjQmNJg3eAF9rvp5fZeNxB9lqR/397A/lTX5QfXFw9OfbUqn1lRmc8092GCf/bD/lTX5QenPj6HA/FCO48V1jGdiQapndCO7Tv5g3/WsT/VdfnByVmPchAdxUo3JfKeL1qcejEJKyGd8q3aC020Zzu2z9BPV7HQn+q6/NBRrFRjQgqVwt/p5Yk/nUDMV2ZaYDu2l37oD34HlFgYXN7NiT1Ie2tfrsynGhL52pXcTqJRmV4QaM92sj38MLijbA/9Dxix5MBy9iYva1dgoN9NWTUaA7bzfGJrrYPpoEKLHjGIdh3bYWXt8hrsCs+3W+h/gIkltrOsxo8PS4WitX3gqyFYKDZWz62+XDbqApaznnZnhRKtGfhhPf2WpVheLnGHkxPTVbazWL7YpopjXnbkjW5ob6cAWB1SMCe0t1Rnh1+tTCSYx8rZ0tEOwm1ne2XC48m27sQiD/JR2dKBs0SMwCDWppsTf4H8r1526LWyvAexCAqBldIiVwwCtBQEAk5cUTGE9dOyFUOY71iP56augnYnFvsnD8kHvPAGHSGN+xtOLn4/Bn2Eg2GgnfZaVd7xrScLdT2LRcgtxpN3JAhjWCB2JH1rMux3qNhUWFGw626rdicW+ycP8pG+G+0j5Ckb9BeS9dZjfH3zoEhifFOlmyv3YEtJYucTKwLOTWuiGCbPYTh0ymOBilFeKNYo03PQrVgQhjxYLt+U5Ad/5CsbFRvpMDEOM3YiEgt/H8O2WTC2btg1yuSCxSIcXzTIYwHOTVxNfDLPcmXSLboTiyAPxLsF8HMsEgvin0yHo8Ypk+LBUduHMwdCB5LLRLWqaoeOWATebEtoO/WV0bINttMLqqpH9CRWBPLCRB6ItiS2+XuqqjjwsrHLMGv7OGMk6S6z7lNVnaArFoFJmDN1deVWPlVRrzifWERyWXwW68mXvMlfVfU9Zqy2r8QMHZJbkGL5ok5VdQID7fT1Y/IzXh/D0/o3qviign7pn/1EL5auwDGliTzJF7wP4+hxlarqe1AsBOGDKg5wG55GEF46IWtfr0wkkkGiJtWUWJtZkViLIP60Kr6ooF/6Zz/Jl0bVqGIJCGlDqA1yRSEOki9595tY/NQffdaDcPtxeHzRDeO3K9Oig0Jg4lLgtA4vit+mrJTnN8mzJMSSSxwBlPnaVZxFcQLpa9e3miDerGQQr5zUOPo61fyiIunbQ7F67sQKewIr6S2cx/bLYwx4RJzIr1TE+huibIY4bTwTydc0SJJglEecOIX0I9JXiG8bvZzl4/PdU04gHnID626nPuHibDSBH0+SfnxslGQ+GFUzuV6kvCB+r1NvP4z+nkn5dhPE+Rj+WiHOUR41GOQ79s88BYMNv3pei3an1Xdg/SNWRMzzK6v4kQIDWIolv1uSx7asxRaQNpxdPOUAZPnZxDrGPbylzmBQp7A6TsDPST4LefsM6zPNha3eKfEtGPlXk8My2P+ObfglVtzj+Pg0GG/rRBrnNtr2u1huUDleVcViH8Yuxcq5K9Uo6rB6PoLdPgj4B8lOwUzLAamBysFikJ0SfMrUtRwpasP2kTCMR1hdPBB/6wb2m+lQPMLArthIuEF8fGmK1QUTF1QMToYJS34LgLiC1VKPUzlii9iK1IqB7ZZnHx+D8MXPGPAvKGuTT+Z9+wDSD2i3C88dKGuR28q3n0N+ttMgJmHwt8TyPX8nVjZinRfZ2CX8JiEZ3noTgzW/p3JyVcP5ZJ7lFFxZ/ysMHLGKACOWBoxYGjBiacCIpQEjlgaMWBowYmnAiKUBI5YGjFgaMGJpwIilASOWBoxYGjBiacCIpQEjlgaMWBowYmnAiKUBI5YGjFgaMGJpwIilASOWBoxYGjBiacCIpQEjlgaMWBowYmnAiKUBI5YG+l0s1xeHIrGSYdU5l5xKCclQVEdikXdRxXoge9sV7WI1lcnKwqRGYnGyVVURkJe34Vujn2a7oXhH1ZQkPPCLfhpO3r39srlPkPTteby/x4veJJJqsN/mr4tVdUmAfMiL/KIL6Z4fn6eqiwfe2XN88RkvUsp7zIULRQdToaiL/o1Af4H9Y7XXkQ95kR95Ojnr86LeNewI+S+fwsK/EmBMYPzi7QeQO+oG9htOLn5PbVB1szLvU7Af9sd+U4F9lDzIh7zkiiLPEviXUYO8nLUIpNqkaCRI0VYV/ka8OIw48QnS827Onplebov/ekOM7enHDe2Z0i/8sx/2x2sqEQc1iW1eaC1Cs+LGqd7ghSNHgXAjYsNP0f0aEpYXlJCPBoGZPy6vmAT2Ti+QN7vWO4Hlu771rJMT87F95vLKr3wyz3LWw65gb+9U7Y9H4sgXDfphnv1mkCcPyQe8FMXSA6+PpEN7Nsh+gBk/KrcBB8RBINBmmjiwwpuJ5VGdFLinhPp2W+TZXvrhG07VsR/2J/tF/+ShKJUHSNgJrQxWxGKkFgzie6wQXm8rrDgKgK3Sq2CRULCjPYVie/qhP/r1GsRi9lN2AvUGHmYx8xVIE1PyYqZYiI8fcos5gXgf22sz3rCf4vmFem5mOQTBFpR2C3mhk+3ph/6UawMDg/8DYrF/ACmP2UbQ+xxYAAAAAElFTkSuQmCC;fontSize=14;fontColor=#FFFFFF;" parent="1" vertex="1">
          <mxGeometry x="-565" y="289.63" width="53.5" height="53.5" as="geometry" />
        </mxCell>
        <mxCell id="wImkBHEnD4N6jClxrFpg-97" value="" style="shape=image;verticalLabelPosition=bottom;labelBackgroundColor=default;verticalAlign=top;aspect=fixed;imageAspect=0;image=data:image/png,iVBORw0KGgoAAAANSUhEUgAAAD4AAAA/CAMAAACPQ4vTAAAAAXNSR0IArs4c6QAAAARnQU1BAACxjwv8YQUAAAA2UExURf////Hy88jLz3Z9hkxWYiMvPlpjbq2xt+Pl52hwep+kq5GXn7q+wzE8Sj5JVoOKktbY2wAAAA0j5b8AAAASdFJOU///////////////////////AOK/vxIAAAAJcEhZcwAAFxEAABcRAcom8z8AAAHKSURBVFhH7ZTRkuQgCEUFQ2yVmPz/184F7d7aWe2Zfdqp2pwHSTQg4DXh5ubm5p9Aw855v8qxicim+C5n/7Tk7Cs1Y5LbIdJOn5jA8HVSIBH3QziGuUQ0FBG4i6z8eU82wiWEXQ48w00KLDwJEd2xII93IAkOSeQRMDbPImPE9NU/+IKRPVKJgjCYaVJtpvb1JaQpcfdsEm14NCGrAamgqFZhV1D01gDfWLBhCyeKL7DAjkU268+UKrIXLTDWLuyoaJai7DzS5moRFiUgaeQLfHfslSqOC7N4fDWNNy9kAir0xGBt9ygQkZesPfcOVk0JE3pelLu7QiQbbMTh2YEPwepqd2tN1GLKtMMKsFaMadH2K5JrSueQ4wTTGFrLKru9ovfmhuI9976K7trLnFJPRZLcE+XL7YNH47TGWL+nvJ8Jseri4L7mQjvBrPdpKeZfaGHWOG0+be0bAcA1tP2ZExdyPK5h0pVq8W8Q+ycuIVy5GI+h3z8wvSNCmama+MRtOwo1uxELLg+AEGfiZxB6cIlwhfNOQeeVP+ERwGm4QM9fkBzRFLvK/AUV3+p3jv1Nzp+hZIW+2M9xi/4GuhQKfd63m5ub/5oQPgAYig5uAflHUQAAAABJRU5ErkJggg==;" parent="1" vertex="1">
          <mxGeometry x="-169" y="169" width="62" height="63" as="geometry" />
        </mxCell>
        <mxCell id="wImkBHEnD4N6jClxrFpg-98" value="&lt;font style=&quot;font-size: 15px&quot;&gt;My Account&lt;/font&gt;" style="text;html=1;strokeColor=none;fillColor=none;align=center;verticalAlign=middle;whiteSpace=wrap;rounded=0;fontSize=14;fontColor=#FFFFFF;" parent="1" vertex="1">
          <mxGeometry x="-111" y="171" width="102" height="20" as="geometry" />
        </mxCell>
        <mxCell id="wImkBHEnD4N6jClxrFpg-99" value="&lt;font style=&quot;font-size: 15px&quot;&gt;On-premises Home Assistant&amp;nbsp;&lt;/font&gt;" style="text;html=1;strokeColor=none;fillColor=none;align=center;verticalAlign=middle;whiteSpace=wrap;rounded=0;fontSize=14;fontColor=#FFFFFF;" parent="1" vertex="1">
          <mxGeometry x="-674" y="171" width="221" height="20" as="geometry" />
        </mxCell>
        <mxCell id="wImkBHEnD4N6jClxrFpg-101" value="" style="edgeStyle=orthogonalEdgeStyle;html=1;endArrow=block;elbow=vertical;startArrow=none;startFill=0;endFill=1;rounded=0;fontColor=#FFFFFF;strokeColor=#FFFFFF;strokeWidth=3;entryX=0;entryY=0.5;entryDx=0;entryDy=0;" parent="1" target="wImkBHEnD4N6jClxrFpg-87" edge="1">
          <mxGeometry x="-0.0114" y="18" width="100" relative="1" as="geometry">
            <mxPoint x="-304" y="319" as="sourcePoint" />
            <mxPoint x="-70" y="550.5" as="targetPoint" />
            <mxPoint as="offset" />
            <Array as="points">
              <mxPoint x="-282" y="318" />
            </Array>
          </mxGeometry>
        </mxCell>
        <mxCell id="wImkBHEnD4N6jClxrFpg-102" value="&lt;font style=&quot;font-size: 12px;&quot;&gt;PUB&lt;/font&gt;" style="text;html=1;strokeColor=none;fillColor=none;align=center;verticalAlign=middle;whiteSpace=wrap;rounded=0;fontSize=12;fontColor=#FFFFFF;" parent="1" vertex="1">
          <mxGeometry x="-489" y="295.62" width="74" height="20" as="geometry" />
        </mxCell>
        <mxCell id="wImkBHEnD4N6jClxrFpg-104" value="" style="shape=image;verticalLabelPosition=bottom;labelBackgroundColor=default;verticalAlign=top;aspect=fixed;imageAspect=0;image=data:image/png,iVBORw0KGgoAAAANSUhEUgAAAD8AAAA+CAMAAACr3TNIAAAAAXNSR0IArs4c6QAAAARnQU1BAACxjwv8YQUAAAA2UExURY+nxIGYs0VUaGByiWZ6kiMvPjA+TzdFV3SJoz5NYIifvFlrgUtccG2BmnuQq1JjeSo2RgAAANWFZWQAAAASdFJOU///////////////////////AOK/vxIAAAAJcEhZcwAAFxEAABcRAcom8z8AAAEJSURBVFhH7ZXrDoMgDIW52HCZQ9//aUehGt1YpLDpHz8SucTDsS1EcXPzB7zaomm1Hg1g1gaGVusZwNIoojr1plPvWvUeHji5Wt8cf7f/+MRJs564rH7Cenx25H/Cyan59wHRe38bYkuxHDJBZutPS1UbKBiQVHg/BOxCWlEgcXLECDR4R5+o1+nzYzLSKRByinFU6ifUg0pjyp8IMPD8c91WvWXo9/55H7a/GdO46fvn+JD0qqQjgz3HvwQn/hIcf/rjeRPjjlgXzwEn/gvrn/2X+jXW3y3+OX7J9S/B8S9xpv+av4vyP3feP0H3zm96jn+JSn3//TNfqNNb5RDz2RQl4+bmNwjxAo6BDI4Cp2mCAAAAAElFTkSuQmCC;" parent="1" vertex="1">
          <mxGeometry x="-739.0033333333332" y="168" width="63" height="62" as="geometry" />
        </mxCell>
        <mxCell id="wImkBHEnD4N6jClxrFpg-111" value="&lt;font style=&quot;font-size: 15px&quot;&gt;BROKER Mosquitto&lt;/font&gt;" style="text;html=1;strokeColor=none;fillColor=none;align=center;verticalAlign=middle;whiteSpace=wrap;rounded=0;fontSize=14;fontColor=#FFFFFF;" parent="1" vertex="1">
          <mxGeometry x="-586" y="206" width="143.5" height="20" as="geometry" />
        </mxCell>
        <mxCell id="wImkBHEnD4N6jClxrFpg-112" value="&lt;font style=&quot;font-size: 12px;&quot;&gt;&amp;lt;ARN&amp;gt; :&amp;nbsp;arn:aws:iot:&amp;lt;region&amp;gt;:&amp;lt;account&amp;gt;:thing/Home_Assistant/&lt;/font&gt;" style="text;html=1;strokeColor=none;fillColor=none;align=center;verticalAlign=middle;whiteSpace=wrap;rounded=0;fontSize=12;fontColor=#FFFFFF;" parent="1" vertex="1">
          <mxGeometry x="-739" y="753" width="348" height="20" as="geometry" />
        </mxCell>
        <mxCell id="wImkBHEnD4N6jClxrFpg-114" value="&lt;span style=&quot;font-size: 14px; text-align: left;&quot;&gt;topic &amp;lt;ARN&amp;gt;/# in 1&lt;/span&gt;" style="text;html=1;strokeColor=none;fillColor=none;align=center;verticalAlign=middle;whiteSpace=wrap;rounded=0;fontSize=14;fontColor=#FFFFFF;fontStyle=1;labelBackgroundColor=#FF8000;" parent="1" vertex="1">
          <mxGeometry x="-434" y="297" width="126" height="20" as="geometry" />
        </mxCell>
        <mxCell id="wImkBHEnD4N6jClxrFpg-115" value="" style="endArrow=none;html=1;rounded=0;dashed=1;fontSize=12;fontColor=#660066;exitX=0;exitY=0.75;exitDx=0;exitDy=0;entryX=1;entryY=0.75;entryDx=0;entryDy=0;strokeWidth=3;dashPattern=1 1;strokeColor=#FFFFFF;" parent="1" edge="1">
          <mxGeometry width="50" height="50" relative="1" as="geometry">
            <mxPoint x="-434" y="319.00000000000045" as="sourcePoint" />
            <mxPoint x="-310" y="318.99999999999955" as="targetPoint" />
          </mxGeometry>
        </mxCell>
        <mxCell id="wImkBHEnD4N6jClxrFpg-118" value="" style="edgeStyle=orthogonalEdgeStyle;html=1;endArrow=block;elbow=vertical;startArrow=none;startFill=0;endFill=1;rounded=0;fontColor=#FFFFFF;strokeColor=#FFFFFF;strokeWidth=3;" parent="1" edge="1">
          <mxGeometry x="-0.0114" y="18" width="100" relative="1" as="geometry">
            <mxPoint x="-452" y="319" as="sourcePoint" />
            <mxPoint x="-514" y="319" as="targetPoint" />
            <mxPoint as="offset" />
            <Array as="points">
              <mxPoint x="-496" y="319" />
              <mxPoint x="-496" y="319" />
            </Array>
          </mxGeometry>
        </mxCell>
        <mxCell id="wImkBHEnD4N6jClxrFpg-121" value="BRIDGE" style="shape=image;verticalLabelPosition=bottom;labelBackgroundColor=none;verticalAlign=top;aspect=fixed;imageAspect=0;image=data:image/png,iVBORw0KGgoAAAANSUhEUgAABEwAAAEYCAYAAABGJmP8AAAACXBIWXMAAA7DAAAOwwHHb6hkAAAAGXRFWHRTb2Z0d2FyZQB3d3cuaW5rc2NhcGUub3Jnm+48GgAAIABJREFUeJzs3Xd4VGX6xvH7PZPeSIKUBJDee5EiICpYWBu4wrpWSjITQJr0HoogCyKIApmAYNm1oKtiV1QURWnSpSs19N7S5ry/P8TfWkggk0mec2buz3XtdbkhJF8NITPPvAUgIiIiIiIiIiIiIiIiIiIiIiIiIiIiIiIiIiIiIiIiIiIiIiIiIiIiIiIiIiIiIiIiIiIiIiIiIiIiIiIiIiIiIiIiIiIiIiIiIiIiIiIiIiIiIiIiIiIiIiIiIiIiIiIiIiIiIiIiIiIiIiIiIiIiIiIiIiIiIiIiIiIiIiIiIiIiIiIiIiIiIiIiIiIiIiIiIiIiIiIiIiIiIiIiIiIiIiIiIiIiIiIiIiIiIiIiIiIiIvKSkg7wtVSkGgdxsKWCaq6gymnoGOkmScqh0OKhFqf/+cI/S4RFh/nd17sgPnrqo1/eG/1eZekOHzoOIENBfZWGtJ+kY4iIiIiIiPyJ3zyB7ou+oVnIegLAIAAJ0j2Wo3C6cvPKGztN7lSm1q21akrnSPnyuS+/fnPAmw201nHSLT62TUFNSEDCG6lINaVjiIioaPRAj+hwhIeYMEv89jYNXSIXuQYABCP4PIAcAMhCVmYoQi+VQZkz/NlARERUcH4xMElCUm0DxnsAqku32EFwePCeVo+3yrhn/D31YkrHBNwKnON7ju9+qvFTpy6evthMusXXFNSXQQjq+gJeOCHdQkRE18YJZ4SGrgzgegVVDkB5ANcDSNDQ8QoqDkAcgFgAQV5+mjMATgE4paBOaejDAA4oqAMA9nngOWDA2OuG+3jh/42IiIj8g+0HJk44WwD4FECJq70v/UVW2ZplV/992t/DG9zToKl0THHSps5d1H3Rsh9e/uEmACHSPT6224TZej7mH5EOISKi/xmIgeEXcbGRCbMegFoKqg6AWgAqwjqPyY4D2AJgm4beasD4yYCxZi7mnpIOIyIiKm5W+eHslSQklTdgrAZQVrrF7oLDg3++uffNR+4ed3ejsOiwcOme4rJ92fY1M2+fGWfmmFWlW3xJQ393GqdvXYzF2dItBdUd3UuFIORj6Y78aOgLCuqEht4I4GM33KsAaOkusobLZ2m1VVB3aujaCqqkgrL036tpSPO7FXcWoJKRXMeA0VJD3wCgOYB6AIKFu7yhAewEsEpBrdLQqxKRuDYVqbnSYVbihHO3dAP5LwPGffMwb7OvPl4ykh9UUE/56uMR5WGzG+77pCMKw9YDExdc/9XQnaU7/IlS6nzllpU3PuJ+pHK5euUC4iyYnIs5Z6ffPH3FntV77pRu8bH+brifk44oqB7okRiEoIPSHQW02oQ5fD7mfykdQrKSkXyvgpoMoK50S0G44bb14wGrSEFKJQ3d3oTZXkHdCqCMdFMROgdgGYClCmopDx8HnHBycE5FxoTZbD7mr/XVx3PB5dTQab76eERXoqDW2v1FGds+QEpG8g0KaiVs/O9gcWapqqV+7DKjS0TDexvWkY4pDl8898XSNwe82QQa8dItPnI0EpGVnsWzl6RDCsKmAxMAMAGkuuGeBK42CTipSA3KQMYzAPpJt3iDAxPv/HYznwGjs4a+D4F9ltpBDf0+gLfLodyyQFx9woEJFSUOTMiO/GFg4u3BYVbwKDgsKUrGsd3Hms25bw7CosN23j327gvtB7ZvaDgMv/1v3r5f+w4N7224e0L9Cfuzzmc1lO7xgdLncb49gA+kQwKEAWBCMpJD0pE+RjqGilcGMtIA9JDuoKKXilTjEA7dYsJ8IAMZ9ymoBM0ZKQCUU1ApAFIykHHCCecSAG8D+MwNd45wGxERkVcM6QBvKai/STcEisxzmdXfGvJWo75Rffd+MP6D73Ozc/32VaPrKl1XdcaJGTWqtKriF1srFNQd0g2BRkGNcsH1gHQHFR8nnAPAYYnf64me1ZKRPDEDGXs09NLLw4GA2LrqhZIAuuPXgf1+F1zTXHAFxGpVIiLyL7YcmKQi1cCvJ8pTMcrNzK30fur7rfpG9D3+xoA3VuRk5tjuQNFrERQSFD5sxbBbO03u9DmA89I9haGgKgknBCKloef0RE9/2dpF+eiFXlUATJHuoKLRF31DXXA95oRzuQOOHQpqNIAK0l02U0ZDD9bQW1xwfe+EM2kgBlr6EGQiIqLf2HJgshd7S8Le24lszfSYZb+c9eWN/aL6nXq93+tf52TmZEk3FYWOIzreNnrd6H1BoUG7pFu8ZcIsLd0QoEoZMHjyfAAwYc4CECbdQb6VhKQyLriGZSFrt4Z+CUAbcBtwoWnolgDSL+DCISecs3qjN4dPRERkabYcmCgoO17J53dMj1nmq9lftesX1e/0W4PeWpGTmeN3e5QrNKpQZ8bxGSVLVyu9TLrFGwYMh3RDoFJQyUlIqi3dQUXHCectGvpu6Q7yHSec9V1wvWrA2KehnwZQTrrJT5UA0C8XubudcP47GcmNpIOIiIiuxJYDE7IW02OW+XzG5zf2i+p3/N2R7y43c02PdJMvhUaFxk3cObHd3WPv/hyArW6cIVEOA8ZY6QgqUuOkA8g3nHDWd8L5MoB1GvphACHSTQEiGMBDCmqdE87PXXDZ+iYFIiLyPxyYkM+YHjPh4ykft+0X02/vihdXrJPu8TF1z/h7bnvyyye3GA7jgHQM2UbXFKTUk44g30tGcgcA7aQ7qHCccDa5fJvLBvx6+x5X5cnpoKFXOeF8zwlnE+kYIiIigAMTKgI5l3KqvNTzpcZPlnzyp58+/2mbdI8v1bylZrOn9z+NsKiw9dItZAuGBx6uQvBDXD1kb0lIKu+EMw3AagD3gOeTWIUCcC+ANU4430xCUmXpICIiCmwcmFCRuXDyQp1Zt8+qOab6mO+P/3z8oHSPr5RIKFH+mePPVCtTs8xX0i1kfQrq7y64Gkp3kO8kI7mjhm4r3UEF1xu9o5xwphowdgBwgo+DrEoB6GLA2OaEc5YTzhLSQUREFJj4QIGKmjq662irUVVHxc7tPHdpblaura/p/U1QaFDUhG0Tbm6T1OYTAKZ0D1ma0tCp0hHkU6nSAVRgKhnJj+Yi92f8evYMr7W1hxAA/QBsd8H1iHQMEREFHg5MqLhErn93fYd+0f2Ofzv/2+XSMT6iHk1/9M6uM7t+DeCidAxZ2n3JSL5BOoIKLxnJdyuo5tIddO2ccFZ1wvmJgnoZQCnpHvJKGQ39ihPOZU44a0nHEBFR4ODAhIqVJ8dT6ZXkV9oOLj147f71+3dJ9/hC+/7tbxn23bCdhsPwm21H5HNKQY2RjqBCUwaMVOkIujZOOIOdcI4BsBnA7dI95BPtAKxzwjnKCWewdAwREfk/DkxIxLlj55pOajyp4jM3P/NN5plM22/TqXJjlYZP/fxUbmhk6GbpFrKse1KQwpUJNuaE8z4N3VS6g67u8iqEFQAmAAgTziHfCgMwCcDaJCQ1kI4hIiL/FiQd4I1IRJ6v/4/66z25npycCzmOnKwc5GblmtmXskM9OZ6cnEs5oZ4cD3Kzc4Myz2VGeLI80Z5cT6x0N/1F8I6vd9w0sOTAww/NfWh72+S2tn4iEn99fMXpR6afG1d33Lcn955sI91D1nP5xpy7pDvIKwq/nn1B1qZccCVr6BkAIqVjqEjVN2CsdMGVmoCEaalI5XliRETkc7YcmMzG7LP6dd2oIL9Hmxrnj5/HuWPnLpw5dObsmYwz50/uP5l5av8pz9GdR81jPx8LPX/sfImsi1mloRFSVO30V6bHLPuq89WyS59dunLQskE1YkrHxEk3eSskMiR68i+TWz3T7pmlO5fv7CDdQ9aioP6WhKSW8zH/B+kWKphkJN8PoEA/d6h4dUf3UiEIeUVD3yHdQsUmTEM/fQiHbklBymPzMO+odBAREfkXWw5MvKEMhejS0YguHR2ZWDcxz1edtKlxOuN07uHth49nbMo4dXDTwczD2w6rIzuPRF08cbGcaZo8Wb+IHN56uMWwhGEnujzbZfWt/W617QGZSinH4G8Gd1j46MLPf3j1hw749ZVpIgCAA45UAHdKd1CB8Awai0tCUlMDxlsaupJ0CxU/DX2Hhv4xGcld05G+QrqHiIj8R8AMTK6VMhTiyscFxZWPK1u7fe2yf/710wdP5+z6dtfhXct3Hftl1S84suNIqUtnLpUDz4PxCdM0S77R/42SS2cs/XHI8iEV4yrElZRu8lb3V7rfVqp6qS/eH/f+TQB4OB0B+PWBfRKS2s7HfH+5LcrvueDqqqEbSnfQlbngcmro2QBXhwa4cgrqaxdco9OQNlU6hoiI/AMHJgUUWy42uNk/mlVo9o9mFX57W+a5TOz7cd/RzZ9sPrz5o804sv1IYm5W7nWSnXZ3Yu+JJiMqjjjVeUrnlXcMu6OFdI+37h57d/vYxNjvXkl+pQkArk4iAIABYxwAbtmygVSkGhnIGCvdQX/VBV1C4hDn1tCPS7eQZQRp6KedcNYNRWjybMzOkg4iIiJ746oIHwiLDkONdjVK3z/l/gZjN4xt8ELmC9dNPTg197EFj/3c4J4GG6Kui/oZAA8jKyCtddx/h/+3xbByw9ac2HPisHSPt9oktWndZ0mfbUop298GRD7TPhnJ7aQj6OoO4uA/AdSR7qA/6oVecbGI/RQAhyV0JY9mIeur7uheSjqEiIjsjQOTIhKbGBvUukfrKn2W9Gn4zLFnqjx76lm4Frv2NuzU8MewqLB90n12cjrjdLNRVUaFfzTpI9selNngngaN+37YdxcUzkm3kDUoqEnSDZS/LujiUFCjpTvoj3qhVxUPPCsU1M3SLWRprYIR/H0v9KopHUJERPbFgUkxiYiNMJo80KRi73d6N5l1btb10zKmZXad0XVLhcYVNhkOgysPrkJrXeK9Me+1HFNzzJqLpy5ekO7xRt2OdRsN+WbIASiclG4hS2jjhPMW6QjKWyxiHwJQS7qD/icFKc098KwEvy50bap64FnuhNO2W3uJiEgWByZCYhJiwtoPbF939I+j68++ODvqiQ+eONjk703WhcVw9Ul+ju442mxw2cEndi3ftUO6xRvV2lSrPey7YceUoTg0IWjoidINdGWXV5eMku6g/0lCUlsT5ucAeEYYFUQpAF+44GovHUJERPbDgYkFBIUEof5d9cu53nI1nnVm1vXjNo0717pn643hMeH7pdusyJPtuX7aTdOqvPjoiyu1qbV0T0FVaVWl5rAVw45D4bR0C8lSUK2TkczDXy0oFrGPA+BSfotwwnmLAeMjADHSLWRLkRp6STKS75AOISIie+HAxIIS6yVGPzb/sQYzz8ysMGbjmLOte7beGBYddlC6y2KCVr66ssWwCsM2nMk4Y7vBQ+UWlWsMXDrwOBRsub2IfEdBTZBuoD9ywhnM1SXW4YSzE4CPAURJt5CtRSio91xw3ScdQkRE9sGBicWVr18+5rH5jzWYdXZWuRErR5xs+o+m64LCgo5Kd1nFmYwzjYZfPzxz4wcbN0u3FFStW2tVS3kr5RAAXnsY2Fq54LpTOoL+R0N3A1BFuoMAF1y3AXgdQKh0C/mFUA292AnnXdIhRERkDxyY2Eil5pXina87Gz9/4fnSvZf03lu+YfkNAHKku6SZHrPsC/e8UGdO5znfmx7TVtc3N76/cbUer/TYByBXuoVETQKgpCPo/1eXjJDuICAFKa019DvgsIR8KxjAYl7tTkRE14IDExtShkLDexpWHLN+TMNpGdP0LU/csiEkIiTQt+wYG97d0GpIwpBNZ4+ePSUdUxAtHmlRvevMrjsA2GrYQ76joZs64fybdAcBAJIAVJaOCHQpSGluwvwYQKR0C/mlcAW1xAVXM+kQIiKyNg5MbC4mISbkwdkPNpx9YXa5oSuGHqjWttoqpdQl6S4p54+dbzi83PCsXd/t+lm6pSDa929f564xd22S7iA5Cmo8uMpEVF/0DQXA1SXCeqFXzcvDkmjpFvJrMRr6o57oWU06hIiIrIsDEz9StVXV8kO+GdJ82uFpjvb9228KCg46Jt0kwZPrKTu97fSyy+YsWyndUhD3Tri34W1P3rZGuoNkaOimyUi+R7ojkGUj2wmggnRHIOuDPiU98CwBEC/dQgGhlAOOT5xw8qpqIiK6Ig5M/FB06eiQrjO71p95dmapTk912hoaFRpw1xNrrSNe6/Na8/n/nL9ca/tcPfzAMw80a3BPg1XSHSRDQU1KRSr/XhbQDd3CNPQw6Y5A5oQzOAc5iwHUkG6hgFIVwNtd0CVEOoSIiKyHD8z9WHBYMDqO7Fh71tlZFfq83+dA2Vplt0g3FTO1+vXVbUdVHvVj5plM22xT6v1u7+YJdRLWS3eQiPqHcKiTdEQgCkawC0A56Y4AtwDALdIRFJBuikXsHOkIIiKyHg5MAoBSCg3ublB+/NbxdYf9MOz49U2v34AAOmD0xN4TTYeUG7L/2M/HDkm3XAtlKIxaM6puZHzkNukWKn4aegJXmRSvbugWpqCGSncEsmQk9wfwqHQHBS4F1dMJZx/pDiIishY+KA8wVVpUuW7UmlENx24ae7Zqq6obAXikm4pD9oXsGqOrjQ5d/+76DdIt1yI4PDh4/Lbx5YNDg/dJt1Cxq5uBjL9LRwSSEIT0AZAo3RGokpDUUkH9S7rDJs4D2KWg1mro7wAsBfBfAK8DcCuofwNYfPnt3yiotQC2AzgpFWwzzyQj+QbpCCIiso4g6QCSUa5eudihK4bG7vtx34lFjy/KOLj5YD34+w0dGvFzO8+Nunvs3d/dM/6e1tI5VxNdKjpq+Orh5yY1mnRGm7qEdA8Vq3GpSH07FakBsxJMyqN4NBIAV5cIuXzY5psAeH7E/2QqqPUaerOG/hnALw44fs5C1i8LsdDrw9ydcJYwYFTxwFMFQGUFVQVAXQBNAET5qN3uQhXUmz3Rs+kCLPBmyNTV50XCFNQwDd1UuqOATgFwSUf4WjCCfXoDpAFjqQcev/ozq6DiNHSadIcXFl/+n98xYZ6Sbigs2z5BttNBnnawf/3+ky/1eOng/nX7/X9wAqDBvQ2+6/NeH8sPTQBgy8dbdjz3t+cqAggt6O9VUGvTkNasCLKKTA/0SAxC0EHpDmkK6qE0pL0m3eHvnHAOBTBVukOaG26Jv/eVE86PANwp8Lmt5CyArzX0Fw44vjFhbnbDnVNcn7wLujhiEVtLQd0EoAN+PUcmrrg+v0V96Ib7HgAB/1jTCecSAHa7wS3DDTfPpApANn4MOd4Nd6p0BF0Zt+QQAKBCowrxo38cXX/o8qFHSlYq+ZN0T1HbuGRj6+ntpi/Xprb8K/h1O9at8cC0B34CH7gFFA09tgu6OKQ7/FkP9IgGMES6I1A54eyNwB2WHAWQBuAOANe54b43Hemz5mHeuuIclgDAYiz2pCN9ixvuuW64/34Kp0qZMNsrqDkADhdni4Xc5YQzRTqCiIjkcWBCf1C1TdWyk3+ZXKfPkj77w0qE7ZXuKUo7v9nZdmzNsT/mZOYU64NTb9w2+LbGLR5uweuGA0uteMT/UzrCnwUhqC+A66Q7AlEykmsACLRzS0wF9QGAzgDKu+FOccP9WXEPSK5mMRZ75mP+l2lI65OIxAoKqtPlbsu/wOBj03qiZzXpCCIiksWBCV1Rg3saVJhxbEbFO4ffuUkZ6ox0T1E5uutos5GVR27OPJt5Qbrlarq/0r1FYr3ENdIdVHw09LhUpPKsqSLQF31jAAyS7ghEqUgNMmC8BCBCuqWY5AB4BUDdNKTd44b7XasNSfKSitTcNKS9l4a0exxwVAfgBpAr3VVMIh1wvMyVfkREgY0DE8qTI9iBzlM613/m2DMRTbs0XQsgW7qpKJw9fLbxsPLD9p89fPaEdEt+lFIYuWpkw/CY8O3SLVRsqmUg42HpCH+UicwBAOKlOwLRIRwapKFbSncUg0wFNccDT3U33I+54bb1VfFzMfdnN9wuALU09AL46WOCP2kVj/jB0hFERCSHAxO6qsj4yGDnm86mqVtSL5atVdYvzzfJPJdZa3jF4RcPbT1k6Wt8g8ODg0etGxVvGIalhzvkU2OccAZLR/iTbugWq6AGSncEoiQkVdbQY6U7ipgJYD6AKmlI67MAC/xqe6sb7t3pSE/ywFMDwNvSPUVNQ49LQlJl6Q4iIpLBgQlds4Q6CbHjt46v0/3l7rsdwY6j0j2+5sn2VJhQf0Lo3jV7d0m35KdUlVKlXG+5DiNwlkUHuqoK6jHpCH8SitCBAGKlOwKRAWM2/HgrjoZepaBauOFOdsN9SLqnKC3Agr1uuB/Q0PcB2C/dU4TCL/+5JSKiAMSBCRVYy0dbVn3m2DPxdW6rsw5+dgic6THLTGk+pdSOr3dYeul0o86N6t7yxC2rpTuoeGjoMV3QJUS6wx90Q7dYDd1PuiMQJSP57wDuku4oIjkaeqqCapOGtIA6ayod6Uvw6zadqQA80j1F5K5kJHeWjiAiouLHgQl5JbxEeFD/z/o3fvKrJ4+ExYRZehtLQWmtS8y4ZUbijq93bJVuyc+Dsx9sVaFxhe+kO6hYVIxHfDfpCH8QgpAh4OqSYueEM0JBzZTuKCLbTZjN0pE+3C6HufqaG+6L6UgfbsBoB+CAdE9RUFCzHsWjkdIdRERUvDgwoUKpeXPNhBnHZ1zfvn/7TVD+cwCc1jrGDkOTYSuGNQ+LCbP0ahjyDQ09iqtMCscJ53UA+kp3BCIF9SSA8tIdReD1XOTeMB/zN0qHWME8zPsuBzlNAHwm3VIEKoQj/EnpCCIiKl62vK6yG7rFTmkxZblSSkeWjNQAEBIWYoaXCDcAIDw2HCERISq2fGxwXPm48NjE2MgSZUtER5WKinMEO0Jl6/2PI9iBrjO71m/ds/XJmbfPPH728Nka0k2+cHmliTl0xdAdVVpWseS/U3BYcPDodaNjx1Yfe8I0zZLSPVSkro9DXE8Ac6VDbGwIgGjpiEDTHd1Laegh0h0+pgFMcMM9/vI/02ULsfBYF3T5WxziZgDwt+1vQ3ujd/oczDksHUJERMXDlgMTA0bEnlV72nr1mxXOOYIcp0MjQ0/HlI05W7p66ezEuolG+YblIxLrJcaXqV6mXFBoUJiPkwNCufrl4qcemBr/5sA3N341+6vaAGx/s4fWOm7qjVP18O+H76zconJ16Z4rKVWlVNmU/6ZsmtNpTiwAh3QPFamR3dBt4SIsypQOsZsUpJQ2YfaR7ghEwQgeByBGusOHcgB0c8P9H+kQq1qMxR4A/Z1w7gHwDAAlW+QzUR54xgDg3yVERAHClgOTQtGI9uR4oi+evljh4umLOLztMDa+/4eVtNpwGIcj4yMPJtZNPFv9pupGrQ61rqvUrFKl4PBg7l29CsNh4MHnHmzQ/KHmR2Z2mJmVdSHreummQtOIn3rjVIxYOWJXxWYVq0nnXEnD+xrWb/FIi29WvrryJukWKlLlQxGaDIA3NhSQCXMoAP4dXsxccFXX0E7pDh/KUlBd0pD2vnSIHbjhftYJ5zkAafCTbeAaOjkZybPSkb5DuoWIiIqeX/zw8jFlesyy546da7p92fZbPpjwQbvpN02v+0TEE2G9Q3v/PLra6BXzH5r/5fp316/JOp91XjrWqqq0rFJm+tHp5evcXmc9/GC5sjZ1/NMtno7bt3bfbumWvHR/qXvb2MTYH6U7qGhp6OEDMTBcusNOeqN3WQC9pDsCkYYeBT9YbXhZtobuzGFJwbjhnq+he8IPHgtcFqygxkhHEBFR8eDA5No5PNmeKsd2H7tx9Wurb53beW6zftH9wp8If2L3U82eWvbhxA+XHdl2ZJd0pJWERIQY/T/t36jXO732OoIdx6V7Css0zZJTmk+J3bd2nyW/zspQaszGMVUcQY6D0i1UpBIv4IJLOsJOPPAMBxAh3RFoeqFXFQAPS3f4iKmhH09H+sfSIXaUjvRF8K8Dl//pgsuS23SJiMi3ODApHEdOZk7VfWv33bxk7JKbx9YeW61XUK+DkxpP+ubLWV9+d+HkhRPSgVbQqFOjSlP3T40qW7PsZumWwjJNs+Tk5pNjDm8/vF+65UqiSkbF9l7S+xSAXOkWKlLDnHByAHANeqBHoobmgEmAB55h8J+tv4PSkf66dISdueF+AcC/pDt8xGHCHCYdQURERY8DEx8zPWa5/ev33/TGgDdaP1nyydj+0f23zr5r9tebPty0Rps6R7pPSnSZ6LDx28bXu3fCvRvw64F5tqVNXXpCgwk4c+jMMemWK6nXsV691j1ar5DuoCLFLSbXKAhBIwDwIO9iloSk8gC6SXf4goJa5IZ7pnSHP0hE4ggA70p3+IKCeqwnelaU7iAioqLFgUnRcmSez6y9+aPN7Z6/+/lmvYJ6nZnUeNI3K/+9cqUnx5MlHSfhrjF3Nez3Ub9DjiCHrVffeLI9FcbWHHss60LWBemWK3l0/qNt4yrErZHuoCI19FE8ykNM89EbvSsASJbuCEQGjAEAQqQ7CktB/XASJ7lCyUdSkWpewqVHAGyRbvGB4CAEDZSOICKiosWBSTHSWl+3f/3+m1585MUWvUN7X5pQf8J3KxauWO3J8WRLtxWnuh3rXv/UnqfCYsrG2PqE+cxzmXXG1hi71cw1Lbf9RSmlxqwfUy0sJuyodAsVmdLhCOfVlvnIQc5IAKHSHYHm8nax7tIdPnDaA89Di7E4oH5GF7VX8MoFDf0PABelWwpLQ/foi77+dGU2ERH9CQcmUjRiD24+2PqlHi/d0Ce0z7nJTSd/vf699Wu01qZ0WnGIKxcXOWXvlOr1/1Z/vXRLYZzOON1scvPJK7XWljv9PzI+MnbM+jH+cjsFXdmQHugRLR1hRT3Rs6KC6iHdEaAeBRAvHVFYCiplPub/It3hj9KRvgVAf+kOH4jOQtaj0hFERFR0ODCxAK11yb0/7m03t9PcZn1C++yd23nu0hO/nDgg3VXUgkKC1BMfPtHooRce2qaUsu0rTfuS2EFZAAAgAElEQVTX7W897+/zvpHuuJKSlUvGSTdQkbouCEH+dPOEzzjgGA0/2BJiU/6w8umTNKS9IR3hz9xwzwfgD7cO9QegpCOIiKhocGBiMZ4cT+X1767vMLLKyDIjK438/vuXvv/e9Ji2PiT1atr1bldr1NpRF4LCgg5Jt3hr/Tvr270z/J1vpTsoIA3ikvA/unyd7ePSHYEoBSk3A6gv3VFIFw0YPFS5GAQhyAXgrHRHIVV3wdVBOoKIiIoGBybWFXxi74lWi7otatUntM/x+Q/O/+Lc0XN+ex5FhcYVSk3+ZXJs5HWRO6VbvPXJ1E9aLU9fvkq6gwJOfBay/GFpu8944BkNgNvRBJgw/WEb1MR5mLdHOiIQzMGc/QBSpTsKS0P7w597IiK6Ag5MbMD0mAmr31jdfnCZwVFTmk9ZdnDzQdsOFfJTomyJ8Kf3Pl21XP1ym6RbvOR41flq/Z8++2mzdAgFnEG90IvbrwD0RM9q+PUMDSpmvdE7CkBn6Y5C2gLgGemIQJKIxNkA7Ppz/zeduqFbrHQEERH5Hgcm9hKxZ/WemyfUn1B1UKlBa1YsXLEagOUOGy2MkIgQY8yGMfVbdWv1o3SLl8Jnd5xd5sSeE7bdXkS2VMKEOUA6wgoccIwFECTdEYg88HQBECXdURgaeoAbbr/eBms1qUjN1dAjpTsKKSwUoV2lI4iIyPc4MLEn4/zx881e6vHSDX2j+m5bNmfZcn+6XUcphW4LuzXpNKnTFgCWu7L3akzTLDWhwYRTOZk5mdItFDg0dP+e6Gn7m0kKwwVXdQD/lO4IVBra1ufGKKgf0pG+VLojEKUj/QMFtVa6ozDs/uefiIiujAMTm8u+kF37tT6vte0b0XfXFzO/+EZr7ZFu8pWOozrW7f1e7wPKUOekWwoq81xmnck3TLbrKhmypxIOOJ6UjpCkoVPB1SUieqN3BQA3SXcUhglzgnRDIDNhTpFuKKRWTjirSkcQEZFvcWDiJ3Iyc2q8OfDNm/rH9N/2/Uvffw8/2arT8N6GlUasGnHJEeQ4Id1SUBmbM258o/8by6U7KKD0747upaQjJLjgqgPgQemOQJWL3M6w99WqP6Yj/RPpiECWjvT/ArDzGWBKQ9v9DB8iIvoTDkz8TNb5rLqLui1qNSBmwObVb6z+QbrHFyo2rVh6zMYxKig06Ih0S0F9+dyXrTYs2bBBuoN8ysrnG0QFIzhQV5mMg7V/pvnNtskrUVD3STcUhoKaAD95ocHGtIZ+WjqiMBQUByZERH7Gyg8uqRAunbtUf/6D81sOLj147d41e7dL9xRWQu2E+AnbJkSERIQckG4poKA5neZUOLLjyH7pEPKZd6UDruKJQFtl4oSzvoZ+QLrjKpZIBxSVPuhTUkPbeTvOljSk+e3Xx05O4/TrAPZIdxRCy97oXVY6goiIfIcDEz937ti5ppNvmFz1qWZPLTt75Owx6Z7CKFmpZPSk3ZNKhpcI/1m6pUA04ic1mXQp+2L2RekUKjwNvQCAlb+WUcEIHiIdUcxSYeGfZwrqU9j/2tQ8ZSP7Htj77JgF4OoSS1iMxR4F9bJ0RyEYuci19WorIiL6I8s+wCSfCtq3dt/NQxKGBC98bOHS3Oxc297eUqJsifDJv0wuH106eod0S0FkX8iuMbnZ5PXSHeQbCmqOdMNV9ElCUhnpiOKQjORGAKy8DF4rqLEaOlY6pKgYMDpKNxRCjgHj39IR9D8a+mXYe4B1l3QAERH5DgcmgUQj9odXfugwIGbAwfX/Xb9SOsdbEXERIZN2TaoSmxi7VbqlIA5tPXTjf/r85xvpDiocA0aihp4K4Kx0Sz4iFNRQ6YhikgoLHzaqoZfMw7xVCipOuqWIKA19i3REIXw4D/OOSkfQ/7jh3q2hV0h3FMLNTjiDpSOIiMg3ODAJQDlZOVXn/n1u84kNJi67cOKCLbfphEWHBU3aNalm/PXxP0m3FMTXc75uuXP5TlsNeuiPTJhl3XAfBzBLuiU/CqqXE84E6Y6ilISkpgrqXumOfJgGjHGX/7mEaEkRSUZyQwC2PTNHQy+UbqArekk6oBCiTZhNpSOIiMg3ODAJXOrApgM3Dyo1SH848cNlsOHy1+DwYGP81vE1bbbSJOTZDs9GZp7NPC8dQt4xYMRf/sdnAJyUbLmKcAU1TDqiKBkwxsPCq0sU1FtpSPvtlix/XWHSQTqgEI4oqI+lI+ivwhD2Bqx9VlS+DBi3SjcQEZFvcGAS4LTWpZeMXXLz4LKDVx7ddXS3dE9BhUSEOMZvHV8jqlTULumWa+XJ9lw/vd10nmdiUxq6JAC44T4DYJpwTr40tCsFKeWkO4pCClKaw9pnBXg88KT+7v/75RkmCqq9dIO3NPQ7britfE14wJqN2WcBLJXu8Jadvy+IiOiPODAhAMC5I+dajqk+psybA978XGttSvcURFhMmGPC1gkV7HR7zv71+9ssfXbp99Id5JX/XylwCZdmAzgi2HI1YSbMEdIRRcGEOV66IT8a+t/zMf/3q9/8cYWJAtBSOsJbl28vIuv6XDrAWxq6ZSpS7XxzFBERXcaBCf1e1BezvrhtcOnBa07uO7lXOqYgIktGhk7cMTExLDpsj3TLtXpr0Ft1j+06dkC6gwrsty05eAWvXNDQUyRjrkFyClIqSUf4kguuVgDulO7IR46CmvCnt/ndCpMkJNWCff+9cgF8JR1BedPQn0k3FELEIRyqKx1BRESFx4EJ/cX54+ebj6w0MvLruV8vk24piOjS0WETdkwoExoZuk+65VporWMmNpl4xpPj4ZJwe/nD4Z05yEkDsF+o5VqEmDCHS0f4kob+8zDCUhTUIjfcu//wJiBCqqeoOOC4QbqhEH64vK2OLCod6TsA7JHu8JaGtvP3BxERXcaBCV2R1vq6//T+z82Tmkz6Mut8lpWvT/2DEmVLhI/bPC4uKDTIytsk/l/Wuay66Q+m2/n6xEAU/vv/swiLMhXUJKmYa9QjCUmVpSN8IQUprWHtg0azFdTk37+hL/qGwMKH03pLQzeXbigEO69eCBgKyrbbcgBwYEJE5Ac4MKF87V+3/9YnSz55YufynRuu/t7WULJSyegRP4xQylDnpFuuxbr/rmuz6YNNG6U76JqF//kNl68mtfLBw8EGjJHSEb5gwpwo3ZAfDZ02D/P2/P5tHniChXKKlM1fQefAxB7s/HWy80CRiIgu48CErio3O7fy9Jum13x3xLu2ObG+fKPypXu/2/sEgGzplmvgmNNpznUXTl44LR1C1yTsz29ww52joCx9CCmAx3uhVxXpiMJIQcrNAG6R7sjHRQX1lzNtFFSoRExRSkWqoaDsekbDpVM4tUY6gq7OA89y6YZCqM2DX4mI7I8DE7pWYR8//XGHsbXGLsu+kG2LLToN7mlQ6aEXHtoNQEu3XI3pMROfbf/sZukOuiZ/WWECAAlI+A8AK68UCvbAM1o6ojBMmKnSDVfxvBvuQ39+Yw5yQiRiitIBHKgIIFK6w0sbF2OxRzqCrm4+5h8B8JfvKZsIPYRDfrEVkogokNlyYBKEoNMdR3Rc3jap7Tetu7f+ummXpl/X+1u9r+vcXueb65tc/23J60uuioiL2BQUGvSLMtQp6V5/cmT7kZsHlR504MiOI7uv/t7y2vVuV7uts62Vn8T+v/3r97deu3jtj9IddFVXHJikItW0wSqTx3qhV03pCG+44LoNQDvpjnycN2A8c6VfMGD43QoTA0Yd6YZCsM0WUwIArJcOKIRa0gFERFQ4tlwq6Ib7YtrktLbX+v6mxzRPHzx9PGNLxtED6w6c3b9hf87h7YeDTu0/FX3p9KUE0zRLFWWvv8m+mF1nXK1xpx5b8Ni3N3a/sY10z9U8kvZIw8PbD6/f+fXORtItV6EWPLKgVL2/1bsQGhlq11duA4HDCWewG+6/3G6UhrR3kpG8SkFZde+6Ixe5IwE8Lh3ihTHSAflRUDPmYd7RK/2aB54Q5X9nvtp2YKKhOTCxlw0AOkpHeEND1wbwvnQHERF5z5YDk4IyHIYRf3186fjr40vX61jvL79+5tCZU7u+3bVn6xdbz/+84mfHsZ+PXZd9IbsKAuS/jze01nEv9Xjpxm1fbPu0x6s9bofFb4AY+PnARuNqjdty7Odjlt5z78n2VJjTac7XAz8faOVX0unXK2KvdCWpNmCM09AfF3fQtVJQD/dCr8lzMXe7dMu1csF1p4a+5iG5gFNZyHo2r190wBFiwizOnuJg21fOHXBwYGIjGnqDXQeOCqq2dAMRERUOBwIASiSUiGvapWlc0y5N//9tWReyMrct3bZ1zeI1p3d8tSPi9KHTNaARLZhpRcbKf6+8I2NzxpcjVo+40RHs+MthmFbhCHZg9LrRNYcmDt2bdSGronRPfrYt3dZmx1c7ttS4pYalhzuBLAhB4bjywARpSPvECee3AKy6+srhgWcsgIelQ66Vhk6VbriK6YuwKM9Dm02YfneGiYKqpK1/PNSVmNnItsU2TfqVgrLtlhwTZiXpBiIiKhxbnmFSHEIjQ8Ma3tewfs9Xe7adenBq03m586JGrByxu62r7fKY0jHrYY/bV4rF/g37bx2aMHTTxdMXj0u35CcsJixoxKoRUTa4btgx+67ZIZ4cz1+2fJA1ZCIz3787NbTVD1d90AWXLbZUOOG8C0AL6Y58HAtC0HP5vYMJ054vj+dDQ1eQbvDS3hfxotV/BtDvnMKpnQAypTu8oaDs+n1CRESXcWByjZShVKXmlao+Mu+RttOOTGv03Lnnch9Nf3RtlZZVvjWCDLue4O4z50+cv2FI2SGnj+48uku6JT8JdRJKdn+5+2FY/Oac7EvZ1Rc+tvA76Q7yTjrSv9bQn0t35MPQ0GOlI67ROOmAq5g6B3POS0cUMwXAlk8ENfRe6QYqmMs3Gh2U7vBSOVh8yzIREeWPAxMvhUaFRrRJatN02PfD2szJnpPQ/7P+22q3r/2t4TAOS7dJyc3KrTa25tiYrZ9vXSPdkp8WD7eofmO3Gy2/h33166tb7d+w/2fpDvKOAWMkrD2Y65qEpAbSEflxwtkJwA3SHfk4BGCudERxS0FKKQCW3YKZHwV1QLqBvGLXgUlYd3S/TjqCiIi8x4GJDyilUOe2OrUGLB3QZk72nDJPfPTEluptq3+rDHVSuq24aa1Lz7x9Zu1Vr636VrolP48teKxR6eqlN0t3XEXojJtnXNCm9rvTIgNBGtLWaOgl0h35UAYMK68yUbD+6pKn3HBflI4obibM8tINhZAhHUAFp6HtOjBBKELt/P1CRBTwODDxMWUoVb9j/bqDvxnc5vmLz8d0ndl1TUyZmPWw9ivNvha54KEFNyx7YdlX0iF5UYbCiFUjaoREhFj61caLpy/Wf2voW5YePlHeHHCMBix9Pcr9yUi25HXbyUi+H4Al2y7bF4rQ+dIREhRUaekGb3GFiT3Z+evmgce23y9ERMSBSZEKCg0Kat+/fbNph6c1mrBtwuFGnRp9aziMY9JdxST0tSdea/vhhA8te45DRGxEyLAVw0KhcEG6JT9fzPii/rmj5wJutZI/mId5mwG8Kd2RD6WgrLiKQymoMdIR+VFQE2ZjdpZ0hwQNHS/dUAi2XakQyOy8wgRAnHQAERF5jwOTYlKmZpmEXu/0ajP74uyS90+9f0NoVOhu6aZiELRk3JL2r7pefVc6JC/lG5Yv9eCsBy39ypXWOu75e57fIt1B3lFQYwHkSnfk475kJFvqnBAXXF0BNJTuyMeuBCS8JB0hyLZPAO28UiGQGTBsOzBRULb9fiEiIg5Mil1QSJBxx9A7Gs46O6uq803nxtjE2HXw7+06xnL38k4L/rngY+mQvNzS95aalZpXWi/dkZ89q/a03rl851bpDiq4NKTtBPCydEc+LHWWSSpSLX+Dj4ZOTUWqlYdgRS1WOsBbucgNlFWe/uaodIC3NLRtv1+IiIgDEzFKKTTt0rTB1INTG49YNWJvmRplVsOPByerXl/Vcf6D8z+S7sjLwM8H1gsKC7LyK1jGC/e+4NFa++2fEX/mgWcCAMtu39DQd6cgpbl0BwBkIONBAHWkO/KxpRzKvSYdIcnOW3JCEHJJuoG8YtvDlbnChIjI3jgwsYBKN1SqNGH7hBuG/zB8T6kqpdbCTwcnq99Y/bdXna9acqVJWExY0IBPBwBAjnRLXi6dvlTvk6c/WSHdQQW3AAv2AkiX7siPCTNVuqELujgAWH11ybhUpFr5IN8ip6AipRu8dREXM6UbqOBMmLYddGnoaOkGIiLyHgcmFlK5ReXKk3ZPajr468G74yrE/SjdUxSWpy+/c/HAxZYcmlS/qXq5m3vd/JN0R37eH/t+5ZxLObZ94BjgJsPar5J2dMLZRjIgHvEPA6gp2XAVG8uh3DvSERYQIh3grWhE8+9PG1JQdh50BUsHEBGR9zgwsaDqN1Wv9vS+p5v0fq/39tDo0F3SPT6mls5ceufbQ97+VDrkSh58/sGG8RXiLTs08eR6El91vbpSuoMKzg33IQAvSHdchdjNNF3QxaGhR0p9/ms0MtBXl1xm1yeA5mzMzpaOoILLRa6dB112/X4hIiJwYGJpDe9tWHPW6VlV73/6/lWGwzgu3eND6rPpn3X4ePLHlrtyWBkKQ1cMragc6rR0S15Wvrqy2ZmMM7Y9AC+QBSN4KoCz0h35uN0F100SnzgWsY/D2qtLVrvhtuw5TMVJQdl1hUkm/HTLq78LRahtByY2/n4hIiJwYGJ5ylDqjmF3NH/m2DPhde6s8x0sfMZGATneHfXuzd+/9P0y6ZA/iysfF/nwCw8fke7Ii9Y6Kq1L2jbpDiq4F/DCCQU1U7ojPxI31DjhDFZQo4r78xaEghoBPtn+jV1fMbftk+5AdwmX7Py148CEiMjGODCxiYi4iMj+H/dvPWLliIPhJcL95cly8KJui5ruWr5rrXTIn7V1ta1ZtnbZTdIdedm9YveNGVsy9kh3UMFp6BkATkh35KN9MpLbFfPnfBxAlWL+nNdMQy9LQ9oX0h1WoaEd0g1e8pcXHAJOJVSy81aqIOkAIiLyHgcmNlOpeaVKz558tuZdo+/6QSl1XrrHB6Knt5te7sjOI5YbAg1cOrCaMtQZ6Y48BKU9kJYhHUEF54b7jIKaJt2RHwU1qbg+lxPOYACWPrvEgDFOusFi7Dp4CJUOIO+cwRk7f+0se6U8ERFdHQcmNqQMpe6deG/LiTsnXogrH7dOuqewtNZlJ9SbYFw4ecFS22BiE2PDOz3V6YB0R14Obzvc8peVv+yQ7qCCi0DEcwAOSnfko00Skm4tps+VBKByMX0ub3yShrRvpCMsxq4Dk3DpAPLOWZy189eOAxMiIhvjwMTGSlUtVebp/U83vv/p+1cppax8XelV5Wbn1hhZeeSB3KxcS63ouGPYHXXjK8Zvke7Ig5HeNd2yh9NS3p7Fs5cU1FTpjvwYMCYW9efogi4hAIYV9ecppFTpAKvR0HbdHhEKQElHUMFp6DDpBm9paA5MiIhsjAMTP3DHsDuaj9049lR4TPh26ZbCyDyb2TS1buqPWmuPdMtvlFJ4cumT5a06kDqx70TzrUu3bpbuoII7iZNpAH6R7sjHjS64bivKTxCHOCeAikX5OQrpXTfcvMb7r+y6wkR1Qzc7b+0IWKEIte3AxIDBgQkRkY1xYOInEusllnvm+DPVGt/feAUAywwcCurY7mO3vPjwi59Id/xeqWqlStw2+LZd0h15efHhF+36am9AW4zF2QrqKemO/Gjo8UX1sbuhWxiAEUX18X3ANGHy7JIrsPMTwHCE23lrR8AyYdp2YGLjFVlERAQOTPyKI9jhSHk75cY+S/rsMBzGcekeb616bdWdK/+9cpl0x+91ntK5QVSpKEsOTc4ePdtk6+dcZWJHCUh4CcBO6Y58tEpGcsei+MDBCHYBSCyKj+0ji+dj/kbpCCvS0LbdCpiFLA5MbMjOW3IAZEoHEBGR9zgw8UMN7mlQe/KeyUZkyUirnr1xNY6Fjy5seHjrYcv0Gw4DT7z/RDQAU7rlShZ2X3hJuoEKLhWpubD+GRmpvv6ATjgjFNRwX39cH/LA+l8XMRr6lHSDtxRUhHQDecXOXzfbfr8QEREHJn4rrnxc/PTD02s1uLfBd9It3tBax01sPNHIvpB9QrrlN5VbVC5TrU01S77ifObgmRt2fL3jJ+kOKrhEJL4OYJN0R14UVPNkJN/t44+ZAqCsLz+mj73qhttyV51bhQHDtk8AHXBY+c8d5UFDl5Fu8JaGtu2KXyIi4sDErxlBhqPPe31ad32261qllO1WIORm5dae0GDCBljoTBbXYlctZajz0h1XsvDxheekG6jgUpFqamhLn5WhoMbDR7eLdEO3MA09yBcfq4jkOOCYIB1hcbYdmGjo8tIN5BU7f92OSgcQEZH3ODAJAO0HtG866KtBGXY81+TYz8dufSX5lY+lO34TUzYmrMPADj9Ld1zJyb0nm/+y6pcd0h1UcOlIfxfAaumOfDRJRvJdvvhAIQjpCWufXfLiXMy15Pe4VSiok9IN3lJQ5aQbyCsJ0gHeMmBYZqUsEREVHAcmAaJ6u+pVn/r5KTM0KtR2T6i/nf/tbTuX71wl3fGbzlM6NwiNCj0g3XEF6pWerxyTjiCvaA09RjoiP75YZeKEMxjAEN8UFYnMIARZ+uYiK/DAkyHdUAgcmNiQnQdducjlz2UiIhvjwCSAxF8fX/pfB/9VPv76+LXSLQUU+mz7Z+Oscp6JI9iBnq/2tMw2od87uPlg8+O/HLfzk5mAlY70TwF8I92RjyZOOP9WyI/xOICKvogpCgoqbQ7m7JfusDoFZcWB8TWx8xPvAGfbFSYeeGy3upeIiP4nSDrAG93QLXZKiynLFZSOLBlpQkEFBQfpqFJRiCsf54gtFxscVz4uvERiiagy1cuUDQ4PjpRutoqwmLCISbsmNf7Xjf9auWfNnhbSPdfKk+OpPqXllM/GbRp3G3x0lkJhNLyvYcWyNctuPrz9cD3plj8J/k/Kf3b2+7Sflbc8UN5GAVguHZGXy6tMPgKgC/p7u6CLA8BQn0f5zgUPPFOkI+zADfdFJ5wnAcRLtxSUCZMDE3uy69ft3CIssu013EREZNOBiQEjYs+qPW2v9f2VoY6GRYcdjS4TfbZc3XKZNW+pGVbj5hqlE+okVDIchi3/GxSGI9hhDF81vMVzdzz3w0+f/9RSuudaZWzOuH3pjKWfdHiyw53SLQCQ8k5K+dQ6qbmw2PfRls+3NLl4+uLZiNiIGOkWKhg33N+64PpUQ98h3XIlGrppMpJvv7wapkBiEfsQgOpFkOUTGvr5+Zh/RLrDRvbBhgMTBVVJOIEKKBWpRgYy7Hro627pACIiKpyA2JKjTV360plL9Y7uOHrjunfW3fp6v9dvnNBgQrVeQb1y+sX02zL9punLls5Y+u2JPScCZim2Ugr9P+vfstk/mv0g3VIQbw1+q8Xxn49vl+4AgITaCbHVb6puvetgNaLfHvL2OukM8tpoeLGCo7gYMAq8SiQVqYaCGlkUPT5yNgQh06QjbMauPy/L9UGfktIRdO32Y38VAFHSHV7iAdJERDYXEAOTfIRnncuqu3P5zpsXD1rcZmTlkRV6BfXKmNR40jdfzPri2wsnL1jizIyilPx6cst2vdv9AAs/Qfs9rXXcxMYTz2its6VbAKD7y91rQMESLb/3/aLvq5ke05LnrFD+0pC2BsB70h150dC3JiGpQCvTDuFQFwC1iijJF559AS/4/d/3PrZLOsBbWchqKN1A1y4IQY2kGwqBK0yIiGwu0Acmf2F6zMT96/ff9OaAN9s8WfLJ2AGxAza+1P2lL47sOLJHuq2oPPTCQy3vHHHnathkaJJ5NrP5G33f+Ey6AwBKViwZWa9jvS3SHX/myfWU+27Bd2ukO8g7Gno0AFO6Iy8GjMEFeHeloa28uuS0A45Z0hF2o6G3Sjd4y4DBgYmNmDDt/PXiwISIyOY4MMmf49KZSw1WLFrRfmzNsZX6Rffb8nKPl788ue+kXZci56nz5M7Nb+1/q2Wu7r2ar1746qbju49b4gH74/Mfr62Uuijd8WfvjXkvRLqBvJOO9C0AXpfuyEcnF1zXdB6JC657ATQo4h6vaeh/zcXcU9IdduOA4yfphkKw8xPwgKOgLPv3x9UoKG7JISKyOQ5MCiDrfFbd7xZ+d+uIiiPKDSo1aM1n0z9b6snxXJLu8pV/zPxHi1v73bpSuuMaxUxuPvkkgBzxkISYsCZdm1jiXJXfO3f0XOPtX20/KN1B3lFQqQBypTvy4NDQg67lHU2YVl5dcjQTmc9JR9iRgrLzwMTOWzwCkW2/XjnIsdwKVCIiKhgOTLxjnD9+vtnbQ97u0Cesz7k5neZ8cfrQ6UPSUb7wj1n/aHHDgzfY4iDYCycvtF4ydokltuY8POfhespQ56Q7/uzlni+LD5TIO2lI2wlgkXRHPh5zwnldfu/ghLONgmpeXEFeePoVvHJBOsKOLq/KOSzd4aXafdE3VDqCrq4nesYDuF66w0tHX8SLGdIRRERUOByYFJI2dekN721oPyxxWPzEhhO/3rtmryW2iRRG0mtJLet1rGeLocmHkz5sdebQGfE9wpHxkcFtktpYbuntiV9OVJJuoEKZCCBLOiIP4QBc+b2Dhi7IWSfF7VAkIudJR9icXW/jCslBTivpCLo6A8Yt0g3eUlB2/f4gIqLf4cDEd0IPbDzQbvINk2sNrzD8h93f7d4sHVQYT3zwRMuE2gnWPzRUI35Kyyl7YIEDax+Y9kA9wzDOSneQ/3DDvU9Du6U78tG7C7pc8awcF1zVFdQ9xR1UABOfxbN+s6VSiG3OvfozE+Zt0g10dQaMO6QbvKWhOTAhIvIDHJj4njp14FTLf7X5V70hZYb8uOvbXbbcv6oMhdHrRzcuUZuziLoAACAASURBVLbEJumWqzm171T7NW+s+VK6IywmzNG0a1Px1S7kX3KROxHAeemOPCTGI75rHr82ANb9GbP3FE4tkI6wOwVl24EJgNulA+jqNLRtv04aeoN0AxERFZ5VH8z6hbNHzzaZ1nZanVFVR313dPfRfdI9BRUUEuQYt3lcteDw4D3SLVez8LGFFcxcU/xJZddnu9ZVSll1CwXZ0EIsPKahX5DuyIuG7v/nt/VEz3gN/bhEz7VQUOMXY3G2dIfdZSN7tXRDITS52hk8JMsJZy0AFaU7vKWg1ks3EBFR4XFgUvTU8Z+Ptx5TbUzJeQ/MW5p9MVv8SX1BRJaMDB+7cWyE4TBOSLfkJzc7t8Z/+vxHfJVJTNmYkGo3VbP9OTZkLSbMfwE4I92Rh2YuuP5wHoQBoweASKGeq9mRgIRXpCP8wUIsPAbAcmc3XSNDQ3eQjqB83SkdUAjH3HBb7vY8IiIqOA5Mik/kurfXdegf0//0dy9+9510TEGUrla69BPvP2GJK3zzszx9eZtzR8/tke54eM7DlQGY0h3kPxZgwUkNPUO6Iy8a+veHvyoFlSQWcxUKKjUVqVa9rtmOvpYO8JaCsu12jwBh2/NLFNRXsMDZakREVHgcmBQz02OWf7nny62HVxi+6sTeEweke65V3Y51q98x9A5r78fViJ/ZYeZP0hkJdRJKJNRJEO8g/xKM4BkAjkp35KFrL/SKA4AUpLQDUFO4Jy9bEpDwhnSEP1FQ4iv7CuE+Xi9sTSlIKQ2gvXSHtzS0nb8viIjodzgwEXLqwKnmoyqPin5/3PtfwCavQtw/9f5mlW6oZOk96wc2Hbhj17e7xFfw/PP5f3JvPPnUHMw5D2C6dEcewj3wPAoAJsxk6Zi8aOgxqUjl6i8f8sDzOWzyM+wK4jORebd0BP2VCfNRAMHSHd7ywPOFdAMREfkGByaCtNYlPpjwQfsRFUesOHf03GHpnmsx+JvBjSPiIqy8L9fxwr0vmBDeElPzlpplYxJidkg2kP/JRvZsAAelO/KQ0gd9SgK4XzrkShTU2nSkvyvd4W/mY/4RALZdUaegHpNuoCuy89dl/wIs2CUdQUREvsGBiQWc3Hey9dCEoVj171UrpFuuJjgsOGjk2pHXKUNZ9QBKXDx1se26/64TXw7beXLnIOkG8i+LsCgTwBTpjjzUzkGOG0CYdEgexsK+KyGs7nPpgELoeHn7B1lEClKaA2gg3eEtBcXVJUREfoQDE4swTbPsgkcWtJrRYcanpse09OGqpSqXKvlI2iOWPn9l4WML4yB8SG3LR1pWCQoOOibZQP7nFE6lA/hFuiMPllxdAmBFGtI+ko7wY0ukAwoh2APPP6Uj6H9MmD2kGwqJK9mIiPwIBybWorZ/sf2OwWUGbzpz6Iylt+i0SWpTt0qrKqukO/KSdSGr6bcLvl0q2WAEGWjSpYlVt0+QTS3G4mwNPUm6w05MmGOkG/xZIhKXA7D01fP5UVA9ASjpDgL6om8MgAelOwrhooa284orIiL6Ew5MLOjCiQtNhlcY7tn17a710i35GfD5gMbB4cF7pDvy8lqf18pprTMlG+6deG8N8Iph8rHTOP0SgG3SHXagoJbPx3zxLXr+LBWpuQrqfemOQqjvgouHv1pAJjL7ACgh3eEtBfWpG+6L0h1EROQ7HJhYlOkxy01rO63acvfyb6Rb8hIaGRo8aNkgB4As6ZYryc3KbfD59M9FX+kpVaVURKmqpfjElnxqMRZ7NPR46Q6bGC0dEAhMmO9INxSGCZN/ToQ54YxQUAOkOwrD7t8HRET0VxyYWFvUq65XW7/c8+VPYdHDCis3r1yhdc/WG6Q78vLOqHeqa61FX+25e9zdEZKfn/xTOZR7E8BG6Q6L+zgNaZYdOvuTKER9DuCsdIe3FP6vvTuPj7q+8zj++s5MSMJ9IwGkUkDECwmgrgdKa209elhxW4+uCpkga2vdbuvaVp3W7WqrLa3UkPwCSmVbj9h6V4u26K4nOogoeLAc9QiCGG7IMZnv/kFsMQYrZGY+c7yfj0f+qTWflyhh5jO/3/fnJlVSeYp1R4GrBHL5AN5EkuRD1hEiIpJaWphkv/BTtzx16k+P/elj3vtW65iOnDfnvImlPUuz8hF6yZbkmEU3LzK9HH/S1yd9KlIc2WjZIPknRizp8TqbY++8zi7JnFnM2gXcZd3RGR7/A+uGQnUhF5YA37Xu6KRH5zGvwTpCRERSSwuTHLH62dWnXHPwNU8mE0nTMzk6Ei4Ku8sfu7wU46fS7M29V9w7CEhYzQ9FQkw4Z4IOf5WUq6X2AY/P2sOXLTncvXOZG7fuKDC/sQ7opMkVVEy2jihExRRXAIOtOzrD4+dbN4iISOppYZJD1q9cP/kHI34QTzQldli3tDd84vAh5WeXL7Hu6EjTzqaJL93/0iLLhjN/dOZosvS2KslpPkRIZy98VBLQGS8ZFhA8Cbxu3dEZDjdrKlPD1h2FZDrTB+XBmUwNJZTcZx0hIiKpp4VJjml4q+G4K4df+UqiOfuWJhctuGhCUWnRX607OnLbtNsilvP7H9S/tFdZr6y8bUlyWw01jwKmC8EsdEcNNVl7tlKe+611QCcd1ZveF1tHFJIQoRuBPtYdnfS72czOygPwRUSkc7QwyUFb1289+vvDv7880ZTYZd2yp6KSovD0301vtu7oyPaN209au3jt05YNx08/PitvWZLcFyKkszr+rhW41jqiUCVIzCNLb8/8pBzuupnMPMC6oxC03QJ1nnVHCtxqHSAiIumhhUmO2vLulklXjb5qSbadaTLuy+NGDRo96EXrjg64eefP22wZcPKlJ4/G8CwVyV/VVD8FPGzdkSVuCwj0KG8jt3BLPfAH645O6pcgcbN1RL77Jt8sdrgawFm3dNLSgCArb0kWEZHO08IkhzW82XDcteOufdp7n7Ru2dOlD156IJBVixyADSs3TNn67tZXreb3GNAj0v+g/iut5kt+a3siTKGfk9McIvRj64hCFyI027ohBc6qoCIfrnzIWk00xYCDrTtS4JfWASIikj5amOS4+uX1U359xq+z6pPlgaMG9pv49YnLrDs6UHLX5XeZfvJ80syTdJigpEXbE2Huse6w5HBzq6lea91R6NqueHrBuqOzHK46SnSMdUc+qqDiDOAK644UWN9M853WESIikj5amOSBV/74yun3/Mc9C6079vSNud84KlIUWW/d0V78rvjh3nuzA3OPm3bcSOdcTt/fL9nL469m9xkehajR4f7LOkJ2c7h8uMqkO3B7lGhX65B8EiX6aYdbQO7figMwez7zs+6KWhERSR0tTPLEIz99ZMri3y1+0rrjA126dik6/erT66072ksmkyMX/3bxE1bzu/bpGhp8yOA3rOZLfquldjlwu3WHkTnVVL9jHSG7efztwBrrjhQYByyIEdPrpRS4kAtLgLuA3tYtKbCziKJq6wgREUkvvQDIH5F55887bN2r67Lmzfjnr/z8uKLSorXWHe39/nu/L7KcP+VbU0ot50vei5HjTynZDztChK63jpC/CwhaHC5f/p2cVU+9nrzUea6IohpgvHVIKjjc/Ju5+X3rDhERSS8tTPKJp/dPjvpJsnF7Y1b8AR4Kh9zZPzt7m3VHe1vWbZm8+Z3NZmesTPz6xBG6LUfSJSBY5XDzrTsyyeFuqqZ6g3WHfJjH3wq8ad2RIt+vpPLfrCNyWQUV1zncN6w7UqQxTDhfFoIiIvIxtDDJMy1NLWOuPeLa5UBWPDln8szJh5f0LFll3dFOl9svvf3/rIaX9Cyh3/B+q63mS/4LE76WLHxSVZpsSZC40TpCPqrtKpO8+Xfj8TdGif6LdUcuqqTyCofLh0NeP1BdRdVb1hEiIpJ+WpjkoY1rNp5Y9526R607AFzIcW7VuVl3NcWy+5cdiuEbyvFTxyesZkv+q6LqLYerse7IkFnzmNdgHSEda6ChBsi2pfn+csCtUaKXWofkkkoqr/D4fLoaY0eSZD7984iIyMfQwiRPPfaLxyavfnb1S9YdAEefd/SY0l6lZld0dCSZTB78+qLXn7Kaf+yFx46wmi2FoZXW6wCzJ0JlyPvFFM+yjpC9q6OuGbjauiOFHHBTlOh3rENygIsS/WmeLUsAfjmXuVn3FEAREUkPLUzyV8nPT/p515adLVutQwDO/PGZu6wb2rv3B/eana9SNrastLhb8Tqr+ZL/5jJ3vcPdZN2RTg53w2xmZ8XPONm7MsrucLi4dUcKOeDGCirmxIhFrGOy0YVcWFJJ5R3A96xbUqyhmea8uc1MRET+MS1M8liiKTFq1qmznrHuADh55smHR4ojWbUgWPPsmvHee7M3WweffPB7VrOlMIQI3QBstu5Ik/U72flr6wj5x2LEkq205tsbZxxuRj31C2cy8wDrlmwSJXpgEUVPePw51i2p5vFXzWd+vv5MFRGRDmhhkudWPbnqlJcffPlZ645QJMRnLvtMvXXHnrz3By69d6nZbTn/dPE/DbSaLYVhDnM2Ab+w7kgHj79uAQvy/ZajvDGXuX9xuHusO9Lg5ASJF6czfYp1SDaopPI0YInDTbJuSYMXN7O5UM6GEhGRNlqY5L/QnLPm9G/Z1WL+icgZ15wxLhQObbLu2NP9V91vdiDtYV847AAXcoXyJBMxEiEyC8i3R+7Wd6d7YB0h+yZM+DJgu3VHGhwQIvRYlGjNTGZ2t46xECXaNUr0Vx7/INDPuicNvMN9u466VusQERHJLC1MCkBrS+vIqq9Umd+a06Vrl/C4r4xbad2xp/rl9UcnW5Mmt8YUlRQxaPQgPV5Y0qqKqu3Az6w7UuzHs5iVdeciycdrewxrzLojTRwQTZB4qZLKM61jMilK9MvACuBb7P51yDsev6CGmv+x7hARkczTwqRArPjTiinvvPzOK9YdZ1131mggad2xh0Ev3PXCYqvhh59+uLeaLYWjG92qgKy6Ja4T1gC3WEfI/imj7FfAMuuONBrh8fdHif5xOtOPsI5Jp0oqx0aJPgzcAwy37kmjzUUUXWEdISIiNrQwKRzFPz/p59sxXlYMGDmgd79P9Vtu2dDeX375l2ar2eO+Mm6Y1WwpHG1XY/yndUeK/CggMLuVTjonRiwRIlQBJKxb0uwLIUJLK6i4t4KKidYxqTSNaSOjRBd4/MvA56170s3hvllF1bvWHSIiYkMLkwKyo2HHMU9UP/EX644zrj4jqx7DuPaFtQcDTRazD5p0UE+dYyIZMhfI9VvA3iij7LfWEdI51VQvBq6z7sgA53BfcrjFFVQ8meu36kxnenmU6G1hwq8C51MYryHvraHmv60jRETETiH8YSd7uOPSO0a0trSaHrp3zAXHHBIuCmfNIZQ+6ceue3WdyW054aIw/Q7s91eL2VJYAoIWj7/WuqMzHO7qGLF8vzKhIJRR9mPgeeuOTHG449pu1VkeJRqroGK0ddMnESXaq5LKaCWVL4QIvQBcAGTVhx5p9F6IUKV1hIiI2NLCpMAkW5Mj7v63u00PLgtFQoyfOj6rlgQLb1i43mr2mM+O0e0FkhGb2bwAeM26Yz8tG8zgOusISY0YsYTHXwQU2hV2Y4FrHO71CiqeixK9fBrTsur8jyjR/hVUXBwl+iCw3uNrPL7cuivTHK6imuqs+XBHRERsaGFSgBbdvGh8044mkyfDfOC075/2acv57S25e4nZYxCP+spRB1jNlsJSR12rx19j3bGfrokRy6YDo6WTaqld7vHfse6w4nCTgF+ECa+NEl0bJbogSrSygopDyeDTZmYwY2AFFWdEif4sSjQOrHe4ecDpQHGmOrKJx1fXUHOfdYeIiNgrlMsqZQ/e+wNum37bQxW3V5xu1VB2aFnf0l6lq3Zt2ZUVi5PGbY3HNG1vWlncvXhUpmePmjyqv3Mu4b3X70dJuyEMubue+qXAOOuWffBCQKA3L3moltqqKNHjgHOtW4wNb/s63+GIEn3f4V4CVnn8amBVkuTqBIlV85m/eV+/eZRo1xChEa20jnC4EcBBDjfC4w9Pkhzu8vNpwPvruRJKvm0dISIi2UFv0ApU/M74MRfUXvBeSfeSAVYNR59/9KbHb37canx7pc/99rkVJ1aemPGFSXG3YroP7P7mtvXbRmR6thSeGLFkJZVXe/z91i2flMNdBegR3HkqQqQyQWIcu29Xkd36efwUYMoH/0OIEF3oQpToTnYfVL4JaHS4XR6/2eOTDuc8vqfDFQM9gG5ACdArSZI9FyNev6U6siFCZOpsZpscBC8iItlHt+QUKO99v7rL60wP3Pvcv3/uYLLoTdBzC54zO0xy1PGjdljNlsJTQ80DDvesdccn9GQNNY9YR0j6VFG1PUnybMD0QPIc0hXoA4wAxradL/IZhzsF+GzbrT5Htv31QUAvs9LckgC+VkXVW9YhIiKSPbQwKWBP3/L04a0trVus5vf7VL8ePQf1zJoDKNc+v7YMowXO6JNHd7OYKwXth9YBn0SI0FXWDZJ+c5n7qsOdC7Rat0hh8vgrA4JF1h0iIpJdtDApYMlkcthD1z70tGXDpHMn7bScv6dEc2J8867mlRazRx4/cojFXClcNdT8Gcj2NwePVVP9uHWEZEYNNQ8A/27dIYXH4+fVUnujdYeIiGQfLUwK3MKfLRyO4Sd6J1ScMNJqdgeKlz2w7HWLwUMOHVKMo9lithQuj8/qq0wc7mrrBsmsgOCXwM3WHVJQHh7CkBnWESIikp20MClwLU0tY1c8uuIZq/kHHHJAry5du7xtNb+9Z37zTKPF3FAkRPe+3ddZzJbCVUvt08BD1h178VANNWY/m8ROGWXfdrgHrTukICyJEDknRszsDDMREcluWpgId37rzl2W80efNDprFgUr/2el2VODyg4t22o1WwpXkuR3gRbrjnYSwJXWEWIjRizRQMNXHe5P1i2S195JkvxSFVU6bFhERPZKCxPh3dfePW7H+zvetJp/YsWJ/axmt9e0vekon/QmJ+SPPH5kkcVcKWxzmfsqMMe6Y08ef1NA8LJ1h9ipo67Z488CnrRukby0PknylLnMzZorXEVEJDtpYSIAXR+IPWD25uTQ0w4dgSNbHqvb662lb5mcYzJq8qhBFnNFgKsBkwOPO/BqK60x6wixFxDsDBP+IrDUukXySr3Hn9i2LBYREflYWpgIAE/f+vRAq9mRLhH6Duu7xmp+e8seWLbJYu7wCcP7WMwVCQi2AF8EthmnbHO4s2/hFusOyRJzmLMpTHiKxy+2bpG8sN7hTqml9g3rEBERyQ1amAgATTuaJmxYuWGZ1fyxp4w1OWy1IysWrnAWc7v17UakJLLRYrZIQPCax08FrB71vc3jz6yhZoXRfMlSc5izqYWWU4HnrFskp60LE56snzEiIrIvtDCRD7j7fnifydkdAOOnjje7wqW9d15+x+xMlZ4De5pc3SICUEvtnzz+NGBzhkdvCBH6bC21T2R4ruSI+czfXEzx5xzuf61bJCe9AZwwhzkmt9yKiEju0sJE/mbpfUuHAd5i9ujJo4fhaLaY3V7jtsZRZP4NIwD9R/Rvspgr8oG2pcWRwKIMjXwMGFdNtW65kI81m9lbd7LzC3rksOyjZ4DjAoJV1iEiIpJ7tDCRv0k0JQ5/f+37JpeqFpUUuV6DemXLi5mhm+s3m/w6lI0tC1vMFdlTQPBmGWWf9fivA+k6EHq5w51bRtmpAUHWPFpcstsCFuxooOHLDldl3SLZz+Hu6Ua3zwQEut1VRET2ixYmsif351/9ea3V8JEnjNxuNbu95Q8vf9di7tAjh3azmCvSXoxYspbaOwKCI4Ep7H708Dud/LbrgBqPP6WMsiNqqLk9RizZ6VgpKHXUtdZQ868e/11A//3I3tzUQMPUWczaZR0iIiK5K2IdINnl+d893/OcWeeYzB4zZUy3eF3cZHZ7r/35tebjph2X8bllh5UNyPhQkY/nA4JF7L5FZ+ZMZh7QQsuRIUJDgV5AryTJ4vZ/U4hQE7AF2JIk+bbDLdOVJJJKtdTeWEnlao+fD/Sw7pGssQu4JCD4jXWIiIjkPi1M5EO2btg6vrWldWO4KNw/07NHTx49NNMz9+btZW93sZg7cNTAUou5Ip9UFVXvAiZXYIm0V0PNHyqoeMXhfg8cZt0j5t7y+K/WUvu8dYiIiOQH3ZIj7XVb8egKk/M7Bh08qKcLOatHmn5Iw1sNvSzm9hjQg1A4lBW/BiIiuaCW2jciRI4F7rRuEVOLQoQmaFkiIiKppIWJfMSz85/dajHXhRw9+vcwe7Txnpq2NQ0Gm6f2dO3d9X2LuSIiuaqKqu0BwdeAS9l9S4YUlqTH/7Ca6g3WISIikl+0MJGPePXPr/axmj3kiCHbrGbvyXt/kPf+rxazew/pnTWH34qI5JKA4GZgPPCCdYtkVMjh7q+kcqx1iIiI5BctTOQjdjTsONwn/RaL2Qcdc1C2nKtTunH1xrctBvce0ltPfRAR2U8BwWtllB0L/Ahote6RjOnn8QunMW24dYiIiOQPLUykIz3fXvb26xaDhx01rKfF3I6sfX7tZou5vct6O4u5IiL5IkYsERDEPP5Y4EXrHsmYIWHCj0SJZvzgehERyU9amEiHXnnolY0Wc4ceMfQAi7kdWf3M6iaLuX2G9TF5Qo+ISL6ppfb5MsomOFwlYHI+l2TcGOCPM5nZ3TpERERynxYm0qHlC5d7i7n9P9W/K9BiMbu991a+ZzK3z7A+erSwiEiKxIgla6gJIkQOA35v3SMZMTFB4vdTmaoPIEREpFO0MJEOvb3sbZODX0OREEWlRVlxyv2mdzaZnKfSZ0gffSomIpJiVVS9FRCcDRwDPGndI2n3ub70vWMqU8PWISIikru0MJEONW5pHIbRYXk9B/bcZDG3vW0btpVYzO05uGcPi7kiIoUgIHguIDjB4b4IrLLukfTx+K/0pvevrTtERCR3aWEiHfLeD2ne2WzylJi+B/Y1OTukvZ1bdnazmNu9f3f9vhQRSbMaah4ADnG4fwHesO6R9HC4GVGi11h3iIhIbtIbM9mbUP0r9fUWg/sM7WNyfkp7icZELyDjLT0G9MBirohIoQkIWmqoua2MskOAc4DXrJskLWIVVFxmHSEiIrknVxcm26wDCsGaZ9dssZjb58A+WXG/sfd+AJDx24PCRWFCkdD2FH27nSn6PiIieStGLBkQ1G1i02HAOR7/lHWTpJbD/aKCinOsO0REJLfk5MLkFm7ZBqTqDaXsxV9f/KvJ02r6De9XbDG3AwMAkwNoI10ijan4Ph5vcpWQiEguqqOuNSCoq6X2+BCh8UAA7LLukpQIOdx/V1BxqnWIiIjkjpxcmLSJWwfku4a1Dc5ibp8D+5icHdKBkl1bd222GByOhBMp+lbLUvR9REQKSjXVLwYElREiI4DvASusm6TTihzu7goqJlqHiIhIbsjlhcm91gH5bvO6zV0s5vYd2reXxdyONG1rMjmANlyUmoVJiND9qfg+IiKFqoqqdwOCGwKCQz3+MI//KfCedZfst+4O98fpTD/EOkRERLJfzi5MwoR/g8H5EoVk+3vbSy3mdu/fPWseq9u0rcnktqRwl3AqHun8RDXVr6Tg+4iICFBL7fJaav9jE5sGAycANwG69TH39A8RWjiNacOtQ0REJLvl7MJkDnM2AT+27shnzTuae1rMLSotyopDXwEatzc2W8yNdIl0dmHSGiL0vZTEiIjIh7SddfJkQHBZGWXDQoSOB24AlgJJ4zz5ZIaGCT80jWl9rUNERCR7RawDOiMg+FWU6DHAP1u35KNES6KrxdwupSZ3AnWocXtjKq702GeRkkhnX3BfWU314pTEiIjIXsWIJYGn2r6IEu0PnOzxUxzuZOBgyz75WIdGiDx0ARd8dgELdljHiIhI9snphQnggYuBYuDLxi15xyd9icXcSEkEdn9CZ34FVOOWxlQdvrpPikqKOrMwuT4guCFlMRnm8S0Ol9WHOnu8ya1akrN2Zvt/05I6AcFGoK7ti0u4pE+CxKQQoYkePwmYCBxg2bgPmth92O0rwMtAL+AHpkUp5vHHlFJaFyX6pYBAP9s/alWu/fzyeJ0xVKBy4TXkXujWzixm8hSUVIsRC9VT/z12/yHe3bonjzTU+Jpu7F5IZdSM0Ixd3nuTM1T2dPFtF9cdfcHRUzM99/pjr39tzbNrxuzj37bO4S6voebOtESJiEhKRIn2T5I8xOHGAGMcbiwwAhgGWPzZ9w6w6oMvj1/p8S8PZejKGLEPfXBQQcX1DneFQWNaOdxvBzP4G21XDImIiAC5f4UJ8LfLYa+fzvRbQ4QuYffVJkcaZ+WDbsAODBYmhGii1eRF44fs3LLT5IXTPtyW5IG4x9/ZSOMcXVIsIpL92q5C+d+2rw+JEu3v8UNDhIYBQzy+L9Ab6NP21dvhegN4fARof1B6wuG2ebwHNgM4XEPbp+4bHe59YCOwIUny3e50Xz2LWbs+aXsttVdGiQ4Bzt/Xf+5s5vHn1VP/PnCZdYuIiGSPvFiYfGAuc9cDMSB2OZeX7mBHWZJkb+OsXNcCFGV6aP9P9w+vf2O9yfkhe+rStct2dh/kl1Hd+nYrA/Z6S5THNznc2620rp3HvIYMpomISBq1LVM2svsA2WzkgYsdboDHn2odk2LfihLdEBD8xDpERESyQ17ckiMiIiIimXMxF/eIEHkCOMq6JdUc7ls11My27hAREXtamIiIiIjIPruIiwYUUfQ0MNK6JcWSwNcCgjrrEBERsaWFiYiIiIjsl2lMGxkm/BQw0LolxZqBMwOChdYhIiJix/yxrSIiIiKSm+Yx7/9ChM5k9yHx+aQLcPd0ppdbh4iIiB0tTERERERkv1VTvdjjvwYk/uH/Obf0CBF65BIuOdg6REREbGhhIiIiIiKdUkvtgw73r9YdadC/ldZHZzJzmHWIiIhkXtg6XN4qMQAABKVJREFUQERERERyX5x4vJzyIuBE65YU65Uk+blxjLvjRV7cZR0jIiKZo4WJiIiIiKREnPiicsoPJP8eNzwwROiksYy9fRnLWqxjREQkM3RLjoiIiIikigcqgUesQ9Lg6FJK74wSLbIOERGRzNDCRERERERSJiBoAb7qcM9at6TB6Q53a4yYXkOLiBQA/bAXERERkZQKCHZ6/JnAG9Ytqebx59VT/yvrDhERST+dYSIiIiIiKRcnvrOc8oeBfwa6W/ek2KQJTGiME3/KOkRERNJHCxMRERERSYs48U0TmPA4cC7QxTgn1T5TTvk7ceJLrENERCQ9tDARERERkbSJE6+fwISX2H2lST7dDu6A08czfvkSlrxqHSMiIqmnhYmIiIiIpFWc+MoJTKgHvmjdkmIhh/vyBCY8Fye+2jpGRERSSwsTEREREUm7OPEXyyl3wEnWLSkWBr5UTvnCOPF11jEiIpI6WpiIiIiISEbEiT9eTvkAYJJ1S4oVA2eNZ/x9S1jyvnWMiIikRj7dRyoiIiIiWW4Tmy4D7rXuSIMBDvdwlOhg6xAREUkNLUxEREREJGPqqGvtRrdzgaetW9JgBPCnS7ikj3WIiIh0nrMOEBEREZHCEyXaH3gSONi6JQ2e2cWuUxawYId1iIiI7D9dYSIiIiIiGRcQbEyS/ALwrnVLGhzbla53xIhFrENERGT/aWEiIiIiIibmMndNkuQZwHbrllTz+DPqqb8VXdEtIpKz9JQcERERETGzhCXrjuKo5xzu6+Tfa9MjyikvjRN/zDpERET2Xb79oSQiIiIiOWYJS9aMZ/zbDvcl8u+KjOPKKd8eJ/6MdYiIiOwbLUxERERExNwSliwtp/x94DTrljQ4ZTzj31rCkhetQ0RE5JPTwkREREREskKc+OJyyrcAn7duSTHncGdMYMIrceKvWseIiMgno4WJiIiIiGSNOPFnyynfCUwhvx5QEAK+WE75E3Hib1rHiIjIP5Zv94iKiIiISB6YwYyTkiTvBAZat6TYFo8/qZbapdYhIiLy8fJpay8iIiIieaKa6sdDhI4G8u2w1F4O99B0ph9kHSIiIh9PV5iIiIiISDZzUaJnAz8DPmXckkqrIkSOr6LqXesQERHpmBYmIiIiIpL1okS7OtwMj58GjLXuSZElxRSfPJvZW61DRETko7QwEREREZGcMp3px4QJX+DxpwCjrHs6aVEzzafNZ36jdYiIiHyYFiYiIiIikrNmMGOIx58MTPD4w4AjgAHGWfvqD5vYdE4dda3WISIi8ndamIiIiIhIXrmIiwZEiAxxuCHAYIfr5/E9PT7scD2BsHVjB+4ICBZZR4iIiIiIiIiIiIiIiIiIiIiIiIiIiIiIiIiIiIiIiIiIiIiIiIiIiIiIiIiIiIiIiIiIiIiIiIiIiIiIiIiIiIiIiIiIiIiIiIiIiIiIiIiIiIiIiIiIiIiIiIiIiIiIiIiIiIiIiIiIiIiIiIiIiIiIiIiIiIiIiIiIiIiIiIiIiIiIiIiIiIiIiIiIiIiIiIiIiIiIiIiIiIiIiIiIiIiIiIiIiIiIiIiIiIiIiIiIiIiIiIhICvw/71iLPQKPiAwAAAAASUVORK5CYII=;labelPosition=center;align=center;fontColor=#FFFFFF;fontSize=30;fontStyle=1;imageBackground=default;" parent="1" vertex="1">
          <mxGeometry x="-429.68" y="211" width="118.37" height="30.13" as="geometry" />
        </mxCell>
        <mxCell id="wImkBHEnD4N6jClxrFpg-122" value="" style="shape=image;verticalLabelPosition=bottom;labelBackgroundColor=default;verticalAlign=top;aspect=fixed;imageAspect=0;image=data:image/png,iVBORw0KGgoAAAANSUhEUgAAARYAAAEWCAYAAACjTbhPAAAACXBIWXMAAA7DAAAOwwHHb6hkAAAAGXRFWHRTb2Z0d2FyZQB3d3cuaW5rc2NhcGUub3Jnm+48GgAAIABJREFUeJztnXt4nVWV/z/rPSdtU9oKBZRCAUHGCwhekEubkxJmkLFAoUkaBIQRcARhFBQGy63NTgtCBVHAK8IMgrdpmqQUsYIIoTlpBcELSPH2UwQEFNtCW9q0Oe+7fn/kpLRpLid7vUkK7M/z+DzSnr327jnvXu++rPVdEAgEAoFAIBAIBAKBQCAQCAQCgUAgEAgEAoFAIBAIBAKBQCAQCAQCgUAgEAgEAoFAIBAIBAKBQCAQCAQCgUAgEAgEAoFAIBAIBAKBQCAQCAQCgUAgEAgEAoFAIBAIBAKBQCAQCAQCgUAgEAgEAoFAIBAIBAKBQCAQCAQCgcAQIiM9gIE4qM6N2qXAnRLxg7Ymt3ikxxMIjBSVtW6mJpy6cfdJpz92y7mdIz2e/siM9AD6o65uYaYQv3QnwkeBun0PPPqlZ55qfXSkxxUIDDe5Wnc2yh0IB5dtWP/e/d9W1fT0063JSI+rL3ZYx1JXtzDzQrzyDuDU4h9FwPH7HFhV/sxTrT8bwaEFAsNKrrphNnAzXXMA4D1JOQfu/7aqlh3VueyYWyHnotzj3A6c0dtfi/KdDbtP+uSOvhwMBCwUX65fB87p4yN35A/hLJzb4ZzLjrhikdzEqm8DZ/b9Cd5ftnH9B3Y/oOquF/7QGpxL4A3HoTPc2I7opSZeW7H3xvv2/jt7PftU64+Ga1ylssM5llyNWwB8poSPvnNUhmP3fe+xi59Z+bMNQz2uQGC4mFLnJo4SfgwcM9BnBT6473uqRu1oxwM7lGOpqGk4V+CaQTTZC41r9npv1Y+fW9m6esgGFggME1Uz3duBB4APDqJZ5b7vOXr1M0+1PjI0oxo8O8wZS67anYCwGD9n92Ik0XHLmub+Ku1xBQLDxdRq995IWApM9mgeg9Tlm+tb0h6XDzuEY5laM++wiORBYCeDmfUiMqutqf7etMYVCAwXFTUNRwvaArzFYGZjotG/LW+ZuyKtcfkSDfyRoWVKnTsgIrkHm1MBGKeqd1VWu1PSGFcgMFxUVrtTBF2KzakAlEeS3DV15vx3pDEuCyPqWCpOXDA+U+AuYPeUTI5W4fuVNe7zKdkLBIaUXLW7QIXvAaNTMrl7JPE9x9Rda3VSJkbSsQjZjf+LcGDadhUW5GrdjTg34iuyQKAPJFfjHMKNpD0PhXdtTDq+M5LP/4jdCuVqnBM4bwi7OGKfv3PQ/kdU3f30r1sLQ9hPIDAoDqpzo9717qo7KC2swguBd+/9d4mffap12VD1MUD/w09FjTtRoIVhWDEpPFDYSPXDS93aoe4rEBiIqjo3rhDTCHxkGLpLUE7Kt7hhD6AbdsdSUTf/XRLHD2M/qCod4Yk4yk5f0Xjl34atz0CgB0ecePXbyrKdP2ZwMSpW1kmGI9sa3cph7HN4z1gOneHGSiFuZjidCoBycCYuLJtWO/9fhrXfQKDItNr5/1KW7VzO8DoVgPEas3BK3Q3lw9npsDqW8lF8ZQgOa0tl/0Tjn0+b5aaOUP+BNylTa+YdlmicB/YfoSEclInXfmk4Oxy2rVBFtasRoWm4+uuHVwX5aFtz/T0jPZDAG59crTsGpRkYP9JjUeGj7U1u4XD0NSyOparGTY7h1wq7Dkd/JRCLynltLfXfHumBBN645KrdfyDcCpSN9FgAENYQ8f58o3tmqLsa+q2Qc1EB7tiBnApARkW/latxbqQHEnhjkqttuBDhdnYUpwKg7EKB79bVLRzyMJMh76Bi4tFXCpw91P14IEDVPgdW7f7MR6t+QmurjvSAAm8AnItyu1bdjDKXHSQXbxuEfdfzz83PPNXaNrTdDCGVte4QVX4BjErDnqqcjmiVwH+mYW8rFseZCaetaLxoY8p2A28ipk+/afS6MavvQDg5ZdN3gvwU9I6U7BUiiQ4fSjWAIdsKVVW5rCq3kZJTEeH69pb677U3u3OAhjRsbsXMTLz2gcOrv7AjbdcCryOqZrqd15avvi91pyLclG92H88319+pwpdTsppVTb41lFuiIXMshV35b+BDadhSeCCzisu6/zPf7JwKnwHS1Po8chSbl0076aq9U7QZeBNQWXP1pEJEq8C0FM0qyH/nm9yFXf8fylbxeZTWlIwf9nxh5efSsNUbQ7IVKkbX/hoYk4K5Z7KdHNp6t/tnz7/IVTfUIXon6WWGAjwrGT4y3JGKgdcnlXXuQI35CZDmC2mTwOltzW5Rz7+YWu3eGgmP4ScG1ZONcYZDVjS6P6VgaxvSX7E4F0kh/jbpOJWCEJ3Wm1MByLfUN4pG/w68nEJf3eytCfmKWfMqU7QZeANSUeOO1JiHSNepvCwa/XtvTgVgeYv7h0bRaUCcQl/lmZhbGYIFRuqOpfIJORchrUnZ0NY8t72/D7S1zH0oiqNpwPMp9QnKLpIk91bWupmp2Qy8oaisdTOlS5t2txTN/i2Ko2ltLXMf6u9D7YvmtoHMT6nPoyqrG9K+DEnXsUypcxNVdV5K5h6alDmwJGHtZXfNfUILHAY8nlLfAOWqLKqsbRhKaYfA65BcrTtblUYgzfybp8gwddldc58o5cP5Q3S+djk2Myp6bdoXF6k6lkzMfFLw4AKr4kz2Y42NJ5e83Gtf4p6PMxwNLLf2vxUZVf16ZY2bx44YkxAYbqSyxs2j67Yzm6Ld5XGG3KAiYp1LyuDjCGtS6H/iqGjz3BTsbCG1yVJRO+8g0eTXpPCFi3JqW4v7oU/b6dNvGr2ufPV3gVnWcfQYU6i++CamhKqEXggs2dDJqY/d7bxqY1XWutNVuTOFocRRHH2g1BXTQKS2YpEk+SopOBUV7vJ1KgBLl16waVLmwFNE+KZ1LD3G9fHyf75wT8WJC0Y8mSwwvBw6w419IVm5mJSdCvC/mdXU+joVgLYm910lleTeTJxJvpKCHSAlx1JR605GqErB1D+iaNQnrUYaG0+O25rceUDaBZw+LNmN16VsM7CDU17GDSgnpGz2kXyzO7u11ZllUwuFsv8Cer05HQwC/1pZ21BrtQMpOJbp028aLcoX0xgMKp9ua7z8pTRM5aobzgIOT8PWVuQ7NxIqALzJGJMZMxvo93bSg8Mra9yZaRh6eMkVfxdNRz9XVa87qM6Zo+XNjmV9+ZpzgH2tdoCf5FvqG1OwQ6563vsQ/WoatragtGYzTA/auW8+7m+89JWNnRwL/DRNuwrfyM2cd2gatorHB2loDO03MZFPWI2YHMuxZ1y3k6KXWwcBbMgm6Sj2T6lzE5GkBRibhr0iP8m+hemtjW59ijYDryMeu9ttyE7gRFHuS9HsGKJkYe74a3ZJw1iSZC4EzIm0qnqlVcrS5Fg2rN/waWAPiw0AhPmti93TZjsgmYTvAPulYKsLpTXOTKhpvd11pGYz8Lqk9XbXsaFAtUKaJTX21zGb/jcNQ8sXz/l/iFydgqk9o8La/7IY8HYsx9Rd+xZE7ecNysqNu05KRY+zsrbhUykfsv08m2VGkFMIdPPY3W4DhfITSPFiQJSTcrUulRunNZFeB/zOakeE2ZYbUG/HsinuuBiY6Nt+Ky5OIzZkWvX896jq9SmMp5vfZpOw/QlsT/uS2eviDNNR0ktUVW6oqJv/LquZJxvdZkH+O4UR7RaVbfTOfvYKkMsdf80ujN70V6wCwcLSfJM7zmSDrspyu8SsIL3SCs+TYcpwaIMGXr9UzXRvL0QsByalZPLRjbtNmprGizZX4+4DPmw088qYzJh972+89JXBNvRascjoTedhVx0vREnmYqMNAHYpMJf0nMq6JOH44FQCA9G62D1NEs0A0lrVfmjMSy9cmYahKI4uxp4B/ZZNcce5Pg0HvWKpOtONKazlL1gPbYWv5Zvcp0022CJ/+SjpiBYnKsxob3I/TsFW4E1CrrZhBqqLSSfgdHOiHLq8xf3WPK4a9y3s0cLPr8mw35ONbvNgGg36i4hfkTOw3wS92tlZZk/7di5C+SYpKaErcmVwKoHBkm+qv1sRl5K5UZFwWxqykUKZA7zTBYrsuUvC6YNtNFjHIipql7MTvvrwkiv+bjWTe1w+pzDFPJ4uFrc311+bki2gK6YmV+N+Eqov7jhMrZl3WGW1u7ey7gu7p2m3vbn+KoRUAjyBw18orDRd9wK0NV/xQvHFayPh8zg3KF8xqA9XVjecCLxnUIPqibJ2czLKnG/TpU2raYlqP5XNcAZFbdE0qKy5elKmQBvw70nCfRW19kPqgI2KWndcRPKgCsdqYXNrZc3VaR26Aqh2ln8C5fepWBOunlJ31V5mM9lR12I9AxLelXtCjh9Mk0E5FkXNh60KX3mk5fJVVjtJpvBFYCerHaBDhFPSvFaeWnPVvtC5bKs61TuJclcxfykwAuSqG84S5S66nxnhQOhclqtz+6TVR/uS2esS5RRgUwrmxmXjwgKrkbbGy19CudE8Gh3c3C/ZsUyrnv+eFCQn18nm0ebU7OLW4qNWO0UubmtyqSnPTaubv19E4QGFA3r8VRbR20L1xeGnqyqhbifOpHAAMW3Tauf/S1p9LV/sfo2mk6iqcFoa2stxlhuw31wdVVE776BSP1yyY4klNufyiPCt/D2X2RSvnIuShJtJR6SqJd/svp6CHQCm1Lp3J3HcDuzfx0cEqM/VuK8NR5nLNzt1dQszuRr3NVS/Qt/Pyz6Jxq1pBKd1k29xNyP8KAVTIklyw2DPN3qyotGtVsFcp1ySpGRJk5IGfOgMN1bgDP8hAbCpEGXNq5XcE5xJOjErLyXKp1KwA0BVndsjUpZSWrDU+S8kKxdWnenSqGQQ6IWqM92YF5KVC4HzS/j4nhLHS4848eq3pdS9ZiM+KWDe8gMfqnyc/7AayRSyXwYGdWW8HcIZpT6zJTmWsWWcDOxsHNQdKxqv/JvFxEF1bhRKKgFEKnx6eYv7Rxq2Dp3hxhZiFgu8vfQBUFNYy4NVM1yaKu8BuqoSdq7lXpSaQTTbr6ys855jz7gujXM7WhvdiwoXpGFLwU2ffpOpdtayu658VuH7xqFMjNeVJvla6hLLGmSjMdxgtMEuiZxHCpnLCk3tTW6h1Q50LbfLy1gIHOHR/MhCGa1VNS6N4lMBoKrGTS5E5L2qEiqHbnj11R+ktU3NN7vvA4tTMLXv2rGrzcqKSHQ9xptPVUqKxB3QsVTWukNSiBW5f0WTM2VcVtW5cWgq2i+vRJSlorYF8GKy8qvAoK7ienBQAVYM5mAs0DsVtfMOKsAKwPJdznghXnlTWmPSAv8FrLPaEeWKQ2c4k8ZQe9PcJxUeNA4lV1nnDhzoQ6WsWKxnK4jK16w24pgLgLda7aDMbWu+4gWzHaCytuESTeecZrKQtIXqi/5UzJpXKSRtpFN69PxcTUMqeWztS9zzCC4FU3uUZ8X+QlTMc1ELA/uEgRyLqHKycRzP7JF9j+mE/NAZbqzCZ43jAOHX2TWkcguUq3Y5Vf1CGraA7uqL91VUu8GcCwSAXE1DtSTJfSipKLF1odemFTGdXcVNCPayGqKfsx74l61hCfCsbRx8lAFuZft1LJU186YCpgAiRb45mMJjvTG2TD4B2EOwEz6Thip6l/wl3yPdolUAY0RYmKtxpdxkBICKavcp0EbSqRW+Ndkk4ftpyEa2trqCJFEa2++3xevEFGTZ2uoKgjnMf7+KGtfvmeIAK5bkFOMAChT0OxYDVVUum0bEL0JzvsXlzXaATMxtGB1uf+aBr+Vq3Y2E6ov9Ibka50T4Bl3f2VCwL2M23ZqGobaWuQ8JLLHaUdVLqqqc6YWWFLgdo6RCNECAap+Opa5uYUaN1QQF7mtf4kzF2uNdOQV7FYCCRpk0Dn6pqHWfBoa+WLxyQa7G3WZ9iN6IVFW5bK7a3QrUD3lnSk1a9btFM5cC1hXzfoVdpc5ioDgnTRUHFE7uL3Cvz794UZ+qwiiPoCq3W9p32eBCqw0Rbm1vnGNODstVz3ufKMNZsOyswkQWpxVb8Ubg0BlubGEiixHOHq4+VfVL006ad7DVzrKWOU8Bt6UwIPOcUMxzc8/cb/u+0u/TsWiiJq8IrB7fsYtp6Vc50x0OfMg4jo5ClL3KaIO6uoUZJPkf0t/LD8TxG1599YG00/xfj1TNcLuVl/EAtut9H8o1k9xmDa0HyMJV2JMUj7DWIyqboHcBL5tGkdCnj+jrixKMP54IC5cuvcD0BSZRCrWGhNusEb8AzycrzyM9+cvBcrjGm/PT6uanV9bkdca0uvn7Fcpoxy8Q0YzCYZVPiJdM49a0NrvnRLCX+4gS09xovd11pKAf06eP6NWxVNa6gzHGAyQqpsjW3PHX7CKYr7o3J5o1b12OOPHqt4liV7yz8c4kjpdX1riRcm4jxrST5h2cxHEb8M6RHIeiV0+tduZYKo24BmveDpw2pc6ZqmRoIlbHsm9fwXK9OhZNZLqxw3/smXmPqaiTjt70cezVDG9f3nzlX402yGY6r8eaK5UOe6jyYOWshn8b6YEMF5WzGv4tiZI8YBY9MqPsksFepzzf6J5B+a7RTHk2lo9ZDJSt0QcxFpNPCvQqYNa7YxE1qZ2J0GyNXQFzRqdGmjFnU1fMmlcpgukHTBVhgib641yNO22khzLUVNY21GqiP0KYMNJj6UaF/8jNclVmO1F0A2bFQjVFxbe2uoJac5mEXhch2zmWqpluZwFTxKFCk6V9Re28gwQ+YLGB8JPiKbw/zkWSJF8nnXgSq6PdmlHAd3O17qIUbe5Q5GrdRaqpB76l8RsICTdaD3Lbm+Y+CdxvsaFw2LTq+Sap2EhkkaW9QO6I6W47x7/dl1MQ+TC2iNJXNu466SFDeyRJBq0K3hNN5MtWG5W/4WTgvVY7wKsk0REKD6RgqxtB+VKu2n2JN1YgneSq3ZdQUv13KTygwpHYVesBDql4whbjBek8oyqxadWyOtIHsSVJjiorl+225tt7XdFjDJ2gcL+xkptg33r8sb2l3vQ2wLlIYY5xHN18Pr947mMTNk48DvhhSja7EC7K1bjvHlTnRqVqdwQ4qM6NytW47yKkvRL74YSNE49rb3KPopKKbKQoc8yrlvfrvcCfLTYUPobBARfrBf3MMgbY3mf09sWYMmxFMNXlKeYg7G0aA9yKcf+ae0I+upUYtoWf5pvdNwCWLr1gU77ZnUYKB4A9OG2XmJ8cU3ftW1K2O2xU1blxu8TcBaR7diTclD+Ej3WHPuRb6r+OsDQFy++tfHxQQlLb41wC5qvnfSpnusMsBhT5iXEMuZ5/sI1jKaqZvdvQgcZR9l5DewSqLe2BApTdabLgXJSS9svLUZz9BNs6Oc03u9mIfBZIUuijm6M74o58GiUjhpuqOrdHIeYh4CMpmlWgId/kLixO4C1/HkfZTwKrU+jAWVctQtltWMP8I1uKSRl6j6l/eG/Pq+9tvpTCKJmCbV/7eArBaNY8nB9Z9VZSO1sRLl5215W9pqjnm+pvVJX/wB7PsDXvzcSFtly1G9F4j8GQq3bvLMQsJ93gw82qcka+ufeKCCsar/ybqFyaQj8HWVctbc1XvIBgWjGocc60NrvngCcNJqIo4cht/mDbv9cKg3FQWi3Niypqpkmhwg8s7QESSaV8wy/zB3N7fx9ob6n/nqqcQAoKY1uxH0J7rnbeiESoDoZc7bwjENpJQW50K9apygntLfXf6+9De2Tf8z/Ab1Loz/6sqPmZfc+UWmfZaSBWZTllG98R9fjL7fZKg7ONKShOEj3B0h5Y37HZVnahotZ9yHzVDYhGF/VYgvdKe0v9TwWqAHPJ2a3YDU1+VlnTMNw5NSVTWdNwPJr8DEhTTPzvAlXtLfUDZu42Np4cR2o/JFY4bOpM936LjWyGJRhvqzI6uEqFPVEV09ylxznLFsdSVKayJPxplB3VZmgP6Idtzbn7sbud6QcSu3A4QEtby9ySr9zbmt0vEaYCf0yh7252UnRxrtYNWxZwqeRq3dmKLiadSpbd/BFhaluz+2WpDZa1uAfS0EiJItsz09ro1qPWOkS2udMZZ5dhuPAQOHzrSgJbHMvmtdHBgH+JAeWptsbLX/JtPqXuhnIE01ZMIrEF5p24YDxdJTItbI4zg18e55vcnyUzqkLgF8b+tyaLcuuOFEiXq3UXodxKiup7Ar+QzKiKfJMb9NWtKpcAlvAIgNPs0ha2QDWg0lIi5OElV/wdTHWnx6wb/fKWc8ktjkXQQwxGQTCps0WFdTlsUZabks4x95nGkOk4BRhvsaHw/RWN7k8+bdsaL39JJRUJw61ZHkWZlpRtelMcy/JUjSZ82vellm9xf1Dl/4wjeMuG9RtMCbOdHXovNgc39tUxq00vZsU2h5HXfMhrjkVsjsX6phVjYJ4oD7UvmW06BFVRc/0k7YoY9aKubmEGTdIqPVFA5MpJmQOPWtY45y8p2TSzrHHOXyZlDjxKkbnY1dQA0IibLLWABHu9HYzPzsNL3VoF01GCCqY5BPKoqXVvjgXlfRajcYJpUGDbBiFiO7Ttqt1rEpUSWLq8xf3Wt/2LyVMXAYdbxlBkPcqMfFP91Skkg6ZOY+PJcXtz/XxN5ETsxcoBjnghfsq7ikO+Ze5vANNqFzhySp07wGIgUtsznBjnkCQ2x5JAL44FLNJ7HZveOsn7HrwYjm5SxEoykW0blCQnWtoDaOQvWzm15qp9VbXBOgbg7yRRVb7FWaMph5z2xfVLVTiaVG7EdN60k67yj9gWrreOIFuQGZb2MWrSoRX4kEUjeU1Z8gSGuCrp6ViKP4hFNOY3lvygXZLoA9jOV16watqqqtWx/DK/yLX6NhYtXAWUG8fwQpJkKvKL5z5mtDNstDe5R+MMOeBFo6mxSabgLUGab3L3A49bBqDYnqHlLe5JwFJPfGxh58h75/Fko9tsrH+0W8WJbk8oOhbNxLaDW/i1pbFqYivhagzMK6Yy2MYgcodv08oa90ERc47MK2g0ffniOf/PaGfYWdHo/hRJdBzKWqOp06fVzjPEIPn/hl3NyRnrECmCSRkA0SMH/lC/IzDN5ahMDoburZAaJf9ETLonkfFsQ0VMP0bnKDkeW22aOBup982CwhcordxtX2xSpLp4VvC6ZFnT3F9FXXlilhSHSDXxXrVoQX+ATbMlq6M2m0TSrC9JFbWJzwsrTe2LvqTrYRbd32QrsQ1GsR0cR6IrLO3FuIQF7m9tdF5L+cpadwhwrKl3lYvbm+utxb5HnGUt7gHEJmugcJxvJGz7Eve8dWJHoqZzFoGfG9ubdh8Kv7O0T0T3g+6tkPB2i7FMkvEezKHnfKsMW37Qhswqg2NzLkIxashKv3kp/ZEkXIIt8fOefEt9KvWodwTyTfU3CTbpjSjic75tRWxatAofxvB7btht0hNAh2EIB1oOcMti44oF9ofu6Ec1JYGtW3bXlc/5Nh790gvvQrCIFP3KUo+58knerWDRMdmshTFeuqFT6q7aS+JCv6UqB+DFRDkbs3bq9qy/fL+3aaGzQkXfLUT7gBYDB2WdavJXQX5P0pkff/3fLYeNvaGxclYk/Ab/gnmnVtZcfalPlvvozJiWjrjj2/hHBk+sqJv/Tt/LhMduObczV+N+DfielYxJdsn8C+B1PNH6fp7JPc4GPIXspehLuvf1b/cxAqDwJwwPdsYqT6C2+BktiCkLWOHnvoF5mUJ8OlDm3bnIRctbXGoTe+3Fe+62/tK9L143e/KvNO58EaFJkKtBz6VLgOk00HNF5AsITWTKXlw3e/Iv18/e+6K1l+21a1rjWN7i/qEq/20wUZZop5cK4f2Nl74CPGLoGynEpmdKsD3TCYn/nOpKnPWKHC/S5ViKdVL88xyEZwyDgMh2cCyIRUcCidQYkCYGCUz1rkSgsCzfVJ+KzOUqd8CE9Z+f/MUoGz2tqtcDpZ5RCPABRb8kiTy9/vOTr13lDkhFUb+9pf77GELMJfKv8qBqE7lGbEXVEjVpo5jnlHFOj6+a4XaLoiiyaWGo0bEk2A6OUdONVKK2h0DVz7HkZs471CJ9mYm4jBS2QGsv2euEURs7fqfCJWrLNh6nwuxRGzueevWyybabkS5Uo8hfxU852PfqOSNGDVijYyET2RyL6ojO6c1l0X6RkEwayUEoNseymVHejuXQGW6s2LZir4xak/jlSEWJRfXrp8sWOVMin4Ksv3TvL0gkSwDbM7AteyYJP1o3e6/5alTZb180t81S2SDR5CSfdqsy/Bx41bdflEOm1N3gHezYGWdTOUD1RsU0p4VkUoTahHYEsVUaFN5haP3SIy2Xr/JtPKaMQ7CcccAKw8Gxt76rtWyEOqJXZ+91m6pextCUDhGQK1+dPfnb6kzxOYhi+bd6fcdPNrrNCg8b+i3Ldq71TpEpPtPeEiQYHYugpjktwm6RqhgP3dRbX7aoH+H9thR42rctACoWpwaeIeDFcy1fjdf/Vywb4c36jsk3KnKWxUYpKHxi/cbJN1hs5N/Hj9X/dz6sGFU9aCJreH/G/GxZJvdkU7a38LyhbwTZNZJITSuWOPKv/frqqLVvxfDGVNuXj4hxL4p4ZTKLyNH4R9p+txTJy75Ye+nk/0T5tG97Dy5ce+neZ3q3di4RvGNLoriMKp+GasuZQYznHMZnO/MSK3f37jtjq+esqrtFiXErFCejvJdshUziG6cAgIh1xWITcRZRrxD6yBB2LRkW+rZ95dLJB4iSlt5LyYjq116+dB/v5XkUR97/ZhW/dBG1rliMQafW29ZCIXqbb9u4YHMswK6RgGUrlOybPeBl38YZ9K2GvlHEOzAPADE5lsK4DRO9gqAS9d4G/aWt0Xkf7BWdijWD2oexWZIbfRsvu2vuE/i+wdVPjqNjMyux5A1ZX1pgeraTTOLtWPbKHrgKQ80rFXaLxKCSLrDGIiSkis2xJGbPajnk+mt3db1BIuJ/vuJ9Q/LK5/c6UmC6b3srqpyw9rI9vYWI1L88hdd3XRRlt0xu2zbb+GxHiXg7lsbGk2OBNb7tRdktUvCq6c4nAAAgAElEQVQOaFLwXq0AEKklxZzIcL5TzKeYbOjeK+lwarXbHdjZp62KeEsXRpJKgS4TkkQXe7cVb9nGib4HuNg0YvaxVElUw7PdZcA2t0xzW5gQiU2Z3+eNvVV7MQlXo+p9vrNpdyZgk0rwuw2TaF/fDiURL62MdZftsTuQRtCalePXXryn3ySPI29JiLiMfXzaqZgcS1nFL8u9Aw6j2OZYRBhnaY9FviJhVKT4JwCq2ByLqppKJsRJ5hXftmWbs7ZyDeInp5gR9XrIgXh8x85eWeQal52ALV4nLUZFGfHajmV3Tp7Ec9+viJczF7VKZm70fnGqGHcD2ByLGjKsVRgdYXAsgs2xWL2qJPFG78aR2jy6+r3N1H/79aLnmQ5EHOXZZ/p0adwOmtbbXQee2rji+Z2r52+8pd+M//MdJVn/ZxtIjI7FMrcFo2PB6FgwVsKTeLT3lx9HsW3FouJ7uOX7g//Nsx2iahLSShNFLEJEnt+B+q0cxP8AEyCKIv+tUFIwORZRc5VJi2MZZXUsFkEaVG3h3uOTnbzLqZpXS5HnslzVV+fCsjQ2laVImX8xtPWa6Kp+2iIRYiqdEhuesXXGWs5iOz8Ey1aouGLxPry1boUiseWpjBu3h3/Bq9jmWBL1cyyRp4BOEuH1BlNHFuOyOGXGa53fQy94fgeR33eunr/xFgr+2+23FiaOdD0oi/bwqAiDZ1NJp5KdL3/eZY3/iicSk1OL/B86P2Uy9f2u97SsSIcC4aA9vV5mvs9bpH4H14qaJncU+a/IN75tten5VLHtBhBTuddshKHMpaitsLc1rb5jzQuG9mo7HBPfGwq/JW7kGTEr7vkN2N4+adNRHNPg8dzSqPpVW/Td7naTGLYz61bZHIOqOWvd8kLaHGF46CxX1UVMb4QJTPBebUVi28PiufJQxOshN4owrTa0TRtvmQv13EYiftoqghjPKfxfXuPHGOUmPF98W/Bc5RXpHGnHYlo1jO5cawjui0x941k5UvzfYv7pDyo7ThEz4c/+Tf3EtdWzPrQ1Qdf08uowVQYFi1BVF6bbYpNjEaNjMUwyABLNegcgdZKYHEsk6uVYDKHS++K5dRTUpDaXJqK0+zYFvGozi4pXIGWE32+8pV8y/s+YIQYGALW9tLHNbduKBXs0p+0fbwhyy0Q2p6bqlxUeRd5SD2Mra672emMniLcoddokiXo5looT3SQ8z5nUU15DbZn/dEbi/YwlGtnSXYxbfeOiYXMkNsdiDRs2/eMLYoie3TDaq2RHNyqeWyGJvLcCiXR6iUOP3zj6XjBngqfBqvEd5T/1aSgZ74xwlIzXd26UFCFZX/B+xgqRccXiea7Ujdrm9qZIMRXiNmVQGqJXARBJvFWy8vdctgbw/uFF/SQ1o5fiZ8HvKs+3xrXc/KdNCN/3aZsmqnq73Pwnv9gnT8EmYPNemXd6yR8kNpHxVx5e6rznluXZBlDj3MI2t9dGqCls2ZaaHflnJwOIQXOiiEX+710+jYri20/7tE3UP+cngZsZ2WvnTUmS/Zp3a99/u/IXT80gEVvpX5NsaqTGZ9uQ+V/EMrfXRESmq8hyS5kDVGz/+EhNX75gkv97S2XN1V5vNFU/BXiBymPqrvUqB/uWa5/7kzL8spTdCHx55+v/+heftkdMdxMQvESifIus5+rc3tiu+E2OJRHv8rIACHhXyKyqc+OwyKnAKuuKhWjTWm/Pplavmti+fIP6OwCine/xaies8OyyrKOw6VjPthQYdRXKs77tDTyzqXzMNb6Ns+UyHc+LgkTE67tOlHf7tOtG7ELvppemReSe2E+IrBsRXo5QW/CUZvwOMQEy2VEmvQuNbILF1h8/Eb+HL5LI17FA5F+WdeKCP78SRclJWG/jBkdHJDJrV/cn7/OGyFCKNhL1+q6j2OZYEFvRL9T2bGc6RnvPrdjzYqKbRFkdiTE1PBPJXr5t2xov/yeGmyExFmZKrCr/4CUBEK1KngD8RKqUj1TVOe+V2k7XPv8rFTkfg1jyIEhE9Zydrn3Wr1okUHGi21Ph3z2br247GK8SLYjfb9uNJuZny//ZVtYWLye8SGL/OV3sf02EYS/WZUS9gpa2DMGyajAqoRNlvOUOi0zzaVQ8wL3Hs89soWCrCzTh2mdvFzgDQ55YCcSieva4L/7tTosRyfAZ/BNlf2SoweT1276GX2mYIgKGFYv1hRn5SXm+1j3/iIjEtOdO1C8acqtRPG1oPc7y9m4/KP4jviuHLt5drGo4aESk2btX4b8qTlxgCqAat+C572ui1QxNfMs/E/SkcV/823csRo6pu/YtCOf5thehxaddxYluTyy6McKafIv7o2/zqhq3F4YyLdYKoWJbLKAiz0Yaq8mxiBgdi9q+hEJiKOruXKLwmKF7yYjfm6187Nif4H/WsbNkOy7ybLuFCdf97UeRyvsAU8nWrVHlJ1Emc8hbFvzNd0W2hU1xx8WA1y0YsGHDZu7zaRhljKsV5VG6VuNeFNTwTOMfabwF45xOMvpsFGcnPIvhS8Azf6MbUfH27EVMe2ERvPf/AInnkvm+Oy95FeFH/j3rJVPqrrLthYGdvvjs8+MXPPcRJaoElvnaEXhYSU6c8MXnpu/0hb961/PuZtpJV+2t8N8GE0uKtYEGjXq+LLa0x/ZMSSTeBeUBSOQPpvZq2grpzusnPhutaLxoI4blsFj2gkCC5+FaN0bvLojtIfA/WATh64aud8oUCqaC61szYcEz+XELnqvC79ylsNOC56ZMWPD83WmNJ84UvoxhOxDBNwzde1/pA0TGl5Wqmp5pMvqkqX9bedh/LF16waZuzQfv7ZDCflVnOv8U79j4JcD7Te0jNT0EwDtz1fO8xKrzi9xDKN4lUxFOzlU31Hm3384cip+u7GqxrXq3oaKm4aMCtd4GhCeWNTuv1Vdljfsg8A7vvoFClLU+U6ZnOon9n6lDZ7ixgmnF8iywRUzGVNk+Xucf+ty+xD1vUUMXOPjYM67zjpDMN7pnwF8jpIvEd3IriGXVAqJfn3bSVbZzrm3xEGJSb/GmnuTq3D4R6h/6D6iKd3tVrI76jysar/SuqFA8lD/I0P9Ly1uc903v2DLeDf4iU1r0JRGAgFchrC0kHGhsb9kOZTeu3+iboNaF6awDEP+Hcey4sbdjK+W5m2YKTaZV49ao+DiJVBxL1ZluDDFNRrmC55PM+Du8Wxt+SwA1PkvRqI7DsSnsm44WEhWvaPJuRLt8SQSgyFOmwYBpMBgPuxQ90tQ+EZtjgXdOnem8lq/33XnJq4J8wdK5wmHxWm611AruRsQjEtunTU+ciwpr+V88M7i3DEXkquK54aBJYxuUSWyORROdYmrfdSPljYiaIo67fUnXg5iI/z4fkMjmWFTkEUt7RCstzV/O6kMYJBQAJOJs37bjNu5yC8b0AoWP5Z7gyxYbXSSDXn2I2lcslY9zI3CK0cxfVkd6m29jhU8Y+3/l1d0n+RavB0AU07McReKV4PraAGy7j0zU5UsigGxZ8nssh2/qL8IDUJao7cuAow4951veanZPNrrNil/MQzcCZx4x3U3wabt06QWbUOZa+gdAuSBX7b6EofpB4uEkEry2T91Irtp9RbFFEwOoypwnG52XNETVTLcz4J2T1DUA7n3slnO9y2ZMn37TaBVyliFk1DiXFC8xsSLJq5uT30PRsbQ2uvXYJAT2n1LnvBOXWhe7p7GlFowbs/rvpu1QhPGcBcaXjZWzfBvnW9ydwIPGMYBwUa7G3ebtaH22NapeW6FDz/lWWa7G3Y5woU/7Htzf3lLvLWZVyHA21sJuYttSry1fMxXfSgRd/K212XmJWgFU1n1hdzClyfy1O3botT25GK49QbKJHGZoD3iLLHcRJ8dYmm/SUXdjLXKv+mnDOYdGkjkXY9naImeN+ecL9x9x4tWDTr0Xj4NYiQa/Yqmqc3uU//OFB7CuErrYkCSZT+G56q6rW5hBzSumDjaNMjkWUf030wj8hcoBSJLN1jm8xYe8NgkSfmmxqKqmQanwgKW9RBxvaf9Iy+WrwC+3pBuFAyoe5wTf9sua5vxRYL5lDN0ITCvLdj6aq3WDc7h+5yWDalNR3fDhQsyjYFv2dyPQsHzxHO8SJy/ET52I7U2NQJMloxgA4zOsxhWvqG1xILzmQ6LX/tAcgWoaVBTZHAvKB63xHBLJraYxACI0WG5n9sgcuIA0tkRdTEa5L1fjvjYI5bkhcyxVM93OlbXuGyJ6L2BORyhyf9shXO/d2rkI0QbrIDTC9OxUzXRvR22BcYLx5Ywebmmv8poP2TIBktgWgapwBIZDw7ZG9xRgyTERzcQzDe1pW1T/AGAr7qW8P/e4/+1GY+PJcTbDadhiW7ZGgPM74o4/VFY3fLKubmG/MRI+181S6L9NXd3CTK7WnVOI+IMqn8JYWncrnu8slJ1ukEYg9xtOR7Hl5sAf8ovcQxYDnRGmZxd4Lt/i/HOEul6GR1gGkN0qin2LY2lf4p4HvCMGgbdV1M6zXFWp1eMmqPXHUcT25iky/6A6512XpbXRvUjEqRhL0PbgrSp6y4vxyt9V1rj/7Gt8kcdWKBrde5vp028aXVnd8MkX45W/Q/kWYFKe70EhglMfXnKFt1Ja8RbGvFoRkVsxpjQINsciys8s7XO/iQ42BiY+09rotrwMey7ZjTkOydGm5mq7mRE4qqil4U024nY8y3Nsxf4TYznXYiC/yLUinG8cx3YoHKDw7V1instVuy9V1M3fptpAeefgD2LLN2y7Yqmom/+uilp3w7ry1c+q6C0KB1jH3QMVOM83H6ibteWrz7Mm0QKb40RNujNVNW4y2OJXrNHjKra52zOjexvHItZ0bzANbnR2zFJskzpD1zbCm6LXbbLYAFB0btUMZ6r9m29yt4A461j6YHeEiySOr9v6D+XLz21kcDoxG4ptXrMRx9eJ8jnSXaFszdy2ZmdaWU6tdm+N4ErrQAQaLbk5ADGchiE/B9iUFMpNmjqRce5G8EiP/36NJIqsUYNHWQ4u72+89BXAtFcV4XRLewCV6CrsmrC7FbL2chv55voG4FtWO/3QW/xR6auW3rdOJjHmfhG+lm92V1nNRHCztYQqkIhmrraORa3PrPBA+5LZ3pHjdXULM2qU4ox1W9+xjRN4WZKHMYhbK+w67YnIS0KgG0GWWNoD7/OVMeimvWnukyiLjOMA4dRcbcMMq5n8IZwPJu2W/th+cg3mALf3z1onbF993ZRvcp+xmqmsdTMRTk5hRAuXtcwx5dlNq533AevhsSaY5szf4t99EEwlP9Zt2v1t2+QobeNYiuHQtiAbTUx38Rm0BeNqQaLkU5b2dA1gvnUcAKh+w7fI2BacS/LN7r8UTMmKfbC9ExjcAW5vn03dsQjMzze5CzEekuaOv2YX1VScdFJc2RqNmJ/VuCzLYouBCNucRcj3TGXYfttiDFQDTG/oYkiyaTukysd883a6Wd7ifovYz1qAvTrijhSSA6G92V2BcDHp3hbtwvbXv4NwLNsd9grWmt7bEit8rq3Z2XOpAEZv+gq2msxdKIvam+aaRMqKL5yPGUfywNa3MT4onGhqn2zvM3o5D4mswVmHWbVYReUHxjGMLxsjZxhtoEQNpFN/56yKmgZr5iwA+SZ3AxHHYC3b8hrZqpmux4pqEDdDPVY3ueOv2RnIpjEwgVWqMr292X0lDXu5WncO6aQQqESYz1Y6kk1nYivjioB3fhR0aQuLUbEu6mUxsp1jya5KHkPxrloHSLYQH2doj24etQhj3g5iytspkpRjOHPaZjjoV3Mz5x2ahq38ItcaZTJHKvwqDXubyWyzdRlUkFyPzyZlhXQOboXHYrKHtrfU/zQNcxW17kMoN6ZhC3g1Ae84JaArIE3VGk7QsXkj/mVkgCRTmIElYFFYs0fmwO1qKG038VpbXUEF04+pkZqWVvl7LluDeBf06ubdlU/4L/Fy1e4jojyINeP1NcZolCw6vPoLqZw/LGuc85cJGydOQbkWY+GxDHHPMZW8YumZtNiLrcFSQLl6/IaJFcubrzRp1HRTNcPtJl2H8emo7ME4UR7MVbuP+Bqo+A0zwV/SFQDh7oeXOssiAIzbIFHua2w8ebutea9vdFHbKTPKh4v6Ft4IcotpDF3j+LxPs1y1+w+EJaTnVICuigaj2HxzWvaWLr1gU77FXZYQTcUgSag9avUmg7pu3lYYqqetQSE8QRIdmW9xVy5deoFtxboVhTJuBvZNy16RcQhLctXOa2sl4vds9sA0R4ovuX+12FB69xW9OpZsgR9jOyAcHUfMMrSn7WD9KUaRa4Up02rcoO7nc7XuUoTbAW/hqH74cxRl6tM2urx57i/Gb5z4IVUu8REmV2TbVUZS+lYokW21WLazVRqrES5eE/Gh/OK5lgJyvRJJZi5mwfReKUO4PVfrLh1Mo9wsV4UxLwf4Y77JmcL4y9hch+0572TT6KW9/UWvjqX1bvdPNV47K7YI2K4qhfZs40Qp9UpQKmvddSjXkF6S3FbWeSLOZKcta5pjLdDWK0uXXrCpvcVdT8fodyAsYBC6LoJu6wwysfd1s0QMJtp4M8JN2YR35JvcDb7qbwOxrGnOHzsLZVMRU9XLvhCUaypr3M0ln+nFmF8uqtyCPT/JNkeVZX1JRfT5RaQQqHZUMQfCm0Ih+z+A7WETKitnNfQroDN9+k2jczVuoaqp8l5//FQ7yyssZSFKJX/PZWvyTe5SLfAOgWughNXH9tsX/8hb1QGvmgVWKXxBKHt7vsld2LrYvVxyf548vOSKv2tn+dFgOz/sC4VP5x7n/6ZPv2l0f5+rqG74MEKVsbuOsgK3Wwzk6tw+CBWmUUTSZ4G6vj2sqrWqXdSpNnHkYubqD43jQBPtc9VSNdPtvK589b1g27r1hcD31mQ4wRJy7UP7Evd8W7O7fGMne4vI+f3dIEmPgDYZjKB23GPF0n9w3C8V+dSGTvZpb3ZXtDVfYS7FOhjal8xetybDCRivaPth1rry1ff2c74oIn0/i4Pge613O+/qpQAU5FRs+UlA3z6iT8P5FvcHhF9buhXh45b2AFEcXY+9yt6RldUNJ/X8wyl1V+1VyLAMOMpov1dEuL6t2Z0xVEv8Unjsbrehran+G+3N7oMo71JkLrBNYJfqts5g3OgX11Dad67jxz+/zWqjpy26DpXnRJJ5Z77ZHdreXP8t35rKafBko9ucb3anixjEofrnqEKGZb3FclVUu2rAJKYEaKSZLxltgKh1bj6ab3J9nlv167E04XvGzt+bq3Ym+cFld819AjBlbgIgev3WGiSVde7ATFxYnoLIT28kCp9ra3KXkGLpUSv5FveH9ub6+flm994s7C3CGQq3ImzjHMRRgJJimV4pfnarxryscKuqnB5nspPzze7gfLO7aqjOljzRtiZ3iahcRDoBkD2sc3AmLiyvrHNb9ImmT79ptAhfTMH6j6z5SZXV847CWAtMVPpd9fUfIRnzfbJci6Uym3AOkPduD0gk12ui3jED0KVDMjGRC4HrcrXzjtA4+REM6qCxVDYjcmZ7U701enhIKaZOfLf4v95YBQyU47Tdlinf7FLXkBkq2lrqv1xR7f4qwvdIL8alm300IV8xa95J7Yvmtq0bs+azGIuhAWgUXTfwpwawIeb8pKSQzSzs7wMD3n7katwD2LQaOjbrqMlFsWpvcjXu51iv6JS1gvy3it4IlJts9WE/guplLc6abzXirJ09+ZGBdIwFHhm34DnrtemIUzmr4d801mYEU35ZH2wUlQsVvT4F+/l8szMJQk2tdm+NhGexRA4rP8u39C/SPuDhjTUXARgzKtpsPmtJohQKegkTVPQWhsKpwItRFFW9EZwKUFKG86AC6XZg2hbV/yyBCsC7Jk8/lKvoLWk4reL5mImoq2KnLR0BGfCIZEDHkklYhLHWjSjnDSTiPBDLF7n7MG6phgzl99mEKcua5qaSu7MjUEq+kFed5x2U5S3ut1EmMw3l9yM9lj54sL253pQgXFXlsqqYJFOBjjHZ0QPmJw3oWFoXu5fFKNWocMCL8cpqiw0AjaLLrTaGgEckO6qyWM3xjUQpq5E3xIqlm2WNc/4SZ5mKtXjeEBCBs9ooTOTkFDR+FxaVHvulpHtsVb5pHAwKl1httC+a28YQBTh5IfxoYydHtzVe/tJIDyV1ShF7SqEY/I7Gika3emMnx1rFqdNE4MdW4fAiF1sNRFFpMqklOZZ8i8tjSHIrcnjxmsuEZPgsxmzeNFC4feOuk2pGMiZjSCllm6NvnK3Q1jx2t9swKTpwJkOrNVwqhUQic8JiRXXDh4EPGs08vmyRW17KB0uOvEsj21glMa9a2hrdSuA2qx0TwoL2Znd2Tzm+NxKl1HD2qdn8eqGx8eQ43+w+hcqgEgzTRuCbVqU6ABE1zz0RKXnnUrJjGZ0ZfQfwqteIXuO4qTOdSa0KIFHmAgPu84aAWJXz8k3uUnagwLehoSSn8YZ1LN3kW+oXqHIe6cqBlsrLmU57QbWKWvchYHA1vLdn/eYNWnLAbMmO5f7GS19RsAZ9SRQxz2iDrjoukkrx9EGwUYRZ7S3OfN70ekBKOD+RwUhYvo5pb3HfFGEWg6u3ZEahwZwTBAjMw5ixL8J3ByMqNbgkpEzmeuwh0DMqatyRRhtkV+uNaUkzDoiwRqPo39uanEkN/fVEZyQDnp90Fgb+zBuFtia3GImOBswTvUR+U7aar1qNTJvlpqJMN5pJhMwNg2kwKMfS3jjn94L9tDxS+/KutdUVlOhchn6J+rxAVfFG6k1DotkBVyPxuLI3xYqlm3zT3IcjzUwDnhnirhIkOre11ZkvKZKkZD2iPlFoGWyu16DTplVJIVeBY9O4IVrePPcXiP0qvB+ejOLskW1N7vEh7GOHZJcFf15L/+VuOye6Pw2rFMSOwLKWOU8JZUdaM//7Q4Ub801zH7baKeoQ2eqpA6rRoLOpB+1Y8i0uL7BisO22Q5JUlNo6N3A58Kx5PNvzUDYht+yuK4fC9g6PdB1O9yNzqavlDX+A3TttzVe8kI05WiGN2JJtUHi6LI30FeciEr0mhQG1LW+ZO+j57iX0ooh91QJTcjXuVKudh5e6tRLJWaT7kC+OMxOmD4ey2Q5Of2cob5rzld5oXexenrBx4rEC/5ei2UQizmptdOuthiqekDN0gCTSEvGSevByLPlD9C7sAXMA1x46w421GmlbVP8z1F6AHUDgq/lDqF3ReNGw3gDskGi/tz5vqvOV3li69IJNbYdwGsLXUjL55fwi12o1cuwZ1+0kquaCasBv8i3OqwyPnzSdc4mIOK+227J3eZmYA3cAxndMnI3N2SnQ0NbsPoNz6Yv/vB6J+pOofHNcNQ+Ic0m+yX0akc9iWTUrK7MTuDKNIW189dXZgKkaKYDCXDz/Td6al21N9c3AL33bv4ZeYhXdhq63h8DH8aug2KkiZ+WbnbOO441Ef7EspUTmvpnIN9XfKHA2/R9490VHonys9XZnUhGALpFsJRVR+Efam5237rVFTFclBX0IYKdOSKU2b1uz+yUqg020elWQ6vam+u+kMYY3Ekk/uUDJm/yMpTfamt3tCMcBg7otU+Szyxe7dG6ZYlIRMVOVKzGswEwq3W3N9fegmOM7BGora91Mqx2AfEv911T7lFvsyeoo4ti25nprOdc3KuGMZZDkm9z9Kvwr8I8Sm/ywvbk+lWTHyho3C0hjHuWtNbON8v/p6EQAqHLzEdNdOtKAcfn5wO8G+NSfI8kcWWq25puRAZIMg2Ppg/Ym92gkmRwDVV9UVmYzfDKNPo+pu/YtSjpF79PQPTI7lqIUo7UGEcDkUeWkcZJN+5LZ61SiWfS9JP1lZ6Fs6g6mHL/jkWif2503knrcULCsac4fsxkq6OscUlkbkZmVxtUywKak41pgT7MhoTmNKHOzYwGgq4KguXaOwvnTZrmpKYyI9qa5TwpyKtuH/P9UC+VVxWJogf4JKxYDrY3uRS2UV7G9OFmsEaday3h0UzFrXqUq56RgalMSZ9IoVp+OY8m3uD8AN6dgKkoS7qw4ccH4FGzR1lx/jypb9DRU+e5IVCV8vSJJ31uhUrKfA12r5+xqjmMrDSFRuaS9yf04DftVdW5clCT/QxpzWfjK8sVz/p99VGmtWIDOjcwDXkzB1P5SttFe6a1Ie4u7HrgF4ab29/HxkaxK+HojGt3PdXP/wXOBrWhtdYV8s/sk0KBwe1tL/ZfTst0Zc7PCASmY+seYaIw9BaBIao7l4aVurZJK0Bwon6yocSemYgvIH8J5+SZ3YQh8GxzlZX1nOI8dmwlnLIND883OtR/CJ9IymKtpqBY4Mw1bonJlKSLZJdtLyxBAXd3CzIvxyhUp5Sj8I1EO7hJ1CowU62ZP3sD2cREbxi94bqeRGE+gi6o6t0ch5nFg9xTMPTwpc2BFY+PJqUmQpLZigS6dUIT/xC/6sCdvFeEH1npEATPbr1rC+crI4lwUF/gO6TiVQiTReWk6FUjZsQAUtUtS2UMK/OsL8co5adgKeLO9E5HgWEaS3OM0qHBsGrYUvjgUhfZSdywAcWaCA1I5XQbm5KqdqSB8wERvTiQ4lhEiV+uOAS5Lydwfk8wEs8JcbwyJY1nReNFGRT5JOhopEcL3qma6t6dgKzB4ejmkffNo3e5ITDvpqr1RfgCkcTygCOcPlTzIkDgWgPbm+gdR/jclcxMLET+sOtONScleoGR6uVYOZyzDzpS6G8o1U2gCdkvFoHBrvsndn4qtXhgyxwIwdtxOFwBphc0fUVjHHaR8kxUYkO2dSL86LYEhQDLx2ltTum0F+LN2lpvLrfbHkDqW++685NUo4kzSUtJX6nI17opUbAVKorecINEobIWGkcpaNwc4LSVzhUSj04c6+nxIHQvAskVuucKCFE3Oq6x2p6RoL9APSa/XzfzQdCsAAAQLSURBVGHFMlxUVLsaVerTsidwjY849mAZcscC0LHbJEcqanMACMJXq+rcuJTsBfpD4+2cSBLOWIaFqjo3LhJuIb15+uiG3SYNSwXRYXEsj91ybmcsfAxII0V8NUQnpZVuHhiAqJdboahvOYVAenQ949FJpKPWt04zmdMfu+XcNIJXB2RYHAvAiib3O0X+02jmeRGObmue257KoAKlEG6FRpC25rntkWZyGKsvinB+e+Oc36c0rAEZNscC0N5c/3+GUglv2qqEI4nQy3lKHBzLcGKuvijc1NbkSpVrTYVhdSwAG3ed9DlgcHKQSuubuSrhSDJu9Itr2DbQUcePf/7NXsht2GlrvuIF7SyfJsp9g2z6yJqIVErsDIZhdyyP3XJuZxRnTwH+WWKTljg74bhQlXBkEEcB2Dqd/uXinwWGmfYls9etzjID+GGJTVZnEz46EhpEw+5YAJbddeWzInI69P+AKtycP4RZoSrhiLO6j/8fGGaebHSb84fwMR1YsbGgKqe0LnZPD8e4ejIijgWgran+XkEu6uOvFWhob3YXBHGmkUe3OsANhcp2AJxL2pvdBcXqi73PD5XPWkt4WBgxxwLQ1lx/M/D1Hn9cEDgnVCXcgdjqFqjXgLnAiJBvqr8R5Ex66B8JfDXfUp9WPWkvRtSxAEzKHHiBQLew8KsqnNTW7G4d0UEFtkGibZxJcCw7EPnm+jslkukoa4t/9NPMaj43ooNiB3AsjY0nx5mEjyksS4iOTku9PJAiW5VaDfWEdjzaFtX/LJHoGOChbMLJra1uxA/XsyM9AIDijc9RIz2OQB8oq7bklIfguB2S5c1zfwFUjfQ4uhnxFUvgdcDWq5R+CsUHAt0ExxIYkK1vggao5xwIAMGxBEpCwuFtYFAExxIYkK3LqUpvUpWBQA+CYwkMSGf0mnh2ZyEIaQcGJjiWwIAk+lqp1XhcWVixBAIBOwqybvbkzetmT96sQcw8UAI7RBxLYMdGQNfBGlCVdGpFBd7gBMcSKBFdBRKcSqAkgmMJlIZGq5EkOJZASQTHEiiNKFmFhhVLoDSCYwmURDGWJTiWQEkExxIoiQRZFWlwLIHSCI4lUBqqqxMJW6FAaQTHEigJiWSVhhVLoESCYwmURqKrJQorlkBpBMcSKJVweBsomeBYAiUhiaxCgmMJlEZwLIGSiEazSjvDVihQGsGxBEqifAOrw04oEAgEAoFAIBAIBAKBQCAQCAQCgUAgEAgEAoFAIBAIBAKBQCAQCAQCgUAgEAgEAoFAIBAIBAKBQCAQCAQCgUAgEAgEAoFAIBAIBAKBQCAQCAQCgUAgEAgEAoFAIBAIBAKBQCAQCAQCgUAgEAgEAoFAIBAIBAKBQCAQCAQCgcAOwf8H/N+jS6ufWM4AAAAASUVORK5CYII=;imageBackground=default;" parent="1" vertex="1">
          <mxGeometry x="-649" y="206" width="63" height="63" as="geometry" />
        </mxCell>
        <mxCell id="wImkBHEnD4N6jClxrFpg-123" value="" style="shape=image;verticalLabelPosition=bottom;labelBackgroundColor=default;verticalAlign=top;aspect=fixed;imageAspect=0;image=data:image/png,iVBORw0KGgoAAAANSUhEUgAAAgIAAACmCAYAAACoV+cdAAAACXBIWXMAAA7DAAAOwwHHb6hkAAAAGXRFWHRTb2Z0d2FyZQB3d3cuaW5rc2NhcGUub3Jnm+48GgAAIABJREFUeJzt3Xl4VNX5wPHvuZMFCasLWJhJQKtVcQG1WrXWBbGtdatVuqhkAYt1t9ZqlWrE1rVaxao/ismEqG1Fa12qte5a19YqWtFaF0hmghFcULZAMvf8/jiJICRkZu65c+fOvJ/nyYPCvee+2Wbee+4576sQ3s1+qZRBWw36/P9LKz9jskoFGJEQQgiRFhV0AHlr9rtDKSvfEUUlLqNRbiVKRdFEgRHAcMABhm5ilE+ALmA5sARFEq2T4LSgSaJIUpZ6i+OrPvH/ExJCCCE2JokAQGNbDFK746jd0OwGjAfGkrOvj1oEej4wH63n45bMZ9qoltxcWwghRDErzkRg9uItKXMPQuuvo9R+oPcIOqSNqQ9AP41Sj9LJg5wUTQYdkRBCiMJTPInA3LYJuO5k4FvArphp/bDQwGsoHgHnHqpHPYdSOuighBBChF9hJwJNLePQznHA94Edgg7HogSav6DdO5la9UzQwQghhAivwksE4guHQWkN6GnAuKDDyYEFaHU7JSUNTNl6SdDBCCGECJfCSQTmJrcnpU/FoQ7NoP5PKDhrgXvRXENd7MWggxFCCBEO4U4EtFY0LT4c7Z6N4qCgw8kbmidAX09r7H7qlRt0OEIIIfJXeBOBxrZDUO5lwFeDDiVvaf0myrmYmtF3yeJCIYQQvQlfImASgEuAfXN4VRdoB5Jo2oAE6KUo1QnqU9ApUMsAUChgGLilaDUIGIBmcxRVoKJAFPTIHMYO8AKOuoDq6BM5vq4QQog8F55EwOwAmAUc7O+F1CI0r6F4FaVfBT2fNUtamb5np7VLzHq7nMEDKtHKFC9SegKmiNEoa9folXoE7ZxP3aiX/b2OEEKIsMj/RODGJYOoWHMxmjOBUh+u8Dbox9DOY3Q6TzJ91Ic+XCM9c94bSaRsf9CTUEzCVDe0LQX8jlXlMzh1xAofxhdCCBEi+Z0IxJPHofS13fX97VB0oXkMzV2URB5myqhWa2Pb1tS6LdqZhNZH4jAJTYnF0RMofRo1lfdZHFMIIUTI5G8icEvrzkTUfCBiYbQU8BRK3cEa5+5A7/qz1fj+VqjO41DOD9F6P+x97+6mJHUaJ45539J4QgghQiR/EwGAxuSvUPpCDyO0g5qDo2dTHWuzFlfQmhdXkkrVgTrZwsLDT+hSu0ovAyGEKE75nQjU6xKqks8Ae2d2ovo3it+jO5upHdvhS2z5YN6CMlYOPQqtz0axT3aD6B9SW/knu4EJIYQIi/xOBADii3eA1L+Bgf0eq/SjuJGLqRv9nP+B5Zl46/6gZgCHpn2O4jZqYif6F5QQQoh8l/+JAEC89RRQN/Z9gH4W7VxEXfTx3AUFxBcOoMzZjC5nICm3HBgAdFCqV+OoDt6uXE696sppTI1t+3YXWjpgk8cpkpS6u3J81Se5CUwIIUQ+CkcioLUinnwAxbc3+JdXgbOojT3py3Vnv1RKydY7oRiP434FVAxNJTAaiALlaYzSgSKJSwJ0AsdpxeUdNPPpan/Dan2C9TUmD0fpX2NaLm/IBSb69nUTQggRGuFIBACa20eQ6nqte3HcMqCeluiNVu+44wu3RpVMRHMwsDuwE1BmbfyNrQH1Okq/gstTqK5HqR3bbm30eu0wpm0aWl8NDPn87zVXURc7z9p1hBBChFZ4EgGAeOvRKOdInJLzrbTcrdcOVclvAEcDhxB822INvG4qAKq/MWjUE0xWKc+jzk2MRnMdmmOBV1nesTdnbLfG87hCCCFCL1yJgC1NLXvgOlNQHIvvZX09+QjNn9HurdRVPuu5cVA8cRjKbaGmaoGl+IQQQoRc8SQC8YXDoLQG9CnAdkGHk4X3UMym1J0jC/yEEELYUviJQPOiHUk5Z4I6AagIOhwLVoG+Fa1nUVf1RtDBCCGECLfCTQSaF+2IG/klmu8DTtDh+EAD96LcGTLVL4QQIluFlwjckvgyEeqBH2CnT8H6FgOtwGI0SVDtKFajWIVmNdCBZiAO5bjuEJRTBnproBJUFIhaKAm8IRe4He3WU1f1nuWxhRBCFLjCSQSa2ytw116IVj8lvf39/XkLxT9weRVHv4ZOvUbt2GWeR729ZThrIhNQ7nhQ41Hsg+bLFuLtROnfkdrsYqZutdzCeEIIIYpAYSQC8eRxoK8BYh5G+Rit/4pyHsXRj+e0SVF84RgomYTWh6DUocCwrMdSJNGcSW3sbmvxCSGEKFjhTwTqdQmVyaezbLrzCUrdg9J30vHBo75V+cvErLfLGVz+bXB+APoI0umx0Lu7qYke63nLoRBCiIIW/kQAoKl1W7R6BRic1vGKl9D6ZirUH5kcW+1vcB7cuGQQFWt/BPp0NDtndrI+h9rKa/0JTAghRKEojEQAIN5aB6phE0do4G4crqI69s9chWVNU3IiLmeg9BH0/317jJboodQrNxehCSGECK/CSQQAGlvvQKnJG/ytRvGAaU886uVA4rLpltadiaiLgGPp/fu3jEhkN6aMas1xZEIIIUKosBKB2Yu3pCz1GvAlAJR6BqXOoHr0K8EG5gPTbvgKYP8v/oOaTG30zkBiEkIIIQIXb5lEPNFGU3IKWhdWotObePI44sl24glNvLUp6HCEEEKEiwIOtjTWZ8BLlsbyZt6CMiaPWxt0GDlze8twOtW5lKy5ghO2+6yfoyPAQbkIKwurgDVAF7AUWNL93yIXmlr2QDsW2lPrj6it/In3cTJw66Iv0elch1KZJ/9Kv0hN5TU+RNW3eOv+oE63Pq7iXmpit2d1buP7W6G6zrEUydPUxh7M6Iw5ySgl2s4CZ8Xr1MRmWhmrP02JqWi+6X0g9Ti10f/zPk7mSoDHLI31EvBVS2N542cSMOvtcgZXjEW7o3CIgt4aV0VQeuh6R32C1ikcZwmKBK5OQleC2rEdvsRkmhBdkObRmwGP+BKHP5YAC4HXgTeA5zA/a5Ig2KZLRoF7nOdxlEoCuUsEtFY0JW9BcVh256vcliC/7e0hdKpbgSrLI79PFydnfbbTdVN3q3IbHCCzRCCSGgKO958/AM1xNLXOp6byPivjbfpaEwALcev+buLSMQb4Jqax3ghgBfAR8DzwBNDrLrkSCxcuXKZGwR44HICr90CpXYHtIBVBYfYhAPS2VV8p0HrdMZSkiCfeAuaj9StE1NNsFv03k1UqF59KiI3o/th7vb9bDjwJ3AHci/lhF8WqqW06ZJkEBKGzfBb2kwCAaUyLfZzVmeau1lYSkB+0uonZ7z7F9G0/DTqUHDgEuATYdxPHrARuBK7CJAefk0RgQ7ckNsfRR6H4LiQPBAajMW/s3kSAnYCdUOpHuMDK5CfEE0+g1L2sWXNvkfzA2jAYOKL7YyXQBPwGWBRcSCIQjS3bgL4q6DDS1th6FKhqH0aek/FUfI/mRWNJUYg1R0ZTVn4ZcGrQgfhoAHAzUNP9/+3AXzAzAEswHXd3AI7E3Ez9HKjG7Dp7pmcQSQTA3PmPSR6FZhowEVRpjq48HDgGrY+hrKyDxsTfQM+lNXa/1ABIWwXmF3068HvgQsB7TwiR/+q1g0rGSbeQWNAa398KlZq93jShJWoRpat/ltWp9dohlYwDQ+zGlC/0yTS13kFN5dNBR+KDAcDfgW9gHpVeAlxD79P/lwGTgNnAWMySgKOAh6Aw2/Omb25yC+KJi6lKtqC5C/gWkKskYEMDUHwXpe6hKvkOja0/I74w+54DxacEOAV4E/hOwLGIXKhqOx/zIhgOqutmX7qPOtSlsUi4d+ZreIDdkPKKg1ZzmJfYLOhAfHAL5ud/LeZN/Vf0sQag2yPAPsB/gDLgT8D2UKyJwJz3RhJPXIXWi4B6YFSwAW1kLEpdDSULaWydQcPScNzx5IetgfuAX1JodTLEOvHkeNAXBx1G2uKtdcD3fBj5BqqjT2R15ty2CaH6GmZve1ZSaJ/nN4Hju//7HMzCzJHA1Zg3+Icwb/x3A78DjsHc5H7Q/d+fAUPBPBIqrkcD8YUDoOQszAr7wRnO0HUCb6B4A1f9B3QCRRIi7UTWriGizHT0itIIpZ1DKNHlpFQUHRmF0mNRjAPGo9mG9BOwYSh1KU7HmcQTM6mI3iSLC9PiADOBrYAzAo5F2Dbr7XLQczF3NfkvvnAMqN/6MPK7rCqfkdWZs94ux3XD8zX0SnEODa13MbUyP7a4e3dp95+vAzd1//dooOcR0TLgE8xNbjnm8el9mJmDd4DrgIsws6d7FU8iUK9LIPlPYJcMzpqPUn/FVU9REnmeKVuvTPO8D7v/fHOjf5n97lDKSw/AVRNRfIvuqZlN0mwJzGJlso7GtlOpG/1cup9AkTsds6Mg3a2VIgwGD7gU2DXoMNJSrx3w5Rm8i+vWcOqI7HbMDB5wJZm9FoabpgRHNTD7pT3zosusN9uwbqv+74De1pNNwmyzHoJZPHgwZsFgDEhgFhj2zJoeW0SJgOoinrgBs6BsU/6HogEndSdTxiy0HofZGXBf9wc0JHcj4n4frU7AfJM2ZTzKPQWzl16k53zML8TdQQciLGhq2w/t/jToMNI2JnE2Wh3ow8hXMbXqmf4P60Vj2yHgFuNM2a6UjjgP8yw9zA5Z778f6ufYz4CHWVc4MNL9ZzvwKjAemFhcawRqY3NA39/Lv2jQ96PVRGqiO1ATu8qXJKA3U6OvUlN5AS3RbVAcCzzV57GKJHSdlpO4CocCGujpPyHCq7m9Atwm1r2Y5bfmRTui1aX9H5ixN6DrkqzOjC8chnIbKNb1M0rNoKllXNBheBTt/rMT6Ku53GjMdvXjMDOjAI18cYv1uz3jFVciANDVdRKmfG2PP+OqCdRWHkld9HFUb9WBcqBedVET+zO1sQNR+gA2Tgg0qBpqx8rWuMwNAy4POgjhUarzejRfDjqMtNTrElKRuZhKnvYounB1dfZVSktvBiqtxhQu5WingXk6HMlk73qq2C6n772o9wALgHmYpOAKYNoGxyzvGa/4EoGTtvkA9I9Bvwz6G9TGjmVq9NWgw/qCmsqnqY0diMNhrMvaZlETtVUOuhhNwUyDiTCKtx0BTA06jLRVttXjT8n1S7Ne8BZP/Aj0DyzHE0Z7szIZ5pnVJd1/DqPvBf+XARcDL3T//7mwUT+EET3jFV8iAFBbeQ81sT2prfxH0KFsUnXsb9C1M1r9lAp+EXQ4IaeAs4IOQmRh9uItwe1vbU/+aGrZA6V/bn1czSus+SC7ma25idHADXYDCrXLaGrdNuggsvRe958OsFsfx9yE2Tl1INCCeZy2/nuIAib0jFc8iwU3FNQjgEyZKUA/th7Z8DHwsoVxhmOy260xlQL98gPM9poP+ztQ5JGy1E2Yn438N3vxQHTqD9gvTLYGV0/JasV7vXZwk83A5pZjCrOBuGoOWk8MzXvBOg8DKcyb+9HAvzdx7BrgfuA0TB+CCkxZ9n1Yt27qweJNBIQN8zHbVGyJAOO6xzwVUwrTpnJMf4K45XGFX5qSU9DaTke6XChzryadLcGZ0noG0ypfz+rcyrYzsdduvnAoDmJusg6zmDhMPsLsFvgO5nXyWkzNgL48iEkESjAJwKOYrYNgFhzeWZyPBkS+SgGvYeplbwech/12w0dZHk/4ZW5iNFpfF3QYaYu3TALtR/vl5xgUy25WsLFlJ5T+teV4CofmGuYko/0fmHd+iakfMByTyChM1cAruz+Wr3fsw5g1AudjZgimY8rpA8wBFkoiIPJVCtMu81h6L5iRrQMp1tLaYaK1wqUB80KX/+ILh4Hjx7a8VUBNVhVFZ79UiuPY37lQWIZSqm8OOogsvIJ5fQT4LmZr4FLMm/35mPoBPVKY7qxXYmaretaKvAPMgGIrMWzHQExVs20x23BGA1tgprWHY7ZzLMN88T8CkphKTu9g7nY31RRCbOxezA+wrcWSQzG/DP+1NN6mDAK+jPlZ2aL72oPW+4hgfk4+xSQ7n3T/2YbZ77sQeD8HceafpuQZbLzKOX+pkpvQ/RYEy4I+l9rKt7M6tWzkpWj2tBxQ4dEcTlNyMjXReUGHkqELMVUGJ2PaEO+FmSl4AHPnv77dMSWFe2ZEP8BUGvwEJBFIRzlwEOaLti/mGXa2X7cuzN7O5zCVBZ9g42+Y2NiVmGdhtsq07oE/icDmmCm3SZje3zvg/Q6xA5MQvAq8iPmZya/trrbFF+8AqfDUfYgnjkHzQx9Gfpya2M3UZnGmqcCYXWvioqRvpPH9J6j70tL+j80bLvBD4C1MGfWdgD9jHgu8gnmzH9T991XrnfcvTAOsRM9fSCLQt72An2C+YLa6/5Vgtnvs1j32ckzp25uAf1q6RiH6FLgd8zWzYRtL44B5oz8M89ztMOxXvRsA7Nj90bMHPIEpFNJAb/0swsz0BAnPdHZD6yj6L1uejc+IRGqzWtF+45JBsKaJsFRgzAeaLXG6rgVODDqUDLmYO/07MNsFD8e8X/XWnvtNTGGh29jgcas8K93YtzBvyi9iplv8bAE8GKjuvtY/CdNUaO49bXEsW4uDDsVs3fkrZjdCrl54Y5jWowswFcQKp3lMVXIGJgnPf1orHDUH89jH9thnMWVUX+VjN23g2htCU4Exn2hOoKn1yKDDyNICzE3rlpg1Az/FvOlfBNRhHofuBDTTy5ormRFYZ1fMfv2gttl8FbMl5FHgbEx7SbGOzfahozyePwi4HvMLFiSFeeZ3GKYP+SXA2kAj8qJx8e6QCk+nyHjiZJQ6zPq4ir9SW5ndFtfG1qNA19gNqIhodTPxhU+HuJT7cszNQUZkRsAkQ+dh7sjzYa/tIZgiPfXI1N76lvR/SNoGeTg3CjxD8EnA+koxzwgfZF0d8nCJLxyASjVjvxCPPxpbtkGpK30Y+SN010lZndncPgLlzLYcT7EZhSq9LOggcq3YE4ERwJOYKZTyYEP5glJMneiHkWpgPZZjVtjbMDDL87bCzNj0VdYzaBMxK4bz6Wc5TSVXYRbi5r967aCcJvx4bKj1qdSObc/iPEWqsxH0SOsxFRutT6YpOTHoMHKpmBOBcZhn8/sFHcgmHIyZqfhK0IHkAQd7P6/Z3HWWYLYy5vv3Yj9MpbHwMC+64WkCU9V2PrC/9XE1f6Gu8o6szo0nTsZUmhPeKbS+mXmJcCxYtaBYE4HxmOndMQHHkY5tMS2J7ZctDZfNsVesJZvnfxdgynOGwcnA14IOIi2z3x2K1o3YL8Tjj3hyPOiLfRh5KSWlJ2d1ZlPrtjjqqv4PFBnYjhXUBx1ErhRjIrAd8DdMk5uwGAk8RjgSF7/YLNbyUYbHfwmzjiQsHMxq4fxXXvY7TGGu/Dfr7XLQc4EyH0Y/mSlbZ74Opl6XoNXtaE/rXkRvFOcQb/WjlXTeKbZdA8OAvxOWTmZfFMUUIdqb4qxO+HWLY2XaffAcsl9XsKEU8B9Mw6YPMDUShmJmPHbBFDuysWDuW5h6Ce/1d2Bg4q1Hozkh6DDSNmTAr9Dsan1cpeLURO/O6tyq5IWY1wRb2gnn66MfIqAamLdgTyaPC+9unDQUWyLQgP2Odrm0CzALyG5Vcbh9q/9D0va/DI4tA6ZYuGYXcB3m+5fYxHFbAD/GPIrwcpenMMVFZnkYwz/N7SNIdYZnhbup1He2DyO3UZo6J6szm1r2QHOhxVg+Ranz0HquxTHDbhdWDj4PuDToQPxUTI8GpgHH+Dj+cmAxpjb8Ch+vMw1TMKKY7IDdYkv/yODYb2B2C3jRgUlkzmXTSQCYxxaXd193U61F05EP22F753Y2YHbt5L/m9gpwm7C/nVcD0zi+KvPv8+zFA9HO7djcbqnVmWidXRGjgqZm0NQSjh0tWSqWRGAYYHtvaBLzgn0w5i5uCKYB0SjMtqIRmDev32C/ccy1mNKzxaAEmI29n9UVmGn5dB1i4ZrnYdZ4ZOIVvK9L2Mnj+f6IJ05Cc3jQYaQt1Xm9P5X61M3Uxh7K6tRy9zfY3MGi1X3URWUmoHdlaKeBebpg67oUSyJwEd7v6noswUzNj8VM3z4BfNzLcUtZ1we6ElOL3lZDizGYEpKFrhS4md7rZmfrUcw0fbp293i9RZjPIRu3Ais9XHss+fY73rxoLHBN0GGkLd52BDDVh5EX4pafn9WZTa2HonV2Owx6o/gQ1Tnd2niFaW9WtJ0RdBB+ya8XCX9sgdlOZcPzwATgFjJ7M+nCNCbZlcympTflp9hbwJaPJmCSrGmWx/1dhsfv4PF6twKdWZ7bgVlYmK0SoMLD+XbVa4dUJI6//Tvsmb14S3D9aCjkoqll6lbLs4pJqyZsbrfU6pSsihgVG6V/xS2JguzhUAyJwI+x08nsOUyTmcUexmjHPC7IdJq4N1tAiFZcb9oQTJvM/YGfA49jyizbLva0oHvsTHhdQf2gx/Mz3eGwofxJBKqS5wIHBB1G2spSN+HHCnrFtdTFnsrqXBPTlyxG8wdqo3daHK+QDSTCHLQOR82LDBT6rgEHO61r38d0drKxCHA1cCyma53Xdrin4U8L1HQdjFnwFBaXk1m8g/G2GKuTzNYj9MZrWeX8SPabWsahQ1SgpSk5Ba2P82Hk/zIwyxoP8dYawGZM75PidIvjFYMDiSenYmaFC0Z+vEj452vYKUTzc8zdvC3LgLMsjLML+V/yNl88Bvwhw3OWY6Zgs/0ow0zvF7d5C8q6V7iHY4Hr3MRotL7O+riKLhyqmRzLvA5IfOEYUNfbjUedxLRYb+ubwu494G3fRldcTUOr1w6meaXQE4GjLYzxInC7hXE2dD+m7bBXR1kYo9CtxDwiCtPsReFYOWQm+duo6Yu0Vrg0AMOtj+1yGdWxf2Z8Xr12oCSOeYRmh+IWaqIPWBsvnyhW4ahq7DUp29AwHBXkTKx1hZ4I2OgVfgn+vYHYqA9uvx96YXExCw7zt8JeIWts2xf4WdBhpK2p7Uzs1qzoMZ9Bn/06qzPN2ooDLcbSQklHdkWMwqI6+jzoG3y8wneIt/7Ax/FzqpDXCAwGdvQ4xlLgEQux9OVJYCHeqh3uifk+ZrKLoZj8DPhT0EGkYQCmwdQ2631sS353x9y05vYKUp1N2C/EA/AJqJdAT7I2YnzxDpDyoxf9GvNIIIsytfbXVmiU/jEnbPeZxTHz09qSCylLfQfTX8Y+pW6guf1xUtluCsofhZwI7IH3GY878PcNVmPepH7hYYwKTMLjZZtZoboE+G3QQWygHPgyptjPuPX+3IFCm6Hr6rwW5duL8Mlobe/OvV6XQHIudnYYbTQ61bHXMj5r1tvlaOcP2F1bMYuayoctjpe/po9axdxkNa7+B34ko5otSXVeS3bdTPNKYb3wfNF4C2P83cIY/XnGwhg2PtdCsgZTBKY+4DjAvOnXAXOBdzGLB18H5gEXY1aB70Sh/S42tR6K8qsnhp5LTXSe1SGrkjOAvayOabxARfTqrM4cUn45WG1y9C6rymdYHC//VUefJ/PaIZk4HjvVRwNVyDMCYyyM8YqFMfrzbwtjVFkYo1AsYt32zCAMxvSCOBTzXHd0QHEER1MBlovefE4torTDdoW3XVAc5cNKoNW4Tg2TVeaL1uKt+6PVmRZjcXHdGk4d4WcflPy0NnIBZanD8OsRQQHs3Cqsu5Av8trjfCnQZiOQfnyAtyJFIIkAwCrgSsyWylwnARHMXUEz5ns5F3OnUHxJgDEcu0Vveriga314vr092pebol8wdfRbGZ81+92hoG7D5uuz0lcytcrG7GP4TB/l9y6C0CvkRCDq8fzMf4Gz57UpkdfPNcyWYab+tgPOx9/OjxvaGpN8LMEsKj0Rb62DxaZdTW3syaCDSItSz9ASzW7VelnZTXi/kVnfG+jUTIvjhY//jwhCrZAfDXh9Qc7lAhCv18qfMrK58y/gOuBucl+0ZwgwAzgDs/hP+G8BdNUHHUSaVoJbQ71yMz4znjgG+JG1SBRdpHQ1U8dKYSv/HxGEViHPCHhd/ZvL7TWfejy/kJsP9WU5plJgrl/gvoWZLToXSQJyZQ0OP6I2NG9mZ1NT+W7GZ5lqdXOsRqL1TKZWvmR1zLCSRwR9KuREwOuWm8w7g2Uv8/3FX1SMicDBwBE5vJ4CrsA0EbLfiEb0TatfZLX9LhDqEWqimdeh11qh1C3A5vZi0S+zdskV9sYrAPKIoFeF/GjA6xrgXCZJXtuyZj4FaUcXmSVMJdhtQXs1pkyz3xU9IkADUO3zdTbU03lwyxxfN588TetouzX2/bMMraaiVOavPU3JM1B822Isa1B6CtP3DH+1G9vkEcFGCjkRyLyxxxfZq+vdP69vjqusRJG5p4GJGRy/GWZa3UYjKDDbdk7FrBXw0/XkLgl4A9OH4lHgKeBOirefxDIikROzetYeBMVp1I5OZHxe86IdSXG55WjWoCNziSczPE3bTNTzk9+FhkJIEoG+SSJg32pgJnafg14E3Ma6u2fbajHJhl+WYXYc/K37w2aXy3DT+hSmjGoNOow03UtNLPPmZPW6hJQvFQ2HgN7D8piFozr6PPHE7wCbtRpCq5DXCHhdgLeFlShyc60w1Q2PAwssjjccsuzv3r+RwLU+jPsfzLbDA4GtgMmYr4skAev8mbrKPwYdRFoUH9LVOT2rc6sSlwBftRuQSMvayAX42a44RAo5Ech8iu6LclX2dRDep8rDctcEZsWul94KvfkJsLPlMQEuBYZZGutdTJ2DL2PKxp6Pmfrvr5dFIf+O9qWNFD8OOoi0ueonnLTNBxmf19i2L6jzfIhIpEN2EXyukF9kWjyePwjzou23nfFeijVMiQCYZ+CPWxyvBDstndc3EphiYZxFwA+A7TGzAJluKxtqIYYw0cA0psU+DjqQtChuoy56V8bnNbdXoNwm5Bl1sGQXAVDYicBCC2NMsDBGf2zcydr4XHPtfLzv7FjftzF7/G2pxnudgDsxJY/vIPudHRa3k4WA0tdRG3so6DDStJiuLJ8xpzqvR1at5wd5RFDQiYCNevNHWhjLZX98AAASGUlEQVSjPzY6V4WxYMi/MG+UNl0LlFoay2uNgj9jZgK8ljwe6fH8MHmDgerCoIPIwElZzVw0th6F6Y4p8oE8IijoROBVTDtaL47G39rxA4HDPY6xlHDOCICZFfD6PVrfjmDl2fJAYB8P53/cHYfXbW9jMIsJi0Enrq5mcszrbp/c0Pye2tiDGZ/X+P5WKGe2DxEJL4r8EUEhJwJrgZc9jjEQ09LWL0fivU/ACzYCCchC4PeWx5yJ9+n0HfH27PZPmGTAq69bGCMsfhmeUrhqEXrAz7I7tbMBdDHN8oRHET8iKOREAMyiNK9m4l8J31MsjHGfhTGCNBPvWz3XtzngdXp5e4/n22qDfLSlcfKcfpaK6G+CjiJNphXy1K0yL0HelPwxqFyWxRaZmD5qFdqpoQgfERR6IvAXC2PEgLMsjLOhY4D9PY7hYifZCdKHmFLBNp2Otzdzr1sGV3o8H6CKYkgEFCtIqRomq5C8+OpZWbVCbmzZBq3DkuwUr7rRz1GEjwhsVhbcEXjR4njpOh54p49/+y8wHxjv8RozMM1m5nscp8eXgBstjPMkkPn+5fxzLTAde6WHSzHJRbaleb2uCxnh8XwwsxqFv7XMVacxLdrX72++eYsKdUHGZ9XrEkjeht0+G8IvRdiLwGYiUAHsZXG8dPU3bX8DpmGMF5sB9wIHAe95HGs45i7eRge7WRbGyAd+lB4+EjgUeDiLc73enX4d83OXrW8C0zzGEAb3UBedG3QQaXJx3WlMrsp8MWNV4hegvCw+Fbk0fdQqGttqUO7TFEMyTuE/GgDTs36JhXEqgX/gbTp/x+4xbNQAf5fwPxZYn+3SwwC/Jbtk1+uWvyMxK/6zsRdwK96LTOW7JURKsyvLGwh9BVOrnsn4tMbFu4P6pQ8BCT8V2SOCYkgEOoDLLI01CngCmI15hpuurYDLMYvIxlmKpZ7g2g/7wY/SwzsBdVmc57U89QDgj2Q2FawwlQyfpPC3DGqUqmPK1jYS9Fx4A1KXZnxWfOEAVKoZe7UtRC4V0S6CQu4+uL6bMM+gd7QwVgSzR3waJil4BLN2YCHmTrIUswZgK8yCtYmYokE2XwxeADLvdJb/ekoPH2xxzEsxlf0y2ZnwPwvX/RrwCnAeZmdHX33hN8P8fPwSf5rP5OPMwk3URB8IOoi0KLrAnULN2I7Mzy25Gm0t8QdIofQTFsfbmHaGS9fCbkX0iKBYEoFOzEryh7E3C+Jg3uQnWhovXZ3Aadgtz5tPfoFJdGy9gY0ALsC8IafrXeB9TELnxbbAXZiaAv8E3sJ0inS6x44B++Hf9lSAMh/HzpziHVaWnx90GGnTeia1VZlvB423TEJbbl+t1RXUxmZYHXND8cSBmBscAeYRQRG0Ky6GRwM9HsM0fQm7X2Bvn3o++if2Sw+fReYrgP9u8fqbY/ognIm5878Q88hiEv4mAeC9X4I9ii5cTuDUEV7XYOSIfpm1S67I+LT4wmHgNGB3NmY+gz6daXE8ka4ieERQTIkAmL71TwUdhAf3YbbaFbrzMZUhbSnDrNHIRLPF6wcpf2YEtJ5JXSyILcbZWEOKaqbv2dcjnU0o/T/sbYU1sThUM3mczd8Jka4iKDRUbIlAF2ZvudfSw0F4AfgRhftIYH0LMQsybfoecEAGxz+BaYwUdkOCDgAAxUtZ3V0HRekLmVb5esbnNSWngP6+5Wh+SXXsNctjikwU+C6CYksEwCwa+zbwZtCBZODfmJhtVKwLi5mY5+k2XUdmP/MXEP7EKx/q2q9EqeOzu7sOxHMMjF2X8VlzklG0zvy8TdLPUhEthlnA/FfAjwiKMREAU1dgP8KxKObvmFX0y4IOJMf8KD08HqjO4PhHgVssx5CpxZiWxtmyUeXQq7OpjtrYiZELK4HMSx7Xa4eIbsYUDLMXS6jKLxe4An5EUKyJAMAnmAVctrvf2aIxb4Tfwf6dcVhcg/c9/Ru6nMymy88AnrccQ7pWY7pfenmubvNZdTYeoiYadDKVPq3PpTaW+V1fVfIcFAdZjUWpnzItFpbyy8WhQB8RFHMiAGZB2nTMtPvigGNZXytmb/nPKcDsMwM9pYdtGon5uqarAzgcs5shlz7AlLR+Hm8/mzvbCScrS6GrFqXC8njlMWpj/5fxWU0t47D/c/ow1aNtltwWthTgI4JiTwR6PATsiqndH+TK3NWYO9ZdMIV1hD+lh88hsxLAH2PqRXiZos/EvcCerJsJ8PKis4v3cLKk+Am1Y9sDu35mPiUSqcs4aZn1djnauR1TTdKWZXSpqSFKoIpLAT4ikERgnY8w+7x3Ahoxb8q5shzTjXA7zAK1Yn0U0Bs/Sg8PIPPthCuA4zAzSJ9YjqfHS8ARmPbDyfX+/mWy738wBtjGW1hZmUNNLFeJk3dancmUUa0ZnzdkwK+A3ezGok/mpGiy/wNFYArsEUGxVBbMxLvAVOBcoBb4PubuzHapVhezJfCPmD3r8ubfNz9KD38fk3xl0khGY9aU/AUzq3AyMNRjHGuAB7pj6WsWqAt4FtOVMBtHYnZMbFqk8x1SEe9Ft5R2WTnAVn+Pvmn1N5Re6n0c/SF1scy7IN7eMpy1ehBaWVxnpBZRF7vD3ngZ0m4ryrFReO3pjM8oKf+QVKf3a7sqN63Z10YuoKxrJSg75YdVcNuVFabWeZh14P8Wr1HAYcC+mKRgJzKvPd0FvI7Zm/4s8CDg/UUscwoYZmmsLsxsRi4MwP7PagfeZn4GAt/FvNEeRPrNgpZg3vQfxiQV6ewIGUj2VQLXAKuyPFcIUeDysSFJGAzATLlWAqMxW4ZKMW+wGlOrYC1mCjnR/dGCeUEWhSsGfAXYEvMzMRzTgXBZ98dC4L+YxaBCCCGEEEIIIYQQQgghhBBCCCGEEEIIIXw1b0EZ8dafMnux373g7dFaFnYKIYSwrjgLCq0ccgmoayhLvcHcxHeDDmeT5rZNoDHxOE2Js4MORQghROEpvrvMhpav4zhPsn4dAM3z4FxE3ehHA4trQ/HFO0DqAuB4TMLWQUp/Nase6UIIIUQfiisRaFg6GKdjPn2VXNU8D/oGBi3/M5PHBdNzoKn1G6BOR3MMG8/YzKfis70Di00IIUTBKa5EoCkxB820NI5sR6vbUe4d1Fb6X/axedFYUpFjgTpgh36OvoLamO3a+0IIIYpUcSUC8davgroR+GoGZ70H6iHQj5HiSabFPvYcR3N7BV2pfXD0Abj6OygmZHB2O2XuThxf5VfjGyGEEEWkuBIBgHrtMKZtGpqZoEdmMcJCNPNR6nVwF4FajHITuKympHwFkTWdrHYUjjuMEl2OLtkalygQQ+md0YwDdsSUJM7EGmAWa9f+munbfppF3EIIIcRGii8R6DF78UDKU6cB56LZMuhwNmEN6DikrqR27KKggxFCCFFYijcR6NGwdDCRjlo0pwLbBx3Oej5CqyYi+rdUx9qCDkYIIURhkkSgh9aKeOJQlFML+ghM29dcSwH/QNOA6rqL2rEdAcQghBCiiEgi0Jvm9gq61h4JHI1SmfSZz8YqUM+i3b+Q6rqbk7b5wMdrCSGEEF8giUB/tFY0tu1KRB+AVhNAjwfGkfliPwAXeBfFq6Dno3maiuUvSl0AIYQQQZFEIBvzFpTRUTGaTjUax6nEzBgMQKvBKF0CgFafonQXWi0B1UZJZxury1qYPmpVoLELIYQQBa25vYJ44nLmJrcIOpScmregLOgQhBBChE/hNR1Krb0GOB9Xv008cSb1uvA+xw3F245g5ZD/0Zg8NuhQhBBChEthPRqItx0B7n0b/O0LKH0eNZVPBxKTn+LJ8aCvB77R/TdLoWtXase2BxmWEEKI8CicRKDx/a1Qqf/0XS1QP4vigoJICJpaxqGd84AfsX4XRePv1ES/jVI6gMiEEEKETGEkAlormpL3A99J4+iH0Po6amMPh+7N0vRKOBf4Hpt6rKP0adRU3pizuIQQQoRWYSQCja0/QambMjzrLZS+gTWdt+V17f55ic1YoX+Ao05Bs2eaZ60iktqTKWPe9DU2IYQQoVcYiUA8cTtmmjwbHcCDKP6A7nogL6r5zX6plLKRE1FqMlofDQzPfBD9MhXL95EaBUIIITalMBIB6FkoeANQ5WGUz4BHQD1KSj/KtNg7lqLr39zEaFx1MLgTQR0BbO5htDbg59RE/xi6xx9CCCFyqnASAeguDdx5EYqzAAv76tUilH4emI92X2Ft6StMH/Wh52FvbxnOGmdXFLsC44GvY6fh0Vrgt6wq/xWnjlhhYTwhhBAFrrASgR63LK4i4taDPpGNV9V79RGQBN0KTgLlLgbVCWoZrtuJclYAA1BshnYHgTMArUeiqARGATHgS5ZjcoE/4ahLqI7+z/LYQgghClhhJgI94ot3QKUuRfM9CvNzdUHdiU7NpK7qjaCDEUIIET6F+Oa4sYa2r+DoM1B6CppBQYdjwUo0t+O4s6ipWhB0MEIIIcKrOBKBHvGFw1CRqaBORvPloMPJwtugboLOJmrHLgs6GCGEEOEXrkRgbnJ7Uu6O1FXe63ksU53vRGAK9p/Z26P4EJe70e6t1FU+K7sAhBBC2BSeRKBel1CVfBbYC63uo8Q5nSmjWj2PO09HWNV2IC7fRulJwC4E+3XRKBageQy4h5bo09Qr1/OosxdvSWnq1yj9BLWVf/IephBCiEIQnkQgnpwJ+pfr/c0q4GoqPrvMatGcOe+NpLT0EFy+gcPuaHYGBlgbf2NrQL0O+mW0foJU1+OctM0H1kav1w5j2k5A698AWwGfEonsaiWJEkIIEXrhSATiya+h9D/QlPTyr2/gMIMp0Xt8mTY3MxE7otQEXL0tSleBimK2AcaAzdIYpQNFEk0SSIBOoJy3UHo+HR+8yfQ9O63HDTA3eRCuvhZTq2B9j9MSnWRlpkEIIUSo5X8i0NxeQarzZfovuPMvcC6ldvT9uQjrc1or/tA6jFWpMiKRCszsQQdadTBAr2bF0hW+vdH3paltP3DPR3N4n8co/TNqKq/JYVRCCCHyUP4nAk2JOWimZXDGk2h1KXXRx32LKV81tHwdx6kHJqZx9Boc9qI69prPUQkhhMhj+Z0INLYehVL3ZHn2W8DNrI3MYfqoVTbDyivzFpSxcuhRKPfHaHVIhme/QQV7Mjm22pfYhBBC5L38TQTmvDeSktL/YBa4ZU/xIeg5uPoW6qresxNcHmheXInbdTJaTQVGZD+Qupba6DnW4hJCCBEq+ZsINLePwO28Ds0PLY2ogRdR/BHdNY/ase2Wxs2d5vYRpNYeC2oysD/gWBjVxdV7M7XyJQtjCSGECJn8TQR6xFsmoZybLFcCTIF6HOXei3IeyetGPc2LxuKWTAL3OLQ6CLtNlN4HfibtioUQonjlfyIAMC+xGavUBWj9c6y0F95IK/AoWj+K5immVi724RrpiS/cGh05CEcdjGYiMNb6NRRdoG+gZE09J2z3mfXxhRBChEY4EoEeDW1fwXF/DRyDv7EvAV4B5qP1K5S4rzEgssjqorp5C8pYPXQMLruBOx7UeGA3YLS1a/TuSVL6dKZVvu7zdYQQQoRAuBKBHg2te+KoXwOH5vS6ig9NUSCdANWKUp+g9QpgFUqtQbufgZPqPnY42i0BNRhTW2ALoBLFaDRRYOucxg4vgHsRtVWP5Pi6Qggh8lg4E4EejW37otzLgAOCDiWPvQbqV9SMvkvWAQghhNhQuBOBHvHEgWjOQHEUdlbSF4InUfq3VMfulwRACCFEXwojEejRvGgsqch04CRg86DDCUAHcCcOv5GKgUIIIdJRWIlAj4alg3FWnwjqeGAfCvXzXGcBWjWgOuPUjl0WdDBCCCHCo9DfIKGxLYZyjwE9BdTuQYdjUQuae3HcZmqq/h10MEIIIcKp8BOB9cUTuwDHgJ6EUnv30dY4X2ngNTR/h8gd1I16OeiAhBBChF9xJQLra26voCu1D8o9BNQhoHcn/74e7wHPotQzKP0A1bG2oAMSQghRWPLtjS84sxdvSVnnBJQzAa0mgJ4AbEdudiFozJv+fNCvongVN/IKdaMTObi2EEKIIiaJwKbcuGQQm3Vtj9MVRasqIAYqBm4M1NZABVAODKHvHgDLUHSh+QxoB9pQOol2Wj8vTlTW8aaU+hVCCBEESQRsqdcO27UO/fz/VyxdwfQ9OwOMSAghhOjX/wOHv6b00ojwEAAAAABJRU5ErkJggg==;imageBackground=none;" parent="1" vertex="1">
          <mxGeometry x="-538" y="20" width="157.92" height="51" as="geometry" />
        </mxCell>
        <mxCell id="wImkBHEnD4N6jClxrFpg-126" value="Mailbox Workflow" style="shape=image;verticalLabelPosition=bottom;labelBackgroundColor=#27284b;verticalAlign=top;aspect=fixed;imageAspect=0;image=https://upload.wikimedia.org/wikipedia/commons/2/2b/Node-red-icon.png;fontSize=14;fontColor=#FFFFFF;spacing=-1;" parent="1" vertex="1">
          <mxGeometry x="-485" y="484" width="73.63" height="73.63" as="geometry" />
        </mxCell>
        <mxCell id="wImkBHEnD4N6jClxrFpg-132" value="Dashboard HA&#xa;Custom Button" style="shape=image;verticalLabelPosition=bottom;labelBackgroundColor=#27284b;verticalAlign=top;aspect=fixed;imageAspect=0;image=data:image/png,iVBORw0KGgoAAAANSUhEUgAAARIAAADyCAYAAACBBEoVAAAgAElEQVR4Ae2de2zd1n3Hu6avNGuS5dFlSZqkj0RK0zZp0qZp0yVtlShptW7umr3QZW41zKv2SNdqdTu5nRcjQ4xpjad1i5ZVEAzbLbx49urdAJrtzpIxCBImDxJgCBq86z8sGbMGbQJkyOjVIOw3HJI/8kfy8HHvIS95r78GDFK85Hl+f5/zOw8evq6js4fwH2UADUADJhp4ncnDeBbigwagAaUBgAQeGTxSaMBYAwAJRGQsIngl8EoAEoAEIIEGjDUAkEBExiKCRwKPBCABSAASaMBYAwAJRGQsIngk8EgAEoAEIIEGjDUAkEBExiKCRwKPBCABSAASaMBYAwAJRGQsIngk8EgAEoAEIIEGjDUAkEBExiKCRwKPBCABSAASaMBYAwAJRGQsIngk8EgAEoAEIIEGjDUAkEBExiKCRwKPBCABSAASaMBYAwAJRGQsIngk8EgAEoAEIIEGjDUAkFyhItryzHNa8Rw6R86/RToUKBvvt3WaehGtMDwxTwMAScBYGhbHi3O0xjaojgsV6qo77CGaWJGBhI254fS5aRnx4liZod3udVsUHizCcXu/ASTm9eAZYTuEBZAEDKnhSg2ChJap0lunWIYWqCY5QmFjbjh9nM8vjNOSG8c6Tb3gT6MHi3Dc3m8AiXE9cH20yREgyaoiQyAhWhob0HYfokQ4uuBauHMSNuaoZ9Nf30mHzm5Y4dfOj9OOQP49WITj9n4DSNKXtx/U7focQBIwpIYrWgMSWpkJGWpk+N0Vmt9sBkjihe3BAiCJrKusNNNG4QAkWVWmAEntst3iE23Q7FC84bJYt7627FLEez5szHx/XkeAJF195VX+rRouQJIDSKqnZojHTGtzB1N0bwa9AdDNKk1Mr+fYtYk3FIAkvnxa1dDzTjdAkgNIlsbEzMhmlQ50J4hzwA+e3WlA0j1Au1+do+rqBtVkl6i2Tkunx2nXM1FxjtDUJYdTl+aMZm22vDBO8xfXffHXVhdpYu9gihmr52iXk37XFSOi2qVVmj9xkPp1ZdZ9kGYv893rNDXYq4X0tjHPu6MLk7QtqzpGONryVpACSLISh+jarE2PkOyqLL0WP+i657S/KxTnFahK63p+kpb80ztsXd5xczXC0LIBydLCamCGyYtana0tVKINuK9C8wwz/2PeX7VlOv58GBRde6tevLoxqL5xWnLBukzH+6KAiutZeikASU4g6ZCDpxcmaWtkPEe8QVbHMGJB0nuMqgIia2dn6MBLg9S/fZD6X6rQxBlh4LUqjYZa9ixA4tj75jpVpyepsv8gDb867o+biFZODoVbsO4jNC/SX1up0sT+fVb6d70yTrMXGKrKPVmkQyEQ9NLognfP0thOEUfcbwBHluAIhgWQRBp4ncILeCSqoIfnWPCrNDGgD69rf9VthdlziQNJ/8lV736fEXH4veR1jYg4TK/iMwLJ6gKNhoy8h7oGxcK8ULfOb+hr0/toS6j8/enXdk0kjBRsnPU6XS+LdTg6byUUF5cZjp4+GisLgCQrcWlA0iEWmNVO7xMtJ1fWAFXOMxe8BWxxINk6WKHK0XGqHK3Q7qgFbyIttHAkEG8WINmg+ZFwt4PF6HXViKqHxX29YjGcZnyGn+/o3EnHL3C56Ge+tr666HZx1IB2V+cITbmMjQa3FwfXAY5ZlAlAkidIOsWS98sLNByMa7s3yCqX1MeBJFWlS5CcO5YDSBIWpMn4Bci2ikHQpMV60lNbmxwO5EEZ/4C7sI5oneYXXIrou1TBssffmjJtHKoASVaCijIesT5kfr9onTt7aMcpFr9sdQdEaxyzjqR7kIZPLFA1MGvC7bh7LAIkncfI7bCJ8SGvq6dmXBJE2zvpLeUP5cF5NjBeZOV5NTwTlQq+WengCg0HIMmq4iVIpPClO39+XAy67vOmMn1uvuh6RLxrs2VohlbEgKULDd2JTIuVVxG+L17bOOO8Ie+3BI9EdTN4VkbE4T2/TMejumVufQgYrcxQv3vdD6Bth70ujvJM8Fayv3yaBVGAJEKgdVdAFEg6e+mA+w6NNw7SIQYGV07J2Q1hhDqQiDUnpGZNThykXX2BLQEi06JEJsIXRs759Yw97A15vyUZrFjvIeLwnl+mSmg2KWgAAiSrc7Qrop52iMFnayXxy36vj/OFY7B8s/0bIIkQaN3CizNeMehqQyMCLlZahKFrQOK92Be9IKsjLi1NAYmAQFTXJmk/kzRdGwlV9sbUWFQipLI1orq1kpXmShQOQJJVZaQ13ssLtEd2d0L7lsSBRPwmWvqQkNOmRROG5zUYeCRyCjiLwdbpEc3AoBjIplWaOul1cexZHMAipIustK4JByDRFEpDFRBrvP6B1fkz3hLu+b1BwQtYhDwS8ZsGApzurhGx+jOXMZK46d9esX4mMP0rZ6li13kkT//KLo1aSaymjL2p9A2aRRdHA9+g1rL7GyBpEkg6pBci3PA9ofgFLEIgES/30QZVD8tVnbYotrwQWD6fC0iiVp320JYh8wVpu8aW3TUi2gVpsksjuzJ9YqZHXg+VcXYGxPC+0o8ASVYiS/BIOnyDrjZJ/IOsLO44kPTQ1sOLjCFSg4srZ+fouLVAbYZmL/Bbw+KWvECiouAl8keP0SHNEvmlo2HQdQSmbINL5KfOizxol8j7vZX5vf7BVempoIvDmsr/CJA0DSQ91LHXXV1BRFFToPEgUS786JwwNsEMPl2ZXvDWYIRmPET4mu5RujGSZZo6Kd7p4YjFUb/83RG0wUt7vjd7zx0T0+lO2N0if2o6OOIN4Svdg8g6/wBJM0HSKdaO+NaUyBZDGkJ4wNMWQC/1752xthBwbXdzg9YuLFDlBTUVPCyWiweBJcJvFCTOKl21jYDyguQ2Bqm3EVDbIBxdoKVVfh/JzkltdZlmo7YRkF0XBWLNuz6qfHzv3Kg8YhYn9/ESgCQrkCCc3MWadSuK8GQDZnYOkAAAAAA0YKwBgAQiMhYRWnaz1rwdyg8gAUgAEmjAWAMACURkLKJ2aFGRBzOvCiABSAASaMBYAwAJRGQsIrTmZq15O5QfQAKQACTQgLEGABKIyFhE7dCiIg9mXhVAApAAJNCAsQYAEojIWERozc1a83YoP4AEIAFIoAFjDQAkEJGxiNqhRUUezLwqgAQgAUigAWMNACQQkbGI0JqbtebtUH4ACUACkEADxhoASCAiYxG1Q4uKPJh5VQAJQAKQQAPGGgBIICJjEaE1N2vN26H8ABKABCCBBow1AJBARMYiaocWFXkw86oAEoAEIIEGjDUAkEBExiJCa27WmrdD+QEkLQaSB+5/mr7xpQdp/K9uo3///o30nz+8ji4ffyvRqTeX8r9Km0rjwvdvopPfvd1Ku8pDOxgP8uABFCBpEZBsefIx+sc/u5NqP7q6lMCoB2QqDyovKk8wRs8YW7ksAJKSg+RTj36KXvvzO+j/JsrpcdQDkOC9Kk+VwTtJ5bGVjQhp7yGApMQgGep/b8t7H0F4RP39F197L2BSYi0mwRIgKWHlPfTAUzT+3duuGIgwXFSeMX7Sml0dgKRkIHn8o0/Q4uHrrziIMEzO/d0N9NgjT8A7KZku4ZG0UIXc//5PWzMxbFRX6nH+wE30/vd9GjBpIe3CIylRZf3TnnfU5Ymc//vrrSnVH+x6N/3NNzusmZB/G/3pusIoK6zUAHNSK4jfy9MNAkhKApLtX3wwFQAu/dM19OdfuY8effjJWEP70uc+StN/e0uqMMsKk689+6HYPAIkAAkEIgB2/weepv86em2i0asFXR9+8Km6yu53fuVh+nGLrj25+MNr68orwFIcWOCRCIMuSoh/vb0zESIHnn9Pw0alFn7992tvS4yjjJ6JmgIvql4Qb3owASQFg+QjD3UnrlZVYyemov78Uz+bGiTP/vzHqNH/WcNIeVMPP9RtnH/T8sPz8VABSAoGyTd7Pxhr4Go6VM3mZCHkb//WA7FxMQRM4uIwsjyqd4tM0oRn4yGQRfkAJAWD5Ed/eXuscf/er304MyO6997PkAJTkpGbCCsp7EZ+P5aBR2aSJzybDCKApGCQ/PhE9Ju7/3HwhswgwsbQ/xsPtRxI1BvEnH4ck426iDICSAoEyee6H4s16u/+4b2ZG5CaIfrff45/g9hEiI14HGme+WzX45mXhUk+8awfaABJgSDZ9sxHYkHym59/JBfjObPv5th4TYwkDRQauUetizFJF571G37W5QGQFAiSHb8ZP9D69OOfzMV4xl66o+VA8o0vYsA1a+PPMjyApECQfOer96U2aLUQrdEp2eAGQt8buCd1vEGxqb1D4tLRiLeR5pnBr7wvF6gG84e/G/NcAJICQfLdr9+b2qCV8aYxON09//q9W3xGWE+8QcNKelYXfxbXVLzBtODvxow+j3IDSACSEKDihAaQlMd44+qp2b8BJAAJQFKgBppt8HnFB5AUKKKk1l1WOro26NpIPZTtHCABSOCRFKiBsgGh0fQAJAWKCB5J+p3xMdha7rEZgAQggUdSoAYa9QDK9hxAUqCI6vFIslxHUk+8QcEmPZvFVK8uDHgk8Egw/x8BqySjDBpxVn+bxJv0rA4CWVwDSAASgAQgCXWf6oULQAKQACQACUASoYGsvMyiw8EYSYEVnNRNyEscJvEmPVuvp5H2fngk8EjgkUTAKskoARJvehggAUgAEoAEXZsIDeTVWDQ7XHRtCqzgsnokcdsE/MPuu4yhkLY7I++DRwKPBB5JBKzKChJpwGU5B0gAEoAEIDH2YgASgAQgAUgAkggNNHssI6/4MEZSYAWja+PNyiR1oeCRwCOBRxIBK4AEIMnLQ2h2uPBIIoy8GRUBkAAkzdBZM+IASAAS4/GLpG5JFr+ja4OuDbo2EbCCRwKPpBneQjPigEcSYeTNKHyABCBphs6aEQdAApCga1OgBpph5M2IAyApUETwSOCRNMPImxEHQAKQwCMpUAPNMPJmxAGQFCgieCTwSJph5M2IAyABSOCRFKiBZhh5M+IASAoUETwSeCTNMPJmxAGQACTwSArUQDOMvBlxACQFiggeCTySZhh5M+IASAASeCQFaqAZRt6MOACSAkWU5JGo3/P4/6/fu6Ul4CHf0fnOV+/DqxYFajUJRgBJgZWTBBJpSFf6+Zd/+WGApECtAiQlLnyAJP0YyWOPPAGQlFjL8EgKrByAJB1I/uXlWwGRAnWa5I2o3wGSAisIIEkGyY9/dDU9/lF4I2mMuch7ABKApNQDr89/+X54IwVqNC2cAJICKwkeSbRHsjZ2DWGAtdy7oknIACQASWk8kv957W009crP0Oi376ZHH34SnkiB2pSQSHMOkLRQZaWpUNzTOq14O9UVQAKQoOWHBow1AJBARMYiaqeWFXlpzKMDSAASgAQaMNYAQAIRGYsIrXhjrXg7lRtAApAAJNCAsQYAEojIWETt1LIiL415VwAJQAKQQAPGGgBIICJjEaEVb6wVb6dyA0gAEoAEGjDWAEACERmLqJ1aVuSlMe8KIAFIABJowFgDAAlEZCwitOKNteLtVG4ACUACkEADxhoASCAiYxG1U8uKvDTmXQEkAAlAAg0YawAggYiMRYRWvLFWvJ3KDSABSAASaMBYAwAJRGQsonZqWZGXxryr1gdJ7zGq1oioVqVRFwrHqEpEdGmOdrvX6iugQ+dUAOs09WJ9zykh7p5eVw9T9bD37O5J+9rKicEWNVzzMoWRenpot7LIASSO4JQlLVSoK8GQd5xatYyuUaPt6D5C8wokqxIa5qLPGiQ7Tqh8blD11QGARGii0XLeMnCQjp9ZpbXNRTokwrMM9PCio6n4gwS9zrC7+o/QxLl1qm064Wxu0Nq5GRrt7xV1KPQeF925Y+IZHVCeo11Hq7RyyQukdmmZpvYOamwofC9dWqX5o8O0JVgWTfo7X5DQMlV6dYXG1/bR7GUuuMZaf50AOjrLBxJ9OrkcWuFoXqa6MqgLJM/spD2vzlGV2x5LOhqQDBykytHxyP+zF9SDqzQxEFPuL07SimqgaINWzi3QxNgczV+wvUqqLdKhPn52iIZj4qqcXrZSuXJqKBYk7LFSbZWqp2do4vQyrVkA26Dq4Z3i2QEaPeOk49IyzU9P0sTpRVpx7GhtekQDHk5rfsecQUIUV4Bd+60OiFXQDXskWuKai74ugQfSoOva6Iyota6Zl6kuv/WUM5crba5TdXqGqlbrrQFJoD588faO05JS3Plx2hp53wBVztsQmd//nDDiHto2ZoOhdnqf77ovDjdcDiehQeU0XV6g4W5h7H3jtKRgcnmB9nCYQwtk8W1lhnbJe7sPOo1yQlwcTsbH/EByvkrzqhAixym4kFdpyWohwh7JtqFJmr/o0FfVa22dlqaPUL8sQK33UY/od9LoNNOfyBLpqSN0PGKMpOv5cX+aHJdSduFY8NJ19l/rpWgDGqEpZSCbVTog8rltZIaqqxsOdIlqq4s0MSJbqh4vzL0Vmnda7bXJYVfwadJuGUTfEZri1lfFaMU1mX7cqXuYDkwv0pqleDvJKr2VFzyj5PJwM2SdhDUgDbR/7yQdemmn47475UT1gcSOd4Nmh4TBvjhDK0qrFyap3zKwI7Z2lWEHDe7FOVpTaU3sqvRQh3OvDzrumN6CN6b3qt0VU96EzK86H11Qka3T1KCd3v6TdsUujYW7yNGaEnkN5iejv/MDybljtOe0En6g0jjhAzO0osro/LjWaLcdXrTJq1y96UmqjM1RdcU2pNrZY6I10UFDd01XmL00esYxzs11Wjq7SNWzAiqBwdauQUdErvu56Li/RGuTngjYSKJB0kPsjYXEw0IV40tuWViu7AxNneE0+sdcbCEpCKn/G1S7vEFLJ22QpE27O+ak6mZ1maqqTCRUIhsGp3y7R2iKIXZhgSaOjgs33QPF1sGK1fWYtUSwQdVTqitSod2xXWFZhw2ApLtiA2JlhnawDtVxpGprLSlv6t6XHY9g4UjI6P0Q6KUDFgQCXajtk7buFQCdhkKnFw6LwSG1xL/5jwN0nLts22U5Nec8P5CoSmFYCKPgzNuQIZrfr2udh+j4BWUIi1Rx+6KqQHbS8YuWwmnCLSwdNHTXNAXKbqJKq2j9O/qcmSAJEnYdLy3QnmdEWMpwLBfbcyl1wghdixA1Dz6rcrHKqm/SdcV9npjG7WWQ1M6N+722OtLO9RLsa3swk4PaohzYMPcvWABbmT7o66t3sbEGDLDxVpTLPb1HssNpzd2y5TR39tCWvj+lrVID4jdbs8/RtpfG7e7U5iodjxtfUc/GaL9r65/SNqGhkDZk3M7A8crJ6Nm+rq1DdGB61YJh7cwRX7mzveV9zBcknUM0YbU4npFZGWIjcvp+9YjJLnSvZdMPrKYDCVdgKjdxrz2eo7uXw5nfaxsW/y1bkfA10WK5UBy0y2vTm8q2W6QNmn05bLR2ua26UHXL0XGDXfGkTjsb5zIdD3kG6crUjVMag3XuPB/oErhprnuandOaEiQMUzneEEpjuIy5e6KaL+vf6gId8M3aaJ7p7KXhuRhvPBBvWBsiTAckIc+1k7uynLANWjox0oazNo6buPW18Kh18JpeTL3U/7I9RuJOv3GZSU/BYIxEH69dicHfuLLdJGhOGBx8L/+tjEt3rcMxcLe12e5090SrbadDE5l7yYNqMM1s1By3+4jmxE5rHCzifhPCV0byzDAdCoyRuFEWBBJXcyfjZ0+4zNxj7wgdULMypxa8Lt6lKh3wecqB/PPgabALFQAIx8H1I/XCv3XEgGTHK6o7OElTZ7iLvUErJ9tt1ob7mwHvo0PjpegMwHOlF2lqbJwOvDRI/dsHaXRODb56xmPikeji5QoM/mZX9gYtTUZPKw477q5OGLprHZ3OoN7KjDXIt9WZEWDPRqWF0zH/WlS83rgC3xtcRJc+7XGwiPtNGJI7RrJBK2dmqPLqQdq1XdWd00UrBCSO9xIYwOa6rufo6lLTXedwuK51XSi+Rx75/jiQuI1NBIw63HIPjMlE3Z/x9Zy7NrbAuN9tFaym7xg2ADFqHui32oVeFEj8q1WlGOS5Thi6a+oZ2wVWXQlnFiswUxAuG2G0ATFE3RsVt0yzfR4Hi7jfvDTx4ODSmH9GyQV+ASDhgW3f7Emg7MJl4eXJ/5szzRqoJ/eeUMMZFY53Pa5+uDy1kAnkgRsiXffbTV/gmayuNwUk7sDT+XEa1czkhAzghegpNtvwsgEJV+DSa8lTaVxJaVbrcriy8nXXrEp0ZgGWTtjTq7W5g77ZADu/8etxWAyhcnREkz7tPO4QGNOywkkHkkNnVSdG1o9jML1FeSQR43SxBuXk1fEUuXztYzxIeLBcpyl/OB5IOuqY/mUdSa+Vw+V6bl+QdPKaEWdqMtB3DBlAt1ORm4t0QIxubxlyAOMTqk7gumui4lhE7B2lmbVR8/9qWpXWaXbIWw+hKlGla+n8pLtAiCs7FUg6ndW9VtiaQVWeDt5cpopvkK+X+o8u0tLpI7TNyU+oHDmfdaSdDaHRWRvO+8rksDd70D1IlXPONHuURxIcIOa0Rx4ZevGDrV3udG386xr+WRuGj1q/IZfD99CW/c5U8bljXv44jTygm9CFCs7adLDefStme6hDMzPH3pVaNsH1boGke9iZ2NBAnNOX47E5Hkmnt25CmWKQ1mED6KXRhcD6jov8tz1s5xmpDhq6axqQdPa6g6DW0mS1ZuLcqv1uhQMNOd7g9o91y6ZX59xpYTYmL40Rg61OxXLXz7eC0a30Xto96SzMUGtdzszRcTXwx2tqxFRvuBy9PKdNu9fXJqqtqHU1i1TlsldFz2Nfbvq8OCxBM5zV+sGLYl2OVZ7h59l1p0tqzcoCHXJnsALhhuJLAxJuwBLGDXgZgHhfy113w3V9dIZmlTZUGdSWqaKZ/nUHdOOWw/NArHpHSHTbfUvkedm7s0Tfv0R+Jx1iKDtL5I9PV2nJeUdn7bR/2p29lbyPTQNJh9vy+ldsqgzqDSCw4rS2TtUT+2iXsxbAmw7TQUN3LUqYO2n01KLzXoPymNapeuoIjVpv8IbpvuWFwMpWzWrbekHS4Qg5ug/fS/17/Stb1SrfauAlLX05evlOk3ZLcH32y2o2snll6xF7vUwSSFSj8fy4bxXu2kU1ZeosBhMLsay4ukdo4oLTSKj3X17w0hsv/mSQuN5I7HJ4bwUqXZz0LVTj8nJnDbUv7TnpZW8k6f0yd2VrlUYFSDo6e9O/tNc9aGtWrhxuv5f20goB98UbCsoH5dM6GsjBI2mdzEOoqCtoIBsNACShvnc2BQuBohyvJA0AJACJb7r5ShI/8pod7AESgAQggQaMNQCQQETGIkLLnl3L3qplCZAAJAAJNGCsAYAEIjIWUau2okh3dp4UQAKQACTQgLEGABKIyFhEaNmza9lbtSwBklKA5Dna8Yqz0fXZ6O+faL+zcnacdokXG7VCdDZM8u/oH/42Sl3fUVFL9E95Lwxq41Vl62zeJPfm0ObjYpUqz/tfkLPDbFI6eel64MNmkfkqhW7KAzCApEBBbOnbZ+8kxi+0qZdbAm/HukIWQl+7UKWpU3Pey3TqZTPfext+gdlv9Pq3BvC9JJbwHZVDZ513YS7zN1d4Ry6i2rlj/rdQfeXpbCcptzfkHduJiPPhfi9GvdUdeNu2OekcIDePAElDHipA4hO+3wBdI87lHn7pzH4pbkq9OBgDEn5D2L9hkPf2cvCNai/tzjYF8rV3fgM1k++ohF9sdON24vFesOS3cTco6nsxCqTupz2alM6tr9pfLKg5L8HJt7bdvOSigWbqLd+4AJKQQDRv2mq+XeNuCqxa5JE59zVuxYK1CzPulgLRQhyk0bFjtKfP2duE9x3ReiTDzice/K+eW2HzPq/nxz0DFHni/Stk16KRjXSqh8PdDt1bzjK/tickX+GPeSu72/lwlXy7uIENf+pOJ38xYHWOKppvNsv84DwaRgCJMDollN0nnD0n1N4flsvvufG+zX7Y8Gsb1h4VaxfsvTt4X4j4L7lpKoTD04IkxgB531dpgG6evO0b3S+1RW1E7TzD+4Nwq2xvMOztCyuNyQaJZjMmKyzHE5Kv8PNGyq9oNmBmkFyYdL9ZFAeqbNLJe3vYXlVcfDLfOA/rFyBxjU58i+RyYJdwd2Nd8bEvNnzVr5c7pol9KcKfdAhXgCtKDq9ukDhdJPEJCzdMp2vgH2SN32SJdy1P3mzY23JQQsqN29ljxecJybIOnPOnMGUXLdawU3zvxUoL14ccp3Hi5s2e+ONmsfEF0uvmE9etMRWARAiBhSTFzILhLgLxpyLY8DVdiqQNhjhM35HDaxQkmk9Xul2LwK5jnE/2OnzpiPn8gXcft+T+L/15vzuDrDq4ifLm+93dyMQOZeq3XNPJXRqx7WdsfJp0c/px7CGARAjEBYB2ly6ne7E6R7vUMzGG74ZTz0efYsJzd2DXdl940Da4d6mma+HkNdZgEkHiDfBGbuvneELRO74Jz4wNWu1JG/hWTH7p3Ol8JFyO3ySAS+gE4BD155QLQOIKJMogudAC4xQxhl8ISIKtv2b9BhtAGgPVd216adfYsv1pyJhpX3v8wm+kHLfv2HeEZq3taMPTvuq+vNK57aj90Tb/DFhCfK5OWA84yroESIRAXADoPBIeDGSvoDQgcb4BxOmy8qNZvyHyGWegwUFMKRYeU6iJHfPl7/a5swO7HGQVcbv3u+NO6zQ7EvwGjm2k+aTTKS93Q9roE23XT5cXXEPXxhW2aAHrGiPRjGm4QMqsa8PTv8tUCS48003/JnUt6phW5fLZtr9qr3NZiV/8xhtZ68qQw1I71U9YO9NvkH+H9EArn0s6h2hYfYJT83/C2Z19Zc7+nb+c6KYbwIhcrAaPRIqDP6VwuUqjctm523pqZm2aAhLP7fZNQYvPaUjDdQdZNZ9MsIyiju+oqPt9g6FBkAIoGBEAAAeuSURBVMny6/QGWQ9E3icGag/rPRHXcHNLZwBYTh7iPCA3Tb786sO5Eu8FSALCcNeR1Ozl4MenE9aRNAkkHb4l8gs0MTZH7tJy3xL56EFWKXDf0vO476hwF25zlWbH9C155ehB+zMOSZ5Qp7cUfe3cjNYrUJ7CgUHvy4e5pDNQ51wuAEnjYARIQqLSrWxdptkfiC/HqWfYwJoFEhWn870Z33dWgi/tpV6/kfI7Ks4sTvRIgvrFnjGyPxAVN8jKA9rxoXlL6pWws08ngyN4BEgAksi+W1As7f13mq5F42KJLztnkFWsy4i/P690INwiyh0eScgjgRCLECLibG3dASQACbw5aMBYAwAJRGQsIngTre1NZFF/AAlAApBAA8YaAEggImMRZdGiIYzW9moAEoAEIIEGjDUAkEBExiKCN9Ha3kQW9QeQACQACTRgrAGABCIyFlEWLRrCaG2vBiABSAASaMBYAwAJRGQsIngTre1NZFF/AAlAUghI3vo7N1Ka/1mIHGHkDzqABCApBCSv+5PXUZr/gED+EMiijAESgAQggQaMNQCQFCSiu+97mu549FF654c+UXclqmfufPRRUmFk0Zo0I4y73/8UveOxR9z/abwRdY98RoXRjLQijvq9IICkiSC54+Mfo+u2voPe/NW3hdz6a758M93a/cFIQ/mZpz5I13z5ptBzKqzrfuMdFljKagAqXz/x7atCaU8LE77v9d+6im574qHIMipr/q+EdAEkTQDJex54kq794u2pDOmtfTeRup/F9+4PdtHVv3tDqmcVUN5zv/csh1H08ao/elOq9DMw4o5v+MZb3LIpOl+I3/NcAJKcQXLXRx6j1+94Q12G9Ibtb6F3PfRJeueHP0FXfbM+I1RxvfPhx0tlbHFgaOQ3GLBnwGUpC4AkZ5C8+Q+urQsibFhv/PrVpFpf/rue45u/cm1pQXLrkw/WnbZbux/0lUNZjAfp8IAGkOQIkht/6T0+A9DB4KqBN9KbvvaTiffpno27duMzd9dtsHkZhkwng0QOosadqzSpZ2QYeaUT4XpgqLcsAJIcQZI0wKi8lXvu+7Rl8Df+cjJ0pDElnb/+W28oNUiS0s+/WyCBR1KauowCDECSE0jueuRnfa0oG4Y83ipmIO5+39OkZiXk76bnZRkrkflgj0ReizsHSBr3EqKMPo/rAElOIPnpn3t/LBTUTMY97/2Mr6VRsy5xRlXvb7d85gO+8PMQUJowZboBktYAQ5p6lfcAJDmB5Lpn46Fww6++K2Tkap2JNDrT8+t//c5QHLLym3Uu8wGQACSlEGWzxG8aT5J3oaZ2VRzvevBT9PZfuNctWzVbIw3P5Pz6Z+9wwzXNj8nzMg8MkjQv7Kl7VLzqGRmGSVrwbD4gg0eSk0dy8+c6feKXhnD171/vGrjyTN7Uf437d9xzMow05xJQRRqQTCuDpJ70YPo3H+Ovpw6S7gVIcgKJWmEaNa35rg990gUHr/q882Mft669+4EnXACpFa23dX0oMpyo8Pl6WVa5AiTlB0ESKJJ+B0hyAklSwavf1TsobGTXf8Ebz7hm29ut62UBQZq8xN3DeVRH9kjQtWkvuAAkOYIkzitRL5/J8RC1MI2NUf127Zdudf++65HH6vZKygQhHUjktbhzG7gYI2FtlPUIkOQEkts+9WHX24gzFPkbt9ZKLNzVUecKMvK+tOe3f+JhF0ZFClCml/Mor8Wdq3RjjKT83gtAkhNI1NRrnIHofrvmt28OGb7aPkB3b5prP/WFu0LhFQEUmVaApPxQaEQjAElOILm9AY9EGZzaNkBW5Fv7bmwYJLd/Eh6JLEuc5wcxgCQnkCjR6sZI3tZ7aywYbvrFDhckanZHtuZR5ypMnqnh490f6HbDKdqAZLrZI+F0Jh1V2tUzMoyi84P4w0ACSHIESZTg4jY5Ui/b3dLzAQsMqqsjDUh3ft3W20sDjKj8ynQzSKLu1V3HGEnYcHXlVOQ1gKQAkKgKj4OJNLy4cxVGkeJJG7fMA4MkyRPh31Uc8EgAkpYQelqDyPq+6569I9HjkEYoz9WzWacnr/Bkuhkk8lrcuUoTPBKApGXEnpcRJYWrZlbiDEn3W1lmY5Lyxr/LPAAk5YcC11s9R3RtCurayEpS79tIY4s71701LMMq47nMD0ACkMC7yBE6Nz1zTyJMbvr8PS1ZBwBJe8JDNlrwSHKEgyzoNOc3b7k3EibqtzRhlPEeHUjwrk17wQUgKRFIFATe/tn7QjBR18oIiLRp0oEk7bPqPgy2lh86AEnJQKIM55Yeb5vGsmyXWI/hB++VIFE75qf1Rvi+4C77wfDxd/GgAUhKCBJlGOqNX95FrdUN5Sf++PUhL0vCpZ5zFVarl0c7ph8gKSlI2klsSa8F1AOSa794G0BSQs0CJCWslHaCiMrL3fc9TTf8yrvr7tJw14aP6qNf/B2gdiujVs8PQAKQoIWHBow1AJBARMYiavXWFOk3H6wFSAASgAQaMNYAQAIRGYsILbp5i97qZQiQACQACTRgrAGABCIyFlGrt6ZIv7lHBZAAJAAJNGCsAYAEIjIWEVp08xa91csQIAFIABJowFgDAAlEZCyiVm9NkX5zjwogAUgAEmjAWAP/D45wNaRbXIMIAAAAAElFTkSuQmCC;imageBorder=#ffffff;fontSize=14;fontColor=#FFFFFF;spacing=-1;" parent="1" vertex="1">
          <mxGeometry x="-723" y="414.84000000000003" width="160" height="141.32" as="geometry" />
        </mxCell>
        <mxCell id="wImkBHEnD4N6jClxrFpg-140" value="" style="shape=image;html=1;verticalAlign=top;verticalLabelPosition=bottom;labelBackgroundColor=#ffffff;imageAspect=0;aspect=fixed;image=https://cdn0.iconfinder.com/data/icons/social-media-2092/100/social-56-128.png;strokeColor=#FFFFFF;strokeWidth=5;fillColor=#FFFFFF;fontColor=#FFFFFF;" parent="1" vertex="1">
          <mxGeometry x="-98.25" y="493" width="56.5" height="56.5" as="geometry" />
        </mxCell>
        <mxCell id="wImkBHEnD4N6jClxrFpg-141" value="&lt;font style=&quot;font-size: 15px&quot; color=&quot;#0dc6ff&quot;&gt;&lt;b&gt;Telegram&lt;/b&gt;&lt;/font&gt;" style="text;html=1;strokeColor=none;fillColor=none;align=center;verticalAlign=middle;whiteSpace=wrap;rounded=0;fontSize=14;fontColor=#FFFFFF;" parent="1" vertex="1">
          <mxGeometry x="-107" y="552" width="74" height="20" as="geometry" />
        </mxCell>
        <mxCell id="wImkBHEnD4N6jClxrFpg-142" value="" style="html=1;endArrow=block;elbow=vertical;startArrow=none;startFill=0;endFill=1;rounded=0;fontColor=#FFFFFF;strokeColor=#FFFFFF;strokeWidth=3;exitX=0.5;exitY=0;exitDx=0;exitDy=0;edgeStyle=orthogonalEdgeStyle;" parent="1" source="wImkBHEnD4N6jClxrFpg-126" edge="1">
          <mxGeometry x="-0.0114" y="18" width="100" relative="1" as="geometry">
            <mxPoint x="-471.25" y="418" as="sourcePoint" />
            <mxPoint x="-538" y="372" as="targetPoint" />
            <mxPoint as="offset" />
          </mxGeometry>
        </mxCell>
        <mxCell id="wImkBHEnD4N6jClxrFpg-124" value="Home Assistant" style="shape=image;verticalLabelPosition=top;labelBackgroundColor=#27284b;verticalAlign=bottom;aspect=fixed;imageAspect=0;image=https://upload.wikimedia.org/wikipedia/en/thumb/4/49/Home_Assistant_logo_%282023%29.svg/1024px-Home_Assistant_logo_%282023%29.svg.png;fontSize=14;fontColor=#FFFFFF;labelPosition=center;align=center;" parent="1" vertex="1">
          <mxGeometry x="-507" y="461" width="49" height="49" as="geometry" />
        </mxCell>
        <mxCell id="wImkBHEnD4N6jClxrFpg-143" value="" style="html=1;endArrow=block;elbow=vertical;startArrow=none;startFill=0;endFill=1;rounded=0;fontColor=#FFFFFF;strokeColor=#FFFFFF;strokeWidth=3;exitX=0;exitY=0.5;exitDx=0;exitDy=0;entryX=1;entryY=0.5;entryDx=0;entryDy=0;" parent="1" source="wImkBHEnD4N6jClxrFpg-124" target="wImkBHEnD4N6jClxrFpg-132" edge="1">
          <mxGeometry x="-0.0114" y="18" width="100" relative="1" as="geometry">
            <mxPoint x="-344.87" y="550" as="sourcePoint" />
            <mxPoint x="-344.87" y="447" as="targetPoint" />
            <mxPoint as="offset" />
          </mxGeometry>
        </mxCell>
        <mxCell id="wImkBHEnD4N6jClxrFpg-145" value="Internet" style="shape=image;verticalLabelPosition=bottom;labelBackgroundColor=none;verticalAlign=top;aspect=fixed;imageAspect=0;image=data:image/png,iVBORw0KGgoAAAANSUhEUgAAAE0AAABNCAMAAADU1xmCAAAAAXNSR0IArs4c6QAAAARnQU1BAACxjwv8YQUAAAKFUExURQAAAP///////////////////////////////////////////////////////////////////////////////////////////////////////////////////////////////////////////////////////////////////////////////////////////////////////////////////////////////////////////////////////////////////////////////////////////////////////////////////////////////////////////////////////////////////////////////////////////////////////////////////////////////////////////////////////////////////////////////////////////////////////////////////////////////////////////////////////////////////////////////////////////////////////////////////////////////////////////////////////////////////////////////////////////////////////////////////////////////////////////////////////////////////////////////////////////////////////////////////////////////////////////////////////////////////////////////////////50ERS8AAADWdFJOUwABAgMEBQYHCAkKCwwNDg8QERITFBUWFxgZGhscHR4fICEiJCUmKCkqKy0uLzAxMzQ2Nzg5Ojw9Pj9AQURGR0hJSkxNTlJUVVhZW11fYmNkZmdpamtsbW5vcHFyc3R1dnd4eXp7fH1+f4CBgoWGh4iJjI2Oj5CRkpOVlpeZmpucnZ6foKGipKWnqKmqq62ur7CxsrO1tre4ubq7vL2+v8DBwsPExcbIycvMzc7P0NHU1dbX2drb3N3e3+Dh4uPk5ejp6uzt7u/w8fLz9PX29/j5+vv8/f773hl/AAAACXBIWXMAABcRAAAXEQHKJvM/AAAEpElEQVRYR+2X+1tURRjHh5aVJUHBC+EC2gWM5KIJltlF0m6aQYJI4a0LSWVSWKgkomElKxnZFbUwQCssS0RLybJIDChFlt3v39M7c96znHP2HB+wp1969sPzsN/3nTNfZmbPzLyICBEiRPiP8KTk5OdlTruBw39Dxuqm7n4/cLWvs/6xJE5eJ4ubL8PAbzvmcMN1kPsxu/zVe3FYU5drpnHjeHn6b9n/5NblOWlJybcuKnv/ooy77+XmcTGhXvb9pGACx0TamtOUGn6Sw3Hg2k8dzz7CkU7CJjnjdRyNnQY5MC8HBhb+RA0lHIyVcurTaJjkKLO+A4L3czA2sq8Cn0ZzYMHbDVxI5mAsRLXSmk3nIIw7/gTelSIm9ZYElbk2D9E8H2Rtw+PUfLd44J0z/YO/t5RM4qwjXwAHWNryEdD+Nlkqugo468AcPwJ5rG3J4p3R3yt/j6zgtD3PAsdYOtAkXfYXpCTlvkobxn8Pp21pATawdOA+MuMtMf9X2n2xmrYj/jyC+awdcNWdWslSLKRpF7G2Id2PP6awdiSGP4ldQEcU63AWACdcrBWGnnYsCOLKzazDyQPaWEqid55dz9IeTw+wlHUYt70OfD068uhGWvEXONBxrygrHT02DwM/brZd6fTdg9S7JzQ5l0++DKjgkInvA3JZC7FXPdK2LGzxii+pli16gxqZZCMnNOLOIZDFmhbuh4B65nAOJ5hqmTz54nwOR80sdmY34Z5X3hqkZwaWc0LxCmXOF3o4omlKs/ZB/HKcPo1rZ3GT5O+jZ4wv3sMUHkrlgIiWa7b99iF0eY+QquQ0YeNG3WnXBkJ3UOLPQOuNHBDqC2gQGUH0iISjpEcna+smsi8Ap/UDijZ7r2Fkic1ksIeeCeBcvJjaQdFrbm6zdxOLaJPxFRRDJ7Rxs8+kv9RA320WucWR+THgS313O7iJWhqctux3AZdMx316j09+sJuY+m3HZBlLnNwyrgDa8bQG+EyJEF71DutuYkrIzNFN0Ho8p0QdUKWEhZCbAUc32pXqApLnaakSFsbl9hRwUAkqFZ5QwsK13Sw1YhFwRAl6u4qVsGB227ZL/g65vfy5+QIs1sdWA1QrYcHo5t4GvEmfutszdB+ZbvFKYJ8ShcBXSlgwusUepHe4jk4kzW0DRadMpQ9t7M1KzB7GyFylzJhmGvshGewU7h4EMpXZN6ZX1EMV1KOapBu+WVMmzOum7Grd3fCnrSLVaS6sF9OplKJJWX0UatKI2U14DtBjvjMYkBVep6VWorOhiaUsL4as1WSYm4iRowvSD03zJs4xVZQL3Q9pdG0HK633ttVNeD6gTpJOs1ncG5Sr5YCYJ6uU71eaC9QwNxElJ0sjM63ZzFVdlGs3nI8i64R8rO9QbcXateuI9SUT2W1WWalO2Qy1dp3TXUWrtUz5S/VtA7Jni7lGmFRt+ucFQzPYbQknJEuE5z0cTRYpXHjp9FWYSgTJ7Co5Yp1hr8ilcy9eLOWEhC72qDsnCpE6wgnJyPFK2/LBM7do0463FA1bJwvvlpqNMSLbt1fHl80PJtY1apk9259flhk2rggRIkT4vyHEP3QbqYVI46A1AAAAAElFTkSuQmCC;fontColor=#FFFFFF;fontSize=15;spacing=-11;" parent="1" vertex="1">
          <mxGeometry x="-245" y="491" width="57.75" height="57.75" as="geometry" />
        </mxCell>
        <mxCell id="wImkBHEnD4N6jClxrFpg-146" value="" style="html=1;endArrow=block;elbow=vertical;startArrow=none;startFill=0;endFill=1;rounded=0;fontColor=#FFFFFF;strokeColor=#FFFFFF;strokeWidth=3;exitX=1;exitY=0.5;exitDx=0;exitDy=0;entryX=0;entryY=0.5;entryDx=0;entryDy=0;" parent="1" source="wImkBHEnD4N6jClxrFpg-126" target="wImkBHEnD4N6jClxrFpg-145" edge="1">
          <mxGeometry x="-0.0114" y="18" width="100" relative="1" as="geometry">
            <mxPoint x="-239" y="473" as="sourcePoint" />
            <mxPoint x="-295" y="473" as="targetPoint" />
            <mxPoint as="offset" />
          </mxGeometry>
        </mxCell>
        <mxCell id="wImkBHEnD4N6jClxrFpg-147" value="" style="outlineConnect=0;fontColor=#232F3E;gradientColor=none;strokeColor=none;dashed=0;verticalLabelPosition=bottom;verticalAlign=top;align=center;html=1;fontSize=12;fontStyle=0;aspect=fixed;pointerEvents=1;shape=mxgraph.aws4.mobile_client;fillColor=#FFFFFF;" parent="1" vertex="1">
          <mxGeometry x="194" y="486.72" width="35.74" height="68" as="geometry" />
        </mxCell>
        <mxCell id="wImkBHEnD4N6jClxrFpg-148" value="" style="shape=image;html=1;verticalAlign=top;verticalLabelPosition=bottom;labelBackgroundColor=#ffffff;imageAspect=0;aspect=fixed;image=https://cdn4.iconfinder.com/data/icons/logos-and-brands/512/335_Telegram_logo-128.png;strokeColor=#FFFFFF;strokeWidth=5;fillColor=#FFFFFF;fontSize=14;fontColor=#FFFFFF;" parent="1" vertex="1">
          <mxGeometry x="198.37" y="510.22" width="27" height="27" as="geometry" />
        </mxCell>
        <mxCell id="wImkBHEnD4N6jClxrFpg-149" value="" style="html=1;endArrow=none;elbow=vertical;startArrow=block;startFill=1;endFill=0;rounded=0;fontColor=#FFFFFF;strokeColor=#FFFFFF;strokeWidth=3;entryX=1.125;entryY=0.434;entryDx=0;entryDy=0;entryPerimeter=0;" parent="1" edge="1">
          <mxGeometry x="-0.0114" y="18" width="100" relative="1" as="geometry">
            <mxPoint x="51.31000000000006" y="520.82" as="sourcePoint" />
            <mxPoint x="-41.74549281314161" y="520.832" as="targetPoint" />
            <mxPoint as="offset" />
          </mxGeometry>
        </mxCell>
        <mxCell id="wImkBHEnD4N6jClxrFpg-150" value="&lt;font style=&quot;font-size: 15px; background-color: rgb(39, 40, 75);&quot;&gt;Push Notification&lt;/font&gt;" style="text;html=1;strokeColor=none;fillColor=none;align=center;verticalAlign=middle;whiteSpace=wrap;rounded=0;fontSize=14;fontColor=#FFFFFF;" parent="1" vertex="1">
          <mxGeometry x="-27" y="475.5" width="74" height="20" as="geometry" />
        </mxCell>
        <mxCell id="wImkBHEnD4N6jClxrFpg-151" value="" style="html=1;endArrow=none;elbow=vertical;startArrow=block;startFill=1;endFill=0;rounded=0;fontColor=#FFFFFF;strokeColor=#FFFFFF;strokeWidth=3;" parent="1" edge="1">
          <mxGeometry x="-0.0114" y="18" width="100" relative="1" as="geometry">
            <mxPoint x="-100.96999999999997" y="519.44" as="sourcePoint" />
            <mxPoint x="-186" y="519" as="targetPoint" />
            <mxPoint as="offset" />
          </mxGeometry>
        </mxCell>
        <mxCell id="wImkBHEnD4N6jClxrFpg-152" value="&lt;font style=&quot;font-size: 15px&quot;&gt;API&lt;/font&gt;" style="text;html=1;strokeColor=none;fillColor=none;align=center;verticalAlign=middle;whiteSpace=wrap;rounded=0;fontSize=14;fontColor=#FFFFFF;" parent="1" vertex="1">
          <mxGeometry x="-368.08" y="495.5" width="74" height="20" as="geometry" />
        </mxCell>
        <mxCell id="wImkBHEnD4N6jClxrFpg-155" value="&lt;font style=&quot;font-size: 15px&quot;&gt;Telegram&lt;/font&gt;" style="text;html=1;strokeColor=none;fillColor=none;align=center;verticalAlign=middle;whiteSpace=wrap;rounded=0;fontSize=14;fontColor=#FFFFFF;" parent="1" vertex="1">
          <mxGeometry x="-113" y="424.5" width="79" height="20" as="geometry" />
        </mxCell>
        <mxCell id="wImkBHEnD4N6jClxrFpg-156" value="" style="shape=image;html=1;verticalAlign=top;verticalLabelPosition=bottom;labelBackgroundColor=#ffffff;imageAspect=0;aspect=fixed;image=https://cdn0.iconfinder.com/data/icons/social-media-2092/100/social-56-128.png;strokeColor=#FFFFFF;strokeWidth=1;fillColor=#FFFFFF;fontColor=#FFFFFF;imageBorder=none;imageBackground=default;" parent="1" vertex="1">
          <mxGeometry x="-169" y="423.5" width="56.5" height="56.5" as="geometry" />
        </mxCell>
        <mxCell id="wImkBHEnD4N6jClxrFpg-158" value="Internet" style="shape=image;verticalLabelPosition=bottom;labelBackgroundColor=none;verticalAlign=top;aspect=fixed;imageAspect=0;image=data:image/png,iVBORw0KGgoAAAANSUhEUgAAAE0AAABNCAMAAADU1xmCAAAAAXNSR0IArs4c6QAAAARnQU1BAACxjwv8YQUAAAKFUExURQAAAP///////////////////////////////////////////////////////////////////////////////////////////////////////////////////////////////////////////////////////////////////////////////////////////////////////////////////////////////////////////////////////////////////////////////////////////////////////////////////////////////////////////////////////////////////////////////////////////////////////////////////////////////////////////////////////////////////////////////////////////////////////////////////////////////////////////////////////////////////////////////////////////////////////////////////////////////////////////////////////////////////////////////////////////////////////////////////////////////////////////////////////////////////////////////////////////////////////////////////////////////////////////////////////////////////////////////////////50ERS8AAADWdFJOUwABAgMEBQYHCAkKCwwNDg8QERITFBUWFxgZGhscHR4fICEiJCUmKCkqKy0uLzAxMzQ2Nzg5Ojw9Pj9AQURGR0hJSkxNTlJUVVhZW11fYmNkZmdpamtsbW5vcHFyc3R1dnd4eXp7fH1+f4CBgoWGh4iJjI2Oj5CRkpOVlpeZmpucnZ6foKGipKWnqKmqq62ur7CxsrO1tre4ubq7vL2+v8DBwsPExcbIycvMzc7P0NHU1dbX2drb3N3e3+Dh4uPk5ejp6uzt7u/w8fLz9PX29/j5+vv8/f773hl/AAAACXBIWXMAABcRAAAXEQHKJvM/AAAEpElEQVRYR+2X+1tURRjHh5aVJUHBC+EC2gWM5KIJltlF0m6aQYJI4a0LSWVSWKgkomElKxnZFbUwQCssS0RLybJIDChFlt3v39M7c96znHP2HB+wp1969sPzsN/3nTNfZmbPzLyICBEiRPiP8KTk5OdlTruBw39Dxuqm7n4/cLWvs/6xJE5eJ4ubL8PAbzvmcMN1kPsxu/zVe3FYU5drpnHjeHn6b9n/5NblOWlJybcuKnv/ooy77+XmcTGhXvb9pGACx0TamtOUGn6Sw3Hg2k8dzz7CkU7CJjnjdRyNnQY5MC8HBhb+RA0lHIyVcurTaJjkKLO+A4L3czA2sq8Cn0ZzYMHbDVxI5mAsRLXSmk3nIIw7/gTelSIm9ZYElbk2D9E8H2Rtw+PUfLd44J0z/YO/t5RM4qwjXwAHWNryEdD+Nlkqugo468AcPwJ5rG3J4p3R3yt/j6zgtD3PAsdYOtAkXfYXpCTlvkobxn8Pp21pATawdOA+MuMtMf9X2n2xmrYj/jyC+awdcNWdWslSLKRpF7G2Id2PP6awdiSGP4ldQEcU63AWACdcrBWGnnYsCOLKzazDyQPaWEqid55dz9IeTw+wlHUYt70OfD068uhGWvEXONBxrygrHT02DwM/brZd6fTdg9S7JzQ5l0++DKjgkInvA3JZC7FXPdK2LGzxii+pli16gxqZZCMnNOLOIZDFmhbuh4B65nAOJ5hqmTz54nwOR80sdmY34Z5X3hqkZwaWc0LxCmXOF3o4omlKs/ZB/HKcPo1rZ3GT5O+jZ4wv3sMUHkrlgIiWa7b99iF0eY+QquQ0YeNG3WnXBkJ3UOLPQOuNHBDqC2gQGUH0iISjpEcna+smsi8Ap/UDijZ7r2Fkic1ksIeeCeBcvJjaQdFrbm6zdxOLaJPxFRRDJ7Rxs8+kv9RA320WucWR+THgS313O7iJWhqctux3AZdMx316j09+sJuY+m3HZBlLnNwyrgDa8bQG+EyJEF71DutuYkrIzNFN0Ho8p0QdUKWEhZCbAUc32pXqApLnaakSFsbl9hRwUAkqFZ5QwsK13Sw1YhFwRAl6u4qVsGB227ZL/g65vfy5+QIs1sdWA1QrYcHo5t4GvEmfutszdB+ZbvFKYJ8ShcBXSlgwusUepHe4jk4kzW0DRadMpQ9t7M1KzB7GyFylzJhmGvshGewU7h4EMpXZN6ZX1EMV1KOapBu+WVMmzOum7Grd3fCnrSLVaS6sF9OplKJJWX0UatKI2U14DtBjvjMYkBVep6VWorOhiaUsL4as1WSYm4iRowvSD03zJs4xVZQL3Q9pdG0HK633ttVNeD6gTpJOs1ncG5Sr5YCYJ6uU71eaC9QwNxElJ0sjM63ZzFVdlGs3nI8i64R8rO9QbcXateuI9SUT2W1WWalO2Qy1dp3TXUWrtUz5S/VtA7Jni7lGmFRt+ucFQzPYbQknJEuE5z0cTRYpXHjp9FWYSgTJ7Co5Yp1hr8ilcy9eLOWEhC72qDsnCpE6wgnJyPFK2/LBM7do0463FA1bJwvvlpqNMSLbt1fHl80PJtY1apk9259flhk2rggRIkT4vyHEP3QbqYVI46A1AAAAAElFTkSuQmCC;fontColor=#FFFFFF;fontSize=15;spacing=-11;" parent="1" vertex="1">
          <mxGeometry x="67" y="486.72" width="57.75" height="57.75" as="geometry" />
        </mxCell>
        <mxCell id="wImkBHEnD4N6jClxrFpg-160" value="" style="html=1;endArrow=none;elbow=vertical;startArrow=block;startFill=1;endFill=0;rounded=0;fontColor=#FFFFFF;strokeColor=#FFFFFF;strokeWidth=3;entryX=1.125;entryY=0.434;entryDx=0;entryDy=0;entryPerimeter=0;" parent="1" edge="1">
          <mxGeometry x="-0.0114" y="18" width="100" relative="1" as="geometry">
            <mxPoint x="186" y="523" as="sourcePoint" />
            <mxPoint x="128.0045071868584" y="523.102" as="targetPoint" />
            <mxPoint as="offset" />
          </mxGeometry>
        </mxCell>
        <mxCell id="wImkBHEnD4N6jClxrFpg-162" value="&lt;font style=&quot;font-size: 12px;&quot;&gt;SUB&lt;/font&gt;" style="text;html=1;strokeColor=none;fillColor=none;align=center;verticalAlign=middle;whiteSpace=wrap;rounded=0;fontSize=12;fontColor=#FFFFFF;" parent="1" vertex="1">
          <mxGeometry x="-532" y="407" width="74" height="20" as="geometry" />
        </mxCell>
        <mxCell id="drTwSfORm-FCbRmopEba-2" value="Internet" style="shape=image;verticalLabelPosition=bottom;labelBackgroundColor=none;verticalAlign=top;aspect=fixed;imageAspect=0;image=data:image/png,iVBORw0KGgoAAAANSUhEUgAAAE0AAABNCAMAAADU1xmCAAAAAXNSR0IArs4c6QAAAARnQU1BAACxjwv8YQUAAAKFUExURQAAAP///////////////////////////////////////////////////////////////////////////////////////////////////////////////////////////////////////////////////////////////////////////////////////////////////////////////////////////////////////////////////////////////////////////////////////////////////////////////////////////////////////////////////////////////////////////////////////////////////////////////////////////////////////////////////////////////////////////////////////////////////////////////////////////////////////////////////////////////////////////////////////////////////////////////////////////////////////////////////////////////////////////////////////////////////////////////////////////////////////////////////////////////////////////////////////////////////////////////////////////////////////////////////////////////////////////////////////50ERS8AAADWdFJOUwABAgMEBQYHCAkKCwwNDg8QERITFBUWFxgZGhscHR4fICEiJCUmKCkqKy0uLzAxMzQ2Nzg5Ojw9Pj9AQURGR0hJSkxNTlJUVVhZW11fYmNkZmdpamtsbW5vcHFyc3R1dnd4eXp7fH1+f4CBgoWGh4iJjI2Oj5CRkpOVlpeZmpucnZ6foKGipKWnqKmqq62ur7CxsrO1tre4ubq7vL2+v8DBwsPExcbIycvMzc7P0NHU1dbX2drb3N3e3+Dh4uPk5ejp6uzt7u/w8fLz9PX29/j5+vv8/f773hl/AAAACXBIWXMAABcRAAAXEQHKJvM/AAAEpElEQVRYR+2X+1tURRjHh5aVJUHBC+EC2gWM5KIJltlF0m6aQYJI4a0LSWVSWKgkomElKxnZFbUwQCssS0RLybJIDChFlt3v39M7c96znHP2HB+wp1969sPzsN/3nTNfZmbPzLyICBEiRPiP8KTk5OdlTruBw39Dxuqm7n4/cLWvs/6xJE5eJ4ubL8PAbzvmcMN1kPsxu/zVe3FYU5drpnHjeHn6b9n/5NblOWlJybcuKnv/ooy77+XmcTGhXvb9pGACx0TamtOUGn6Sw3Hg2k8dzz7CkU7CJjnjdRyNnQY5MC8HBhb+RA0lHIyVcurTaJjkKLO+A4L3czA2sq8Cn0ZzYMHbDVxI5mAsRLXSmk3nIIw7/gTelSIm9ZYElbk2D9E8H2Rtw+PUfLd44J0z/YO/t5RM4qwjXwAHWNryEdD+Nlkqugo468AcPwJ5rG3J4p3R3yt/j6zgtD3PAsdYOtAkXfYXpCTlvkobxn8Pp21pATawdOA+MuMtMf9X2n2xmrYj/jyC+awdcNWdWslSLKRpF7G2Id2PP6awdiSGP4ldQEcU63AWACdcrBWGnnYsCOLKzazDyQPaWEqid55dz9IeTw+wlHUYt70OfD068uhGWvEXONBxrygrHT02DwM/brZd6fTdg9S7JzQ5l0++DKjgkInvA3JZC7FXPdK2LGzxii+pli16gxqZZCMnNOLOIZDFmhbuh4B65nAOJ5hqmTz54nwOR80sdmY34Z5X3hqkZwaWc0LxCmXOF3o4omlKs/ZB/HKcPo1rZ3GT5O+jZ4wv3sMUHkrlgIiWa7b99iF0eY+QquQ0YeNG3WnXBkJ3UOLPQOuNHBDqC2gQGUH0iISjpEcna+smsi8Ap/UDijZ7r2Fkic1ksIeeCeBcvJjaQdFrbm6zdxOLaJPxFRRDJ7Rxs8+kv9RA320WucWR+THgS313O7iJWhqctux3AZdMx316j09+sJuY+m3HZBlLnNwyrgDa8bQG+EyJEF71DutuYkrIzNFN0Ho8p0QdUKWEhZCbAUc32pXqApLnaakSFsbl9hRwUAkqFZ5QwsK13Sw1YhFwRAl6u4qVsGB227ZL/g65vfy5+QIs1sdWA1QrYcHo5t4GvEmfutszdB+ZbvFKYJ8ShcBXSlgwusUepHe4jk4kzW0DRadMpQ9t7M1KzB7GyFylzJhmGvshGewU7h4EMpXZN6ZX1EMV1KOapBu+WVMmzOum7Grd3fCnrSLVaS6sF9OplKJJWX0UatKI2U14DtBjvjMYkBVep6VWorOhiaUsL4as1WSYm4iRowvSD03zJs4xVZQL3Q9pdG0HK633ttVNeD6gTpJOs1ncG5Sr5YCYJ6uU71eaC9QwNxElJ0sjM63ZzFVdlGs3nI8i64R8rO9QbcXateuI9SUT2W1WWalO2Qy1dp3TXUWrtUz5S/VtA7Jni7lGmFRt+ucFQzPYbQknJEuE5z0cTRYpXHjp9FWYSgTJ7Co5Yp1hr8ilcy9eLOWEhC72qDsnCpE6wgnJyPFK2/LBM7do0463FA1bJwvvlpqNMSLbt1fHl80PJtY1apk9259flhk2rggRIkT4vyHEP3QbqYVI46A1AAAAAElFTkSuQmCC;fontColor=#FFFFFF;labelPosition=center;align=center;fontSize=15;spacing=-17;" parent="1" vertex="1">
          <mxGeometry x="-244.99999999999997" y="648" width="60.5" height="60.5" as="geometry" />
        </mxCell>
        <mxCell id="drTwSfORm-FCbRmopEba-4" value="Alexa" style="shape=image;verticalLabelPosition=bottom;labelBackgroundColor=none;verticalAlign=top;aspect=fixed;imageAspect=0;image=data:image/png,iVBORw0KGgoAAAANSUhEUgAAAEsAAABLCAMAAAAPkIrYAAAAAXNSR0IArs4c6QAAAARnQU1BAACxjwv8YQUAAAAzUExURQAAAICfEHifGHqfFXifFHmfFnqfFXmfF3qfFnuiFXqiFnqiFnmiFXqhFnqhFnqhFnqhFkUg4ncAAAAQdFJOUwAQIDBAUGBwgI+fr7/P3+8jGoKKAAAACXBIWXMAABcRAAAXEQHKJvM/AAAB9klEQVRYR+2Y65KDIAyFBeUO0vd/2j2RaG+4Nd2dndmp3x/BliOGlJwyfDxqciHmXMpccoreTnxfzORLvTySg1xPmcKjn6iBv3MQnXhcDt5ZA6zzMbebl2r4a0fQM43IduT+hnbtIZb7r1E0gTwOk/Od6DgSOxw1057saVDkezeMCGXh9ksiZoXLhDctvdBMeIbi9isoJm5pdUdMtMSaO69o8e1nkrItWWRaICHVNc9N6dG4sGWdQGtNpUYF3CToQ4GWG9y93Ebx44CLSAsYFzNlLVNLCmZJX3SkWg0ECug1bgRe+D2tDr+s9fRT3eHUAqfWHacWkGklbnbR2HMEWpe8uxEoh2mJtKDWK7TKRFKSahFz8igfBDmKcLPLCrQ2H9Kheuk66n7xKGFSwnX0S0MbGKVcZqKkFBx0gJJpXb4xbIsHkMU+2Y6bUKNvpVumBbCMWEWUM0WFjSxASwgg0LqtsY/ULF1HE7Y53FIzPIBUCyhaxpklK1YyuHGJ4RtaG4gXtxo/0Xrk1Lrj1AKn1h1/rXX0z+i/1cIGfmpdgRadA+xiBbGn84mym4yKit3cqel9IhWx0HWG7dCoHp0WWI5Mnp3h6gr3J91jXD1AgTN01lp3dYXVH35Bxuw4wwoPIKfjDEsy0jldgTOkE8OcU1xd4QczDF/t2DWuZyNsKQAAAABJRU5ErkJggg==;fontColor=#FFFFFF;fontSize=14;spacing=-5;" parent="1" vertex="1">
          <mxGeometry x="-547" y="667" width="62" height="62" as="geometry" />
        </mxCell>
        <mxCell id="drTwSfORm-FCbRmopEba-5" value="&lt;font style=&quot;font-size: 15px&quot;&gt;Alexa Voice Service&lt;/font&gt;" style="text;html=1;strokeColor=none;fillColor=none;align=center;verticalAlign=middle;whiteSpace=wrap;rounded=0;fontSize=14;fontColor=#FFFFFF;" parent="1" vertex="1">
          <mxGeometry x="-109.90000000000009" y="609" width="145" height="20" as="geometry" />
        </mxCell>
        <mxCell id="drTwSfORm-FCbRmopEba-6" value="" style="shape=image;verticalLabelPosition=bottom;labelBackgroundColor=default;verticalAlign=top;aspect=fixed;imageAspect=0;image=https://upload.wikimedia.org/wikipedia/commons/thumb/b/b6/Amazon_Alexa_blue_logo.svg/2048px-Amazon_Alexa_blue_logo.svg.png;" parent="1" vertex="1">
          <mxGeometry x="-162.5" y="612" width="45" height="45" as="geometry" />
        </mxCell>
        <mxCell id="drTwSfORm-FCbRmopEba-11" value="" style="html=1;endArrow=block;elbow=vertical;startArrow=none;startFill=0;endFill=1;rounded=0;fontColor=#FFFFFF;strokeColor=#FFFFFF;strokeWidth=3;entryX=0;entryY=0.5;entryDx=0;entryDy=0;edgeStyle=orthogonalEdgeStyle;" parent="1" target="drTwSfORm-FCbRmopEba-2" edge="1">
          <mxGeometry x="-0.0114" y="18" width="100" relative="1" as="geometry">
            <mxPoint x="-448" y="584" as="sourcePoint" />
            <mxPoint x="-242" y="530" as="targetPoint" />
            <mxPoint as="offset" />
            <Array as="points">
              <mxPoint x="-448" y="678" />
            </Array>
          </mxGeometry>
        </mxCell>
        <mxCell id="drTwSfORm-FCbRmopEba-12" value="" style="html=1;endArrow=none;elbow=vertical;startArrow=block;startFill=1;endFill=0;rounded=0;fontColor=#FFFFFF;strokeColor=#FFFFFF;strokeWidth=3;entryX=1.125;entryY=0.434;entryDx=0;entryDy=0;entryPerimeter=0;" parent="1" edge="1">
          <mxGeometry x="-0.0114" y="18" width="100" relative="1" as="geometry">
            <mxPoint x="-87.93999999999997" y="677.75" as="sourcePoint" />
            <mxPoint x="-180.99549281314162" y="677.762" as="targetPoint" />
            <mxPoint as="offset" />
          </mxGeometry>
        </mxCell>
        <mxCell id="drTwSfORm-FCbRmopEba-13" value="Text To Speech" style="shape=image;verticalLabelPosition=bottom;labelBackgroundColor=none;verticalAlign=top;aspect=fixed;imageAspect=0;image=data:image/png,iVBORw0KGgoAAAANSUhEUgAAAEsAAABLCAMAAAAPkIrYAAAAAXNSR0IArs4c6QAAAARnQU1BAACxjwv8YQUAAAAzUExURQAAAICfEHifGHqfFXifFHmfFnqfFXmfF3qfFnuiFXqiFnqiFnmiFXqhFnqhFnqhFnqhFkUg4ncAAAAQdFJOUwAQIDBAUGBwgI+fr7/P3+8jGoKKAAAACXBIWXMAABcRAAAXEQHKJvM/AAADK0lEQVRYR+2Y2XrjIAyFTbxgGwd4/6edc4S84Y2m028upv9FaBU4lmQZi1T/Kdb7nmPj/SQG773h6LxvOc4TCuhjHDk2MXoxxBhfHKcYO47zhAJ+tUCRlnmRIUbHsY0xiAFaDUdo9RznCXKBc2oXsOpLuFrXZtRfViLnYojgA1JGMwy+aKW8y0FG013JYIb1z3KQlkb/3PKRlv8ftWxPUMwfaY2yet7PYFDUUM6yNOSGv6DVj8TBooZyoOVk9aCGxG99XXDQagQ+82ooB1o2LV8NihrKWZb+RH1NeMd7zx1aDeVASxb7txoSv/V1wY9qwaCooZxl6Yf1ZVo7jGNv6dC3tEz/1rlgaA5aqbtBh/SoZYas5/CtrAU6I1GQe3UjuGHoR20/9huq8qxl6VTol86mHSn2PmkoHrXQDcZg0b3UXQ/HmPqayQvHtulJy9KHujJ2Sf4Ij+QCm+7ITQKsajijRYBvUzWb2yjJ6jCkE4VQUhMGkyAlKYvvcRhS6mnCYHVWmRZiCY2sC4Pmp+U6HG7wYg1L/tuOcJ4ajhj401cNPv3m+WMLMonL2fHoNvd0yxjkyu8qgJnvmLK57JVbLXb2jBBx7mB80unKGWLhTouzXxXcyqs8yaBm9+eQOy28O99VLYIZkHHbIJ97OUQnK/ZvG8JzDt0o33NwnYGJPp6oGKSRj/T/sxYi6ZNgTpLBh0b/3MtB5kbrtdFK3OUeMiNjdPr/Cm+ILC3WQtpdSnOO3OHl0Dpzp4XJZyUJkJkTj++0eIaSksxPeHxO2/RUbLnVgswkM7Lsy3PKt86+iBnCxYlXgsSXUNxsVSBtH3BrsxsK3DFTM3UGc8yNQnbmGYgHw+ZUfprZwGtfwq3YJrE1TtlSX/Atdwu1sj4AB14s5a4ysjXrY8kN29Fy8iZC/qUlhueOIxLrxUAtcQnJsrygJA1fY2vkNXY53INJJ7+bMBYJD6tRTSLiOyofn6yVc630+0XopNS1sdin74wLLc18ZMpESQg3AYIrrXTj9kyXJZm41kLTlCSUKa+rAzYE0apDSFohrC/Tqh1SqGFaO57vgN7ti7/W/Duq6g86AVRKkd697QAAAABJRU5ErkJggg==;fontColor=#FFFFFF;fontSize=14;spacing=0;" parent="1" vertex="1">
          <mxGeometry x="-84.5" y="652.5" width="51.5" height="51.5" as="geometry" />
        </mxCell>
        <mxCell id="drTwSfORm-FCbRmopEba-15" value="&lt;font style=&quot;font-size: 15px&quot;&gt;API&lt;/font&gt;" style="text;html=1;strokeColor=none;fillColor=none;align=center;verticalAlign=middle;whiteSpace=wrap;rounded=0;fontSize=14;fontColor=#FFFFFF;" parent="1" vertex="1">
          <mxGeometry x="-397" y="652.5" width="74" height="20" as="geometry" />
        </mxCell>
        <mxCell id="drTwSfORm-FCbRmopEba-19" value="" style="html=1;endArrow=none;elbow=vertical;startArrow=block;startFill=1;endFill=0;rounded=0;fontColor=#FFFFFF;strokeColor=#FFFFFF;strokeWidth=3;entryX=1.125;entryY=0.434;entryDx=0;entryDy=0;entryPerimeter=0;" parent="1" edge="1">
          <mxGeometry x="-0.0114" y="18" width="100" relative="1" as="geometry">
            <mxPoint x="-186.4" y="697" as="sourcePoint" />
            <mxPoint x="-88.39549281314163" y="697.012" as="targetPoint" />
            <mxPoint as="offset" />
          </mxGeometry>
        </mxCell>
        <mxCell id="drTwSfORm-FCbRmopEba-20" value="" style="html=1;endArrow=none;elbow=vertical;startArrow=block;startFill=1;endFill=0;rounded=0;fontColor=#FFFFFF;strokeColor=#FFFFFF;strokeWidth=3;entryX=1.125;entryY=0.434;entryDx=0;entryDy=0;entryPerimeter=0;" parent="1" source="drTwSfORm-FCbRmopEba-4" edge="1">
          <mxGeometry x="-0.0114" y="18" width="100" relative="1" as="geometry">
            <mxPoint x="-351.37" y="698" as="sourcePoint" />
            <mxPoint x="-253.36549281314163" y="698.012" as="targetPoint" />
            <mxPoint as="offset" />
          </mxGeometry>
        </mxCell>
        <mxCell id="drTwSfORm-FCbRmopEba-28" value="You have got mail !" style="shape=callout;whiteSpace=wrap;html=1;perimeter=calloutPerimeter;position2=0.83;fillColor=#27284B;strokeColor=#FFFFFF;fontColor=#ffffff;" parent="1" vertex="1">
          <mxGeometry x="-637" y="621" width="120" height="57" as="geometry" />
        </mxCell>
        <mxCell id="0xZzRFLlRY3vSKZEUTGD-1" value="1" style="ellipse;whiteSpace=wrap;html=1;aspect=fixed;strokeWidth=2;fontSize=18;fontStyle=1;strokeColor=#FFFFFF;fillColor=none;fontColor=#FFFFFF;" parent="1" vertex="1">
          <mxGeometry x="-168" y="18" width="30" height="30" as="geometry" />
        </mxCell>
        <mxCell id="0xZzRFLlRY3vSKZEUTGD-4" value="2" style="ellipse;whiteSpace=wrap;html=1;aspect=fixed;strokeWidth=2;fontSize=18;fontStyle=1;strokeColor=#FFFFFF;fillColor=none;fontColor=#FFFFFF;" parent="1" vertex="1">
          <mxGeometry x="102" y="120" width="30" height="30" as="geometry" />
        </mxCell>
        <mxCell id="0xZzRFLlRY3vSKZEUTGD-6" value="3" style="ellipse;whiteSpace=wrap;html=1;aspect=fixed;strokeWidth=2;fontSize=18;fontStyle=1;strokeColor=#FFFFFF;fillColor=none;fontColor=#FFFFFF;" parent="1" vertex="1">
          <mxGeometry x="-7" y="253" width="30" height="30" as="geometry" />
        </mxCell>
        <mxCell id="0xZzRFLlRY3vSKZEUTGD-7" value="4" style="ellipse;whiteSpace=wrap;html=1;aspect=fixed;strokeWidth=2;fontSize=18;fontStyle=1;strokeColor=#FFFFFF;fillColor=none;fontColor=#FFFFFF;" parent="1" vertex="1">
          <mxGeometry x="-403" y="463" width="30" height="30" as="geometry" />
        </mxCell>
      </root>
    </mxGraphModel>
  </diagram>
</mxfile>
